Monoto-ExtendedBold.ufo
<glyph name="exclam" format="2">
  <advance width="800"/>
  <unicode hex="0021"/>
  <outline>
    <contour>
      <point x="314" y="263" type="line"/>
      <point x="494" y="263" type="line"/>
      <point x="524" y="714" type="line"/>
      <point x="283" y="714" type="line"/>
    </contour>
    <contour>
      <point x="403" y="-12" type="curve" smooth="yes"/>
      <point x="469" y="-12"/>
      <point x="524" y="16"/>
      <point x="524" y="86" type="curve" smooth="yes"/>
      <point x="524" y="159"/>
      <point x="469" y="186"/>
      <point x="403" y="186" type="curve" smooth="yes"/>
      <point x="335" y="186"/>
      <point x="280" y="159"/>
      <point x="280" y="86" type="curve" smooth="yes"/>
      <point x="280" y="16"/>
      <point x="335" y="-12"/>
    </contour>
  </outline>
</glyph>
<glyph name="numbersign" format="2">
  <advance width="800"/>
  <unicode hex="0023"/>
  <outline>
    <contour>
      <point x="99" y="0" type="line"/>
      <point x="243" y="0" type="line"/>
      <point x="292" y="187" type="line"/>
      <point x="426" y="187" type="line"/>
      <point x="375" y="0" type="line"/>
      <point x="521" y="0" type="line"/>
      <point x="572" y="187" type="line"/>
      <point x="766" y="187" type="line"/>
      <point x="766" y="317" type="line"/>
      <point x="595" y="317" type="line"/>
      <point x="627" y="395" type="line"/>
      <point x="809" y="395" type="line"/>
      <point x="809" y="529" type="line"/>
      <point x="650" y="529" type="line"/>
      <point x="701" y="714" type="line"/>
      <point x="556" y="714" type="line"/>
      <point x="506" y="529" type="line"/>
      <point x="373" y="529" type="line"/>
      <point x="423" y="714" type="line"/>
      <point x="277" y="714" type="line"/>
      <point x="227" y="529" type="line"/>
      <point x="36" y="529" type="line"/>
      <point x="36" y="395" type="line"/>
      <point x="203" y="395" type="line"/>
      <point x="172" y="317" type="line"/>
      <point x="-10" y="317" type="line"/>
      <point x="-10" y="187" type="line"/>
      <point x="147" y="187" type="line"/>
    </contour>
    <contour>
      <point x="317" y="317" type="line"/>
      <point x="348" y="395" type="line"/>
      <point x="481" y="395" type="line"/>
      <point x="450" y="317" type="line"/>
    </contour>
  </outline>
</glyph>
<glyph name="dollar" format="2">
  <advance width="800"/>
  <unicode hex="0024"/>
  <outline>
    <contour>
      <point x="347" y="-58" type="line"/>
      <point x="452" y="-58" type="line"/>
      <point x="452" y="23" type="line"/>
      <point x="629" y="42"/>
      <point x="723" y="126"/>
      <point x="723" y="236" type="curve" smooth="yes"/>
      <point x="723" y="344"/>
      <point x="631" y="390"/>
      <point x="452" y="433" type="curve"/>
      <point x="452" y="552" type="line"/>
      <point x="518" y="547"/>
      <point x="589" y="534"/>
      <point x="651" y="511" type="curve"/>
      <point x="701" y="651" type="line"/>
      <point x="624" y="676"/>
      <point x="548" y="695"/>
      <point x="452" y="699" type="curve"/>
      <point x="452" y="760" type="line"/>
      <point x="347" y="760" type="line"/>
      <point x="347" y="698" type="line"/>
      <point x="183" y="687"/>
      <point x="76" y="626"/>
      <point x="76" y="504" type="curve" smooth="yes"/>
      <point x="76" y="389"/>
      <point x="175" y="334"/>
      <point x="347" y="293" type="curve"/>
      <point x="347" y="166" type="line"/>
      <point x="259" y="169"/>
      <point x="156" y="194"/>
      <point x="83" y="226" type="curve"/>
      <point x="83" y="65" type="line"/>
      <point x="153" y="40"/>
      <point x="246" y="24"/>
      <point x="347" y="21" type="curve"/>
    </contour>
    <contour>
      <point x="452" y="171" type="curve"/>
      <point x="452" y="264" type="line"/>
      <point x="528" y="252"/>
      <point x="553" y="242"/>
      <point x="553" y="220" type="curve" smooth="yes"/>
      <point x="553" y="192"/>
      <point x="522" y="180"/>
    </contour>
    <contour>
      <point x="347" y="463" type="line"/>
      <point x="274" y="476"/>
      <point x="248" y="486"/>
      <point x="248" y="506" type="curve" smooth="yes"/>
      <point x="248" y="533"/>
      <point x="278" y="544"/>
      <point x="347" y="552" type="curve"/>
    </contour>
  </outline>
</glyph>
<glyph name="ampersand" format="2">
  <advance width="800"/>
  <unicode hex="0026"/>
  <outline>
    <contour>
      <point x="284" y="-10" type="curve" smooth="yes"/>
      <point x="560" y="-10"/>
      <point x="743" y="246"/>
      <point x="770" y="412" type="curve"/>
      <point x="609" y="412" type="line"/>
      <point x="594" y="331"/>
      <point x="475" y="148"/>
      <point x="311" y="148" type="curve" smooth="yes"/>
      <point x="232" y="148"/>
      <point x="188" y="176"/>
      <point x="188" y="212" type="curve" smooth="yes"/>
      <point x="188" y="250"/>
      <point x="251" y="277"/>
      <point x="334" y="327" type="curve" smooth="yes"/>
      <point x="455" y="400"/>
      <point x="570" y="439"/>
      <point x="570" y="552" type="curve" smooth="yes"/>
      <point x="570" y="653"/>
      <point x="484" y="723"/>
      <point x="336" y="723" type="curve" smooth="yes"/>
      <point x="189" y="723"/>
      <point x="98" y="655"/>
      <point x="98" y="548" type="curve" smooth="yes"/>
      <point x="98" y="458"/>
      <point x="169" y="386"/>
      <point x="221" y="339" type="curve" smooth="yes"/>
      <point x="603" y="0" type="line"/>
      <point x="811" y="0" type="line"/>
      <point x="344" y="434" type="line" smooth="yes"/>
      <point x="310" y="466"/>
      <point x="261" y="504"/>
      <point x="261" y="550" type="curve" smooth="yes"/>
      <point x="261" y="580"/>
      <point x="291" y="594"/>
      <point x="337" y="594" type="curve" smooth="yes"/>
      <point x="382" y="594"/>
      <point x="411" y="579"/>
      <point x="411" y="559" type="curve" smooth="yes"/>
      <point x="411" y="512"/>
      <point x="311" y="472"/>
      <point x="246" y="439" type="curve" smooth="yes"/>
      <point x="133" y="382"/>
      <point x="10" y="311"/>
      <point x="10" y="186" type="curve" smooth="yes"/>
      <point x="10" y="80"/>
      <point x="108" y="-10"/>
    </contour>
  </outline>
</glyph>
<glyph name="quotesingle" format="2">
  <advance width="800"/>
  <unicode hex="0027"/>
  <outline>
    <contour>
      <point x="328" y="456" type="line"/>
      <point x="472" y="456" type="line"/>
      <point x="501" y="714" type="line"/>
      <point x="299" y="714" type="line"/>
    </contour>
  </outline>
</glyph>
<glyph name="parenleft" format="2">
  <advance width="800"/>
  <unicode hex="0028"/>
  <outline>
    <contour>
      <point x="441" y="-182" type="curve"/>
      <point x="619" y="-182" type="line"/>
      <point x="493" y="-50"/>
      <point x="429" y="100"/>
      <point x="429" y="263" type="curve" smooth="yes"/>
      <point x="429" y="431"/>
      <point x="490" y="587"/>
      <point x="619" y="714" type="curve"/>
      <point x="441" y="714" type="line"/>
      <point x="307" y="599"/>
      <point x="240" y="441"/>
      <point x="240" y="262" type="curve" smooth="yes"/>
      <point x="240" y="85"/>
      <point x="305" y="-67"/>
    </contour>
  </outline>
</glyph>
<glyph name="asterisk" format="2">
  <advance width="800"/>
  <unicode hex="002A"/>
  <outline>
    <contour>
      <point x="513" y="293" type="line"/>
      <point x="651" y="372" type="line"/>
      <point x="506" y="493" type="line"/>
      <point x="723" y="517" type="line"/>
      <point x="692" y="654" type="line"/>
      <point x="461" y="608" type="line"/>
      <point x="482" y="766" type="line"/>
      <point x="315" y="766" type="line"/>
      <point x="338" y="608" type="line"/>
      <point x="111" y="652" type="line"/>
      <point x="78" y="514" type="line"/>
      <point x="295" y="493" type="line"/>
      <point x="151" y="367" type="line"/>
      <point x="290" y="295" type="line"/>
      <point x="398" y="421" type="line"/>
    </contour>
  </outline>
</glyph>
<glyph name="plus" format="2">
  <advance width="800"/>
  <unicode hex="002B"/>
  <outline>
    <contour>
      <point x="323" y="109" type="line"/>
      <point x="477" y="109" type="line"/>
      <point x="477" y="280" type="line"/>
      <point x="723" y="280" type="line"/>
      <point x="723" y="425" type="line"/>
      <point x="477" y="425" type="line"/>
      <point x="477" y="600" type="line"/>
      <point x="323" y="600" type="line"/>
      <point x="323" y="425" type="line"/>
      <point x="76" y="425" type="line"/>
      <point x="76" y="280" type="line"/>
      <point x="323" y="280" type="line"/>
    </contour>
  </outline>
</glyph>
<glyph name="hyphen" format="2">
  <advance width="800"/>
  <unicode hex="002D"/>
  <outline>
    <contour>
      <point x="185" y="187" type="line"/>
      <point x="615" y="187" type="line"/>
      <point x="615" y="353" type="line"/>
      <point x="185" y="353" type="line"/>
    </contour>
  </outline>
</glyph>
<glyph name="period" format="2">
  <advance width="800"/>
  <unicode hex="002E"/>
  <outline>
    <contour>
      <point x="401" y="-6" type="curve" smooth="yes"/>
      <point x="466" y="-6"/>
      <point x="520" y="21"/>
      <point x="520" y="90" type="curve" smooth="yes"/>
      <point x="520" y="160"/>
      <point x="466" y="187"/>
      <point x="401" y="187" type="curve" smooth="yes"/>
      <point x="334" y="187"/>
      <point x="280" y="160"/>
      <point x="280" y="90" type="curve" smooth="yes"/>
      <point x="280" y="21"/>
      <point x="334" y="-6"/>
    </contour>
  </outline>
</glyph>
<glyph name="zero" format="2">
  <advance width="800"/>
  <unicode hex="0030"/>
  <outline>
    <contour>
      <point x="398" y="-10" type="curve" smooth="yes"/>
      <point x="668" y="-10"/>
      <point x="760" y="142"/>
      <point x="760" y="356" type="curve" smooth="yes"/>
      <point x="760" y="595"/>
      <point x="645" y="724"/>
      <point x="398" y="724" type="curve" smooth="yes"/>
      <point x="142" y="724"/>
      <point x="39" y="601"/>
      <point x="39" y="356" type="curve" smooth="yes"/>
      <point x="39" y="120"/>
      <point x="152" y="-10"/>
    </contour>
    <contour>
      <point x="248" y="96" type="line"/>
      <point x="628" y="506" type="line"/>
      <point x="534" y="603" type="line"/>
      <point x="149" y="185" type="line"/>
    </contour>
    <contour>
      <point x="398" y="153" type="curve" smooth="yes"/>
      <point x="263" y="153"/>
      <point x="217" y="216"/>
      <point x="217" y="356" type="curve" smooth="yes"/>
      <point x="217" y="492"/>
      <point x="266" y="562"/>
      <point x="398" y="562" type="curve" smooth="yes"/>
      <point x="532" y="562"/>
      <point x="583" y="493"/>
      <point x="583" y="356" type="curve" smooth="yes"/>
      <point x="583" y="217"/>
      <point x="532" y="153"/>
    </contour>
  </outline>
</glyph>
<glyph name="five" format="2">
  <advance width="800"/>
  <unicode hex="0035"/>
  <outline>
    <contour>
      <point x="333" y="-10" type="curve" smooth="yes"/>
      <point x="583" y="-10"/>
      <point x="735" y="75"/>
      <point x="735" y="250" type="curve" smooth="yes"/>
      <point x="735" y="383"/>
      <point x="612" y="475"/>
      <point x="423" y="475" type="curve" smooth="yes"/>
      <point x="383" y="475"/>
      <point x="334" y="472"/>
      <point x="289" y="466" type="curve"/>
      <point x="308" y="549" type="line"/>
      <point x="674" y="549" type="line"/>
      <point x="674" y="714" type="line"/>
      <point x="118" y="714" type="line"/>
      <point x="82" y="333" type="line"/>
      <point x="160" y="296" type="line"/>
      <point x="207" y="307"/>
      <point x="272" y="314"/>
      <point x="324" y="314" type="curve" smooth="yes"/>
      <point x="450" y="314"/>
      <point x="526" y="284"/>
      <point x="526" y="236" type="curve" smooth="yes"/>
      <point x="526" y="183"/>
      <point x="450" y="153"/>
      <point x="325" y="153" type="curve" smooth="yes"/>
      <point x="225" y="153"/>
      <point x="135" y="177"/>
      <point x="64" y="198" type="curve"/>
      <point x="64" y="28" type="line"/>
      <point x="138" y="3"/>
      <point x="237" y="-10"/>
    </contour>
  </outline>
</glyph>
<glyph name="seven" format="2">
  <advance width="800"/>
  <unicode hex="0037"/>
  <outline>
    <contour>
      <point x="173" y="0" type="line"/>
      <point x="387" y="0" type="line"/>
      <point x="760" y="589" type="line"/>
      <point x="760" y="714" type="line"/>
      <point x="39" y="714" type="line"/>
      <point x="39" y="549" type="line"/>
      <point x="550" y="549" type="line"/>
    </contour>
  </outline>
</glyph>
<glyph name="eight" format="2">
  <advance width="800"/>
  <unicode hex="0038"/>
  <outline>
    <contour>
      <point x="392" y="-10" type="curve" smooth="yes"/>
      <point x="620" y="-10"/>
      <point x="746" y="69"/>
      <point x="746" y="184" type="curve" smooth="yes"/>
      <point x="746" y="271"/>
      <point x="658" y="324"/>
      <point x="531" y="374" type="curve"/>
      <point x="647" y="414"/>
      <point x="721" y="470"/>
      <point x="721" y="549" type="curve" smooth="yes"/>
      <point x="721" y="664"/>
      <point x="588" y="724"/>
      <point x="401" y="724" type="curve" smooth="yes"/>
      <point x="215" y="724"/>
      <point x="85" y="664"/>
      <point x="85" y="550" type="curve" smooth="yes"/>
      <point x="85" y="477"/>
      <point x="151" y="421"/>
      <point x="243" y="373" type="curve"/>
      <point x="131" y="328"/>
      <point x="52" y="275"/>
      <point x="52" y="190" type="curve" smooth="yes"/>
      <point x="52" y="67"/>
      <point x="173" y="-10"/>
    </contour>
    <contour>
      <point x="398" y="140" type="curve" smooth="yes"/>
      <point x="293" y="140"/>
      <point x="244" y="155"/>
      <point x="244" y="197" type="curve" smooth="yes"/>
      <point x="244" y="229"/>
      <point x="302" y="255"/>
      <point x="386" y="280" type="curve"/>
      <point x="488" y="252"/>
      <point x="556" y="232"/>
      <point x="556" y="191" type="curve" smooth="yes"/>
      <point x="556" y="157"/>
      <point x="495" y="140"/>
    </contour>
    <contour>
      <point x="400" y="468" type="curve"/>
      <point x="333" y="490"/>
      <point x="276" y="507"/>
      <point x="276" y="533" type="curve" smooth="yes"/>
      <point x="276" y="558"/>
      <point x="326" y="576"/>
      <point x="402" y="576" type="curve" smooth="yes"/>
      <point x="473" y="576"/>
      <point x="528" y="564"/>
      <point x="528" y="533" type="curve" smooth="yes"/>
      <point x="528" y="507"/>
      <point x="474" y="489"/>
    </contour>
  </outline>
</glyph>
<glyph name="semicolon" format="2">
  <advance width="800"/>
  <unicode hex="003B"/>
  <outline>
    <contour>
      <point x="243" y="-166" type="curve" smooth="yes"/>
      <point x="402" y="-166" type="line" smooth="yes"/>
      <point x="451" y="-166"/>
      <point x="505" y="74"/>
      <point x="532" y="146" type="curve"/>
      <point x="521" y="150" type="line" smooth="yes"/>
      <point x="340" y="222" type="line"/>
      <point x="302" y="74"/>
      <point x="272" y="-166"/>
    </contour>
    <contour>
      <point x="429" y="367" type="curve" smooth="yes"/>
      <point x="495" y="367"/>
      <point x="550" y="396"/>
      <point x="550" y="466" type="curve" smooth="yes"/>
      <point x="550" y="539"/>
      <point x="495" y="566"/>
      <point x="429" y="566" type="curve" smooth="yes"/>
      <point x="361" y="566"/>
      <point x="306" y="539"/>
      <point x="306" y="466" type="curve" smooth="yes"/>
      <point x="306" y="396"/>
      <point x="361" y="367"/>
    </contour>
  </outline>
</glyph>
<glyph name="greater" format="2">
  <advance width="800"/>
  <unicode hex="003E"/>
  <outline>
    <contour>
      <point x="91" y="96" type="line"/>
      <point x="709" y="311" type="line"/>
      <point x="709" y="402" type="line"/>
      <point x="91" y="626" type="line"/>
      <point x="91" y="467" type="line"/>
      <point x="505" y="360" type="line"/>
      <point x="91" y="255" type="line"/>
    </contour>
  </outline>
</glyph>
<glyph name="question" format="2">
  <advance width="800"/>
  <unicode hex="003F"/>
  <outline>
    <contour>
      <point x="273" y="263" type="line"/>
      <point x="455" y="263" type="line"/>
      <point x="455" y="292" type="line" smooth="yes"/>
      <point x="455" y="317"/>
      <point x="473" y="337"/>
      <point x="563" y="368" type="curve" smooth="yes"/>
      <point x="675" y="407"/>
      <point x="717" y="472"/>
      <point x="717" y="545" type="curve" smooth="yes"/>
      <point x="717" y="652"/>
      <point x="600" y="724"/>
      <point x="403" y="724" type="curve" smooth="yes"/>
      <point x="273" y="724"/>
      <point x="175" y="696"/>
      <point x="82" y="650" type="curve"/>
      <point x="158" y="504" type="line"/>
      <point x="244" y="544"/>
      <point x="315" y="563"/>
      <point x="394" y="563" type="curve" smooth="yes"/>
      <point x="471" y="563"/>
      <point x="516" y="549"/>
      <point x="516" y="527" type="curve" smooth="yes"/>
      <point x="516" y="510"/>
      <point x="498" y="483"/>
      <point x="409" y="449" type="curve" smooth="yes"/>
      <point x="304" y="409"/>
      <point x="273" y="367"/>
      <point x="273" y="310" type="curve" smooth="yes"/>
    </contour>
    <contour>
      <point x="367" y="-12" type="curve" smooth="yes"/>
      <point x="433" y="-12"/>
      <point x="488" y="16"/>
      <point x="488" y="86" type="curve" smooth="yes"/>
      <point x="488" y="159"/>
      <point x="433" y="186"/>
      <point x="367" y="186" type="curve" smooth="yes"/>
      <point x="299" y="186"/>
      <point x="244" y="159"/>
      <point x="244" y="86" type="curve" smooth="yes"/>
      <point x="244" y="16"/>
      <point x="299" y="-12"/>
    </contour>
  </outline>
</glyph>
<glyph name="at" format="2">
  <advance width="800"/>
  <unicode hex="0040"/>
  <outline>
    <contour>
      <point x="430" y="-88" type="curve" smooth="yes"/>
      <point x="526" y="-88"/>
      <point x="609" y="-74"/>
      <point x="679" y="-49" type="curve"/>
      <point x="679" y="53" type="line"/>
      <point x="603" y="28"/>
      <point x="523" y="16"/>
      <point x="434" y="16" type="curve" smooth="yes"/>
      <point x="211" y="16"/>
      <point x="102" y="126"/>
      <point x="102" y="292" type="curve" smooth="yes"/>
      <point x="102" y="478"/>
      <point x="223" y="608"/>
      <point x="427" y="608" type="curve" smooth="yes"/>
      <point x="599" y="608"/>
      <point x="699" y="510"/>
      <point x="699" y="362" type="curve" smooth="yes"/>
      <point x="699" y="279"/>
      <point x="678" y="211"/>
      <point x="638" y="211" type="curve" smooth="yes"/>
      <point x="620" y="211"/>
      <point x="604" y="226"/>
      <point x="604" y="258" type="curve" smooth="yes"/>
      <point x="604" y="266"/>
      <point x="604" y="288"/>
      <point x="605" y="300" type="curve" smooth="yes"/>
      <point x="617" y="489" type="line"/>
      <point x="574" y="504"/>
      <point x="503" y="520"/>
      <point x="433" y="520" type="curve" smooth="yes"/>
      <point x="274" y="520"/>
      <point x="183" y="426"/>
      <point x="183" y="297" type="curve" smooth="yes"/>
      <point x="183" y="185"/>
      <point x="248" y="108"/>
      <point x="365" y="108" type="curve" smooth="yes"/>
      <point x="432" y="108"/>
      <point x="479" y="124"/>
      <point x="512" y="159" type="curve"/>
      <point x="517" y="159" type="line"/>
      <point x="534" y="118"/>
      <point x="576" y="108"/>
      <point x="632" y="108" type="curve" smooth="yes"/>
      <point x="765" y="108"/>
      <point x="821" y="235"/>
      <point x="821" y="372" type="curve" smooth="yes"/>
      <point x="821" y="573"/>
      <point x="664" y="714"/>
      <point x="425" y="714" type="curve" smooth="yes"/>
      <point x="148" y="714"/>
      <point x="-21" y="543"/>
      <point x="-21" y="285" type="curve" smooth="yes"/>
      <point x="-21" y="56"/>
      <point x="142" y="-88"/>
    </contour>
    <contour>
      <point x="387" y="211" type="curve" smooth="yes"/>
      <point x="344" y="211"/>
      <point x="316" y="239"/>
      <point x="316" y="298" type="curve" smooth="yes"/>
      <point x="316" y="366"/>
      <point x="349" y="416"/>
      <point x="433" y="416" type="curve" smooth="yes"/>
      <point x="451" y="416"/>
      <point x="467" y="415"/>
      <point x="482" y="414" type="curve"/>
      <point x="477" y="355" type="line" smooth="yes"/>
      <point x="468" y="249"/>
      <point x="447" y="211"/>
    </contour>
  </outline>
</glyph>
<glyph name="B" format="2">
  <advance width="800"/>
  <unicode hex="0042"/>
  <anchor x="400" y="0" name="bottom"/>
  <anchor x="400" y="714" name="top"/>
  <anchor x="801" y="714" name="topright"/>
  <outline>
    <contour>
      <point x="77" y="0" type="line"/>
      <point x="431" y="0" type="line" smooth="yes"/>
      <point x="641" y="0"/>
      <point x="772" y="79"/>
      <point x="772" y="212" type="curve" smooth="yes"/>
      <point x="772" y="308"/>
      <point x="689" y="355"/>
      <point x="586" y="374" type="curve"/>
      <point x="586" y="379" type="line"/>
      <point x="677" y="393"/>
      <point x="749" y="444"/>
      <point x="749" y="539" type="curve" smooth="yes"/>
      <point x="749" y="652"/>
      <point x="628" y="714"/>
      <point x="392" y="714" type="curve" smooth="yes"/>
      <point x="77" y="714" type="line"/>
    </contour>
    <contour>
      <point x="259" y="151" type="line"/>
      <point x="259" y="299" type="line"/>
      <point x="403" y="299" type="line" smooth="yes"/>
      <point x="532" y="299"/>
      <point x="579" y="266"/>
      <point x="579" y="228" type="curve" smooth="yes"/>
      <point x="579" y="190"/>
      <point x="533" y="151"/>
      <point x="409" y="151" type="curve" smooth="yes"/>
    </contour>
    <contour>
      <point x="259" y="439" type="line"/>
      <point x="259" y="563" type="line"/>
      <point x="386" y="563" type="line" smooth="yes"/>
      <point x="510" y="563"/>
      <point x="559" y="539"/>
      <point x="559" y="506" type="curve" smooth="yes"/>
      <point x="559" y="473"/>
      <point x="511" y="439"/>
      <point x="398" y="439" type="curve" smooth="yes"/>
    </contour>
  </outline>
</glyph>
<glyph name="D" format="2">
  <advance width="800"/>
  <unicode hex="0044"/>
  <anchor x="330" y="0" name="bottom"/>
  <anchor x="407" y="357" name="center"/>
  <anchor x="373" y="714" name="top"/>
  <anchor x="829" y="714" name="topright"/>
  <outline>
    <contour>
      <point x="45" y="0" type="line"/>
      <point x="305" y="0" type="line" smooth="yes"/>
      <point x="603" y="0"/>
      <point x="786" y="130"/>
      <point x="786" y="374" type="curve" smooth="yes"/>
      <point x="786" y="593"/>
      <point x="613" y="714"/>
      <point x="329" y="714" type="curve" smooth="yes"/>
      <point x="45" y="714" type="line"/>
    </contour>
    <contour>
      <point x="237" y="160" type="line"/>
      <point x="237" y="554" type="line"/>
      <point x="322" y="554" type="line" smooth="yes"/>
      <point x="489" y="554"/>
      <point x="583" y="493"/>
      <point x="583" y="366" type="curve" smooth="yes"/>
      <point x="583" y="231"/>
      <point x="493" y="160"/>
      <point x="301" y="160" type="curve" smooth="yes"/>
    </contour>
  </outline>
</glyph>
<glyph name="F" format="2">
  <advance width="800"/>
  <unicode hex="0046"/>
  <anchor x="420" y="0" name="bottom"/>
  <anchor x="420" y="714" name="top"/>
  <anchor x="801" y="714" name="topright"/>
  <outline>
    <contour>
      <point x="77" y="0" type="line"/>
      <point x="273" y="0" type="line"/>
      <point x="273" y="257" type="line"/>
      <point x="707" y="257" type="line"/>
      <point x="707" y="422" type="line"/>
      <point x="273" y="422" type="line"/>
      <point x="273" y="549" type="line"/>
      <point x="729" y="549" type="line"/>
      <point x="729" y="714" type="line"/>
      <point x="77" y="714" type="line"/>
    </contour>
  </outline>
</glyph>
<glyph name="H" format="2">
  <advance width="800"/>
  <unicode hex="0048"/>
  <anchor x="399" y="0" name="bottom"/>
  <anchor x="399" y="374" name="center"/>
  <anchor x="399" y="714" name="top"/>
  <anchor x="-2" y="714" name="topleft"/>
  <anchor x="829" y="714" name="topright"/>
  <outline>
    <contour>
      <point x="45" y="0" type="line"/>
      <point x="246" y="0" type="line"/>
      <point x="246" y="289" type="line"/>
      <point x="553" y="289" type="line"/>
      <point x="553" y="0" type="line"/>
      <point x="754" y="0" type="line"/>
      <point x="754" y="714" type="line"/>
      <point x="553" y="714" type="line"/>
      <point x="553" y="454" type="line"/>
      <point x="246" y="454" type="line"/>
      <point x="246" y="714" type="line"/>
      <point x="45" y="714" type="line"/>
    </contour>
  </outline>
</glyph>
<glyph name="J" format="2">
  <advance width="800"/>
  <unicode hex="004A"/>
  <anchor x="400" y="0" name="bottom"/>
  <anchor x="579" y="714" name="top"/>
  <anchor x="801" y="714" name="topright"/>
  <outline>
    <contour>
      <point x="327" y="-10" type="curve" smooth="yes"/>
      <point x="576" y="-10"/>
      <point x="678" y="74"/>
      <point x="678" y="278" type="curve" smooth="yes"/>
      <point x="678" y="714" type="line"/>
      <point x="481" y="714" type="line"/>
      <point x="481" y="305" type="line" smooth="yes"/>
      <point x="481" y="211"/>
      <point x="430" y="157"/>
      <point x="295" y="157" type="curve" smooth="yes"/>
      <point x="241" y="157"/>
      <point x="160" y="157"/>
      <point x="84" y="172" type="curve"/>
      <point x="84" y="4" type="line"/>
      <point x="161" y="-7"/>
      <point x="255" y="-10"/>
    </contour>
  </outline>
</glyph>
<glyph name="K" format="2">
  <advance width="800"/>
  <unicode hex="004B"/>
  <anchor x="409" y="0" name="bottom"/>
  <anchor x="399" y="714" name="top"/>
  <anchor x="801" y="714" name="topright"/>
  <outline>
    <contour>
      <point x="45" y="0" type="line"/>
      <point x="240" y="0" type="line"/>
      <point x="240" y="216" type="line"/>
      <point x="328" y="247" type="line"/>
      <point x="553" y="0" type="line"/>
      <point x="777" y="0" type="line"/>
      <point x="465" y="396" type="line"/>
      <point x="773" y="714" type="line"/>
      <point x="556" y="714" type="line"/>
      <point x="319" y="480" type="line" smooth="yes"/>
      <point x="291" y="453"/>
      <point x="265" y="431"/>
      <point x="240" y="401" type="curve"/>
      <point x="240" y="714" type="line"/>
      <point x="45" y="714" type="line"/>
    </contour>
  </outline>
</glyph>
<glyph name="O" format="2">
  <advance width="800"/>
  <unicode hex="004F"/>
  <anchor x="400" y="0" name="bottom"/>
  <anchor x="400" y="357" name="center"/>
  <anchor x="395" y="10" name="ogonek"/>
  <anchor x="400" y="714" name="top"/>
  <anchor x="-1" y="714" name="topleft"/>
  <anchor x="830" y="714" name="topright"/>
  <outline>
    <contour>
      <point x="400" y="-10" type="curve" smooth="yes"/>
      <point x="669" y="-10"/>
      <point x="786" y="121"/>
      <point x="786" y="357" type="curve" smooth="yes"/>
      <point x="786" y="595"/>
      <point x="668" y="725"/>
      <point x="400" y="725" type="curve" smooth="yes"/>
      <point x="135" y="725"/>
      <point x="14" y="602"/>
      <point x="14" y="358" type="curve" smooth="yes"/>
      <point x="14" y="117"/>
      <point x="133" y="-10"/>
    </contour>
    <contour>
      <point x="401" y="155" type="curve" smooth="yes"/>
      <point x="266" y="155"/>
      <point x="218" y="209"/>
      <point x="218" y="358" type="curve" smooth="yes"/>
      <point x="218" y="508"/>
      <point x="267" y="558"/>
      <point x="401" y="558" type="curve" smooth="yes"/>
      <point x="537" y="558"/>
      <point x="582" y="500"/>
      <point x="582" y="360" type="curve" smooth="yes"/>
      <point x="582" y="213"/>
      <point x="536" y="155"/>
    </contour>
  </outline>
</glyph>
<glyph name="Q" format="2">
  <advance width="800"/>
  <unicode hex="0051"/>
  <anchor x="400" y="-220" name="bottom"/>
  <anchor x="400" y="714" name="top"/>
  <anchor x="830" y="714" name="topright"/>
  <anchor x="-31" y="714" name="topleft"/>
  <anchor x="365" y="10" name="ogonek"/>
  <anchor x="370" y="357" name="center"/>
  <outline>
    <contour>
      <point x="563" y="-180" type="line"/>
      <point x="777" y="-180" type="line"/>
      <point x="575" y="93" type="line"/>
      <point x="422" y="27" type="line"/>
    </contour>
    <component base="O" xOffset="-30"/>
  </outline>
</glyph>
<glyph name="R" format="2">
  <advance width="800"/>
  <unicode hex="0052"/>
  <anchor x="436" y="0" name="bottom"/>
  <anchor x="400" y="714" name="top"/>
  <anchor x="801" y="714" name="topright"/>
  <outline>
    <contour>
      <point x="77" y="0" type="line"/>
      <point x="267" y="0" type="line"/>
      <point x="267" y="251" type="line"/>
      <point x="393" y="251" type="line"/>
      <point x="592" y="0" type="line"/>
      <point x="807" y="0" type="line"/>
      <point x="561" y="309" type="line"/>
      <point x="666" y="359"/>
      <point x="732" y="421"/>
      <point x="732" y="505" type="curve" smooth="yes"/>
      <point x="732" y="642"/>
      <point x="613" y="714"/>
      <point x="364" y="714" type="curve" smooth="yes"/>
      <point x="77" y="714" type="line"/>
    </contour>
    <contour>
      <point x="267" y="410" type="line"/>
      <point x="267" y="554" type="line"/>
      <point x="365" y="554" type="line" smooth="yes"/>
      <point x="486" y="554"/>
      <point x="539" y="526"/>
      <point x="539" y="486" type="curve" smooth="yes"/>
      <point x="539" y="430"/>
      <point x="476" y="410"/>
      <point x="362" y="410" type="curve" smooth="yes"/>
    </contour>
  </outline>
</glyph>
<glyph name="S" format="2">
  <advance width="800"/>
  <unicode hex="0053"/>
  <anchor x="400" y="0" name="bottom"/>
  <anchor x="425" y="714" name="top"/>
  <anchor x="801" y="714" name="topright"/>
  <outline>
    <contour>
      <point x="368" y="-10" type="curve" smooth="yes"/>
      <point x="647" y="-10"/>
      <point x="749" y="98"/>
      <point x="749" y="200" type="curve" smooth="yes"/>
      <point x="749" y="319"/>
      <point x="638" y="367"/>
      <point x="495" y="417" type="curve" smooth="yes"/>
      <point x="340" y="471"/>
      <point x="296" y="487"/>
      <point x="296" y="516" type="curve" smooth="yes"/>
      <point x="296" y="551"/>
      <point x="357" y="559"/>
      <point x="445" y="559" type="curve" smooth="yes"/>
      <point x="514" y="559"/>
      <point x="597" y="549"/>
      <point x="675" y="518" type="curve"/>
      <point x="738" y="671" type="line"/>
      <point x="657" y="702"/>
      <point x="556" y="725"/>
      <point x="432" y="725" type="curve" smooth="yes"/>
      <point x="200" y="725"/>
      <point x="91" y="651"/>
      <point x="91" y="527" type="curve" smooth="yes"/>
      <point x="91" y="419"/>
      <point x="190" y="368"/>
      <point x="333" y="307" type="curve" smooth="yes"/>
      <point x="482" y="244"/>
      <point x="544" y="242"/>
      <point x="544" y="197" type="curve" smooth="yes"/>
      <point x="544" y="161"/>
      <point x="483" y="156"/>
      <point x="373" y="156" type="curve" smooth="yes"/>
      <point x="276" y="156"/>
      <point x="169" y="170"/>
      <point x="71" y="223" type="curve"/>
      <point x="71" y="37" type="line"/>
      <point x="161" y="1"/>
      <point x="260" y="-10"/>
    </contour>
  </outline>
</glyph>
<glyph name="W" format="2">
  <advance width="800"/>
  <unicode hex="0057"/>
  <anchor x="400" y="0" name="bottom"/>
  <anchor x="400" y="714" name="top"/>
  <anchor x="801" y="714" name="topright"/>
  <outline>
    <contour>
      <point x="67" y="0" type="line"/>
      <point x="308" y="0" type="line"/>
      <point x="359" y="105" type="line" smooth="yes"/>
      <point x="383" y="156"/>
      <point x="393" y="289"/>
      <point x="397" y="354" type="curve"/>
      <point x="401" y="354" type="line"/>
      <point x="407" y="289"/>
      <point x="417" y="156"/>
      <point x="443" y="105" type="curve" smooth="yes"/>
      <point x="498" y="0" type="line"/>
      <point x="734" y="0" type="line"/>
      <point x="810" y="714" type="line"/>
      <point x="636" y="714" type="line"/>
      <point x="618" y="459"/>
      <point x="611" y="457"/>
      <point x="604" y="369" type="curve" smooth="yes"/>
      <point x="600" y="320"/>
      <point x="596" y="256"/>
      <point x="595" y="149" type="curve"/>
      <point x="589" y="149" type="line"/>
      <point x="579" y="211"/>
      <point x="556" y="358"/>
      <point x="537" y="414" type="curve" smooth="yes"/>
      <point x="488" y="556" type="line"/>
      <point x="313" y="556" type="line"/>
      <point x="264" y="415" type="line" smooth="yes"/>
      <point x="244" y="359"/>
      <point x="217" y="212"/>
      <point x="208" y="150" type="curve"/>
      <point x="203" y="150" type="line"/>
      <point x="203" y="246"/>
      <point x="198" y="304"/>
      <point x="192" y="356" type="curve" smooth="yes"/>
      <point x="185" y="421"/>
      <point x="177" y="437"/>
      <point x="158" y="714" type="curve"/>
      <point x="-11" y="714" type="line"/>
    </contour>
  </outline>
</glyph>
<glyph name="X" format="2">
  <advance width="800"/>
  <unicode hex="0058"/>
  <anchor x="400" y="0" name="bottom"/>
  <anchor x="400" y="714" name="top"/>
  <anchor x="802" y="714" name="topright"/>
  <outline>
    <contour>
      <point x="4" y="0" type="line"/>
      <point x="213" y="0" type="line"/>
      <point x="400" y="184" type="line"/>
      <point x="585" y="0" type="line"/>
      <point x="797" y="0" type="line"/>
      <point x="496" y="370" type="line"/>
      <point x="774" y="714" type="line"/>
      <point x="564" y="714" type="line"/>
      <point x="400" y="554" type="line"/>
      <point x="233" y="714" type="line"/>
      <point x="25" y="714" type="line"/>
      <point x="304" y="367" type="line"/>
    </contour>
  </outline>
</glyph>
<glyph name="Y" format="2">
  <advance width="800"/>
  <unicode hex="0059"/>
  <anchor x="400" y="0" name="bottom"/>
  <anchor x="400" y="714" name="top"/>
  <anchor x="-1" y="714" name="topleft"/>
  <anchor x="802" y="714" name="topright"/>
  <outline>
    <contour>
      <point x="302" y="0" type="line"/>
      <point x="499" y="0" type="line"/>
      <point x="499" y="276" type="line"/>
      <point x="797" y="714" type="line"/>
      <point x="588" y="714" type="line"/>
      <point x="403" y="484" type="line"/>
      <point x="216" y="714" type="line"/>
      <point x="4" y="714" type="line"/>
      <point x="302" y="276" type="line"/>
    </contour>
  </outline>
</glyph>
<glyph name="Z" format="2">
  <advance width="800"/>
  <unicode hex="005A"/>
  <anchor x="416" y="0" name="bottom"/>
  <anchor x="414" y="714" name="top"/>
  <anchor x="801" y="714" name="topright"/>
  <outline>
    <contour>
      <point x="77" y="0" type="line"/>
      <point x="731" y="0" type="line"/>
      <point x="731" y="165" type="line"/>
      <point x="302" y="165" type="line"/>
      <point x="725" y="584" type="line"/>
      <point x="725" y="714" type="line"/>
      <point x="102" y="714" type="line"/>
      <point x="102" y="554" type="line"/>
      <point x="511" y="554" type="line"/>
      <point x="77" y="130" type="line"/>
    </contour>
  </outline>
</glyph>
<glyph name="bracketleft" format="2">
  <advance width="800"/>
  <unicode hex="005B"/>
  <outline>
    <contour>
      <point x="297" y="-170" type="line"/>
      <point x="644" y="-170" type="line"/>
      <point x="644" y="-35" type="line"/>
      <point x="476" y="-35" type="line"/>
      <point x="476" y="603" type="line"/>
      <point x="644" y="603" type="line"/>
      <point x="644" y="738" type="line"/>
      <point x="297" y="738" type="line"/>
    </contour>
  </outline>
</glyph>
<glyph name="asciicircum" format="2">
  <advance width="800"/>
  <unicode hex="005E"/>
  <outline>
    <contour>
      <point x="25" y="239" type="line"/>
      <point x="191" y="239" type="line"/>
      <point x="389" y="486" type="line"/>
      <point x="607" y="239" type="line"/>
      <point x="775" y="239" type="line"/>
      <point x="436" y="715" type="line"/>
      <point x="337" y="715" type="line"/>
    </contour>
  </outline>
</glyph>
<glyph name="grave" format="2">
  <advance width="800"/>
  <unicode hex="0060"/>
  <outline>
    <contour>
      <point x="440" y="606" type="curve"/>
      <point x="577" y="606" type="line"/>
      <point x="577" y="620" type="line"/>
      <point x="538" y="653"/>
      <point x="469" y="725"/>
      <point x="434" y="766" type="curve"/>
      <point x="208" y="766" type="line"/>
      <point x="208" y="756" type="line"/>
      <point x="253" y="721"/>
      <point x="376" y="637"/>
    </contour>
  </outline>
</glyph>
<glyph name="i" format="2">
  <advance width="800"/>
  <unicode hex="0069"/>
  <anchor x="421" y="0" name="bottom"/>
  <anchor x="414" y="781" name="top"/>
  <anchor x="693" y="781" name="topright"/>
  <outline>
    <contour>
      <point x="51" y="0" type="line"/>
      <point x="760" y="0" type="line"/>
      <point x="760" y="138" type="line"/>
      <point x="520" y="154" type="line"/>
      <point x="520" y="557" type="line"/>
      <point x="96" y="557" type="line"/>
      <point x="96" y="417" type="line"/>
      <point x="321" y="402" type="line"/>
      <point x="321" y="154" type="line"/>
      <point x="51" y="138" type="line"/>
    </contour>
    <contour>
      <point x="414" y="594" type="curve" smooth="yes"/>
      <point x="495" y="594"/>
      <point x="538" y="631"/>
      <point x="538" y="689" type="curve" smooth="yes"/>
      <point x="538" y="747"/>
      <point x="494" y="781"/>
      <point x="414" y="781" type="curve" smooth="yes"/>
      <point x="334" y="781"/>
      <point x="289" y="747"/>
      <point x="289" y="689" type="curve" smooth="yes"/>
      <point x="289" y="626"/>
      <point x="337" y="594"/>
    </contour>
  </outline>
</glyph>
<glyph name="p" format="2">
  <advance width="800"/>
  <unicode hex="0070"/>
  <anchor x="431" y="-240" name="bottom"/>
  <anchor x="431" y="557" name="top"/>
  <anchor x="802" y="557" name="topright"/>
  <outline>
    <contour>
      <point x="56" y="-240" type="line"/>
      <point x="252" y="-240" type="line"/>
      <point x="252" y="-38" type="line" smooth="yes"/>
      <point x="252" y="-13"/>
      <point x="245" y="38"/>
      <point x="241" y="53" type="curve"/>
      <point x="252" y="53" type="line"/>
      <point x="305" y="3"/>
      <point x="380" y="-10"/>
      <point x="469" y="-10" type="curve" smooth="yes"/>
      <point x="659" y="-10"/>
      <point x="772" y="114"/>
      <point x="772" y="286" type="curve" smooth="yes"/>
      <point x="772" y="418"/>
      <point x="680" y="567"/>
      <point x="477" y="567" type="curve" smooth="yes"/>
      <point x="379" y="567"/>
      <point x="302" y="546"/>
      <point x="252" y="485" type="curve"/>
      <point x="243" y="485" type="line"/>
      <point x="204" y="557" type="line"/>
      <point x="56" y="557" type="line"/>
    </contour>
    <contour>
      <point x="413" y="145" type="curve" smooth="yes"/>
      <point x="303" y="145"/>
      <point x="252" y="182"/>
      <point x="252" y="280" type="curve" smooth="yes"/>
      <point x="252" y="293" type="line" smooth="yes"/>
      <point x="252" y="374"/>
      <point x="306" y="411"/>
      <point x="412" y="411" type="curve" smooth="yes"/>
      <point x="525" y="411"/>
      <point x="571" y="367"/>
      <point x="571" y="281" type="curve" smooth="yes"/>
      <point x="571" y="194"/>
      <point x="523" y="145"/>
    </contour>
  </outline>
</glyph>
<glyph name="q" format="2">
  <advance width="800"/>
  <unicode hex="0071"/>
  <anchor x="363" y="-240" name="bottom"/>
  <anchor x="363" y="557" name="top"/>
  <anchor x="801" y="557" name="topright"/>
  <outline>
    <contour>
      <point x="548" y="-240" type="line"/>
      <point x="744" y="-240" type="line"/>
      <point x="744" y="557" type="line"/>
      <point x="597" y="557" type="line"/>
      <point x="561" y="487" type="line"/>
      <point x="555" y="487" type="line"/>
      <point x="501" y="553"/>
      <point x="423" y="567"/>
      <point x="330" y="567" type="curve" smooth="yes"/>
      <point x="122" y="567"/>
      <point x="28" y="410"/>
      <point x="28" y="278" type="curve" smooth="yes"/>
      <point x="28" y="140"/>
      <point x="124" y="-10"/>
      <point x="324" y="-10" type="curve" smooth="yes"/>
      <point x="422" y="-10"/>
      <point x="503" y="10"/>
      <point x="548" y="70" type="curve"/>
      <point x="555" y="70" type="line"/>
      <point x="549" y="10"/>
      <point x="548" y="5"/>
      <point x="548" y="-11" type="curve" smooth="yes"/>
    </contour>
    <contour>
      <point x="391" y="145" type="curve" smooth="yes"/>
      <point x="279" y="145"/>
      <point x="229" y="186"/>
      <point x="229" y="275" type="curve" smooth="yes"/>
      <point x="229" y="368"/>
      <point x="281" y="411"/>
      <point x="392" y="411" type="curve" smooth="yes"/>
      <point x="509" y="411"/>
      <point x="559" y="372"/>
      <point x="559" y="274" type="curve" smooth="yes"/>
      <point x="559" y="258" type="line" smooth="yes"/>
      <point x="559" y="200"/>
      <point x="507" y="145"/>
    </contour>
  </outline>
</glyph>
<glyph name="s" format="2">
  <advance width="800"/>
  <unicode hex="0073"/>
  <anchor x="407" y="0" name="bottom"/>
  <anchor x="407" y="557" name="top"/>
  <anchor x="801" y="557" name="topright"/>
  <outline>
    <contour>
      <point x="356" y="-10" type="curve" smooth="yes"/>
      <point x="596" y="-10"/>
      <point x="703" y="70"/>
      <point x="703" y="177" type="curve" smooth="yes"/>
      <point x="703" y="264"/>
      <point x="625" y="300"/>
      <point x="477" y="338" type="curve" smooth="yes"/>
      <point x="344" y="372"/>
      <point x="298" y="373"/>
      <point x="298" y="394" type="curve" smooth="yes"/>
      <point x="298" y="411"/>
      <point x="342" y="419"/>
      <point x="426" y="419" type="curve" smooth="yes"/>
      <point x="487" y="419"/>
      <point x="556" y="408"/>
      <point x="633" y="379" type="curve"/>
      <point x="695" y="523" type="line"/>
      <point x="598" y="556"/>
      <point x="513" y="567"/>
      <point x="422" y="567" type="curve" smooth="yes"/>
      <point x="224" y="567"/>
      <point x="105" y="511"/>
      <point x="105" y="394" type="curve" smooth="yes"/>
      <point x="105" y="313"/>
      <point x="182" y="270"/>
      <point x="322" y="233" type="curve" smooth="yes"/>
      <point x="448" y="199"/>
      <point x="507" y="195"/>
      <point x="507" y="164" type="curve" smooth="yes"/>
      <point x="507" y="142"/>
      <point x="455" y="138"/>
      <point x="367" y="138" type="curve" smooth="yes"/>
      <point x="269" y="138"/>
      <point x="179" y="153"/>
      <point x="91" y="190" type="curve"/>
      <point x="91" y="20" type="line"/>
      <point x="170" y="-2"/>
      <point x="263" y="-10"/>
    </contour>
  </outline>
</glyph>
<glyph name="t" format="2">
  <advance width="800"/>
  <unicode hex="0074"/>
  <anchor x="492" y="0" name="bottom"/>
  <anchor x="323" y="279" name="center"/>
  <anchor x="351" y="677" name="top"/>
  <anchor x="801" y="677" name="topright"/>
  <outline>
    <contour>
      <point x="520" y="-10" type="curve" smooth="yes"/>
      <point x="589" y="-10"/>
      <point x="653" y="-2"/>
      <point x="721" y="21" type="curve"/>
      <point x="721" y="174" type="line"/>
      <point x="663" y="155"/>
      <point x="614" y="151"/>
      <point x="566" y="151" type="curve" smooth="yes"/>
      <point x="492" y="151"/>
      <point x="426" y="148"/>
      <point x="426" y="241" type="curve" smooth="yes"/>
      <point x="426" y="402" type="line"/>
      <point x="711" y="402" type="line"/>
      <point x="711" y="557" type="line"/>
      <point x="426" y="557" type="line"/>
      <point x="426" y="677" type="line"/>
      <point x="275" y="677" type="line"/>
      <point x="242" y="555" type="line"/>
      <point x="24" y="492" type="line"/>
      <point x="24" y="402" type="line"/>
      <point x="227" y="402" type="line"/>
      <point x="227" y="213" type="line" smooth="yes"/>
      <point x="227" y="71"/>
      <point x="320" y="-10"/>
    </contour>
  </outline>
</glyph>
<glyph name="w" format="2">
  <advance width="800"/>
  <unicode hex="0077"/>
  <anchor x="401" y="0" name="bottom"/>
  <anchor x="403" y="557" name="top"/>
  <anchor x="801" y="557" name="topright"/>
  <outline>
    <contour>
      <point x="85" y="0" type="line"/>
      <point x="304" y="0" type="line"/>
      <point x="355" y="161" type="line" smooth="yes"/>
      <point x="370" y="209"/>
      <point x="387" y="260"/>
      <point x="396" y="299" type="curve"/>
      <point x="403" y="299" type="line"/>
      <point x="412" y="259"/>
      <point x="426" y="209"/>
      <point x="440" y="161" type="curve" smooth="yes"/>
      <point x="489" y="0" type="line"/>
      <point x="715" y="0" type="line"/>
      <point x="821" y="557" type="line"/>
      <point x="646" y="557" type="line"/>
      <point x="607" y="283" type="line" smooth="yes"/>
      <point x="603" y="254"/>
      <point x="600" y="195"/>
      <point x="596" y="170" type="curve"/>
      <point x="589" y="170" type="line"/>
      <point x="583" y="204"/>
      <point x="567" y="222"/>
      <point x="557" y="256" type="curve" smooth="yes"/>
      <point x="489" y="496" type="line"/>
      <point x="314" y="496" type="line"/>
      <point x="241" y="256" type="line" smooth="yes"/>
      <point x="231" y="225"/>
      <point x="215" y="202"/>
      <point x="210" y="170" type="curve"/>
      <point x="204" y="170" type="line"/>
      <point x="201" y="194"/>
      <point x="197" y="259"/>
      <point x="193" y="286" type="curve" smooth="yes"/>
      <point x="158" y="557" type="line"/>
      <point x="-20" y="557" type="line"/>
    </contour>
  </outline>
</glyph>
<glyph name="braceleft" format="2">
  <advance width="800"/>
  <unicode hex="007B"/>
  <outline>
    <contour>
      <point x="641" y="-170" type="curve"/>
      <point x="641" y="-25" type="line"/>
      <point x="556" y="-23"/>
      <point x="504" y="-20"/>
      <point x="504" y="19" type="curve" smooth="yes"/>
      <point x="504" y="155" type="line" smooth="yes"/>
      <point x="504" y="229"/>
      <point x="455" y="263"/>
      <point x="352" y="275" type="curve"/>
      <point x="352" y="281" type="line"/>
      <point x="453" y="291"/>
      <point x="504" y="325"/>
      <point x="504" y="404" type="curve" smooth="yes"/>
      <point x="504" y="538" type="line" smooth="yes"/>
      <point x="504" y="583"/>
      <point x="563" y="579"/>
      <point x="641" y="581" type="curve"/>
      <point x="641" y="726" type="line"/>
      <point x="406" y="726"/>
      <point x="322" y="680"/>
      <point x="322" y="558" type="curve" smooth="yes"/>
      <point x="322" y="435" type="line" smooth="yes"/>
      <point x="322" y="380"/>
      <point x="260" y="354"/>
      <point x="158" y="354" type="curve"/>
      <point x="158" y="202" type="line"/>
      <point x="259" y="202"/>
      <point x="322" y="175"/>
      <point x="322" y="121" type="curve" smooth="yes"/>
      <point x="322" y="0" type="line" smooth="yes"/>
      <point x="322" y="-133"/>
      <point x="410" y="-170"/>
    </contour>
  </outline>
</glyph>
<glyph name="bar" format="2">
  <advance width="800"/>
  <unicode hex="007C"/>
  <outline>
    <contour>
      <point x="322" y="-240" type="line"/>
      <point x="479" y="-240" type="line"/>
      <point x="479" y="760" type="line"/>
      <point x="322" y="760" type="line"/>
    </contour>
  </outline>
</glyph>
<glyph name="copyright" format="2">
  <advance width="800"/>
  <unicode hex="00A9"/>
  <outline>
    <contour>
      <point x="401" y="75" type="curve" smooth="yes"/>
      <point x="619" y="75"/>
      <point x="787" y="183"/>
      <point x="787" y="361" type="curve" smooth="yes"/>
      <point x="787" y="532"/>
      <point x="625" y="645"/>
      <point x="402" y="645" type="curve" smooth="yes"/>
      <point x="183" y="645"/>
      <point x="13" y="539"/>
      <point x="13" y="361" type="curve" smooth="yes"/>
      <point x="13" y="198"/>
      <point x="166" y="75"/>
    </contour>
    <contour>
      <point x="408" y="187" type="curve" smooth="yes"/>
      <point x="454" y="187"/>
      <point x="493" y="194"/>
      <point x="532" y="211" type="curve"/>
      <point x="532" y="301" type="line"/>
      <point x="493" y="284"/>
      <point x="452" y="275"/>
      <point x="412" y="275" type="curve" smooth="yes"/>
      <point x="338" y="275"/>
      <point x="300" y="300"/>
      <point x="300" y="362" type="curve" smooth="yes"/>
      <point x="300" y="415"/>
      <point x="344" y="445"/>
      <point x="411" y="445" type="curve" smooth="yes"/>
      <point x="444" y="445"/>
      <point x="479" y="439"/>
      <point x="514" y="427" type="curve"/>
      <point x="552" y="504" type="line"/>
      <point x="506" y="523"/>
      <point x="457" y="532"/>
      <point x="405" y="532" type="curve" smooth="yes"/>
      <point x="269" y="532"/>
      <point x="190" y="470"/>
      <point x="190" y="363" type="curve" smooth="yes"/>
      <point x="190" y="248"/>
      <point x="266" y="187"/>
    </contour>
    <contour>
      <point x="401" y="151" type="curve" smooth="yes"/>
      <point x="234" y="151"/>
      <point x="110" y="223"/>
      <point x="110" y="361" type="curve" smooth="yes"/>
      <point x="110" y="485"/>
      <point x="229" y="569"/>
      <point x="400" y="569" type="curve" smooth="yes"/>
      <point x="565" y="569"/>
      <point x="690" y="493"/>
      <point x="690" y="362" type="curve" smooth="yes"/>
      <point x="690" y="235"/>
      <point x="569" y="151"/>
    </contour>
  </outline>
</glyph>
<glyph name="ordfeminine" format="2">
  <advance width="800"/>
  <unicode hex="00AA"/>
  <outline>
    <contour>
      <point x="333" y="355" type="curve" smooth="yes"/>
      <point x="408" y="355"/>
      <point x="460" y="379"/>
      <point x="500" y="424" type="curve"/>
      <point x="523" y="361" type="line"/>
      <point x="613" y="361" type="line"/>
      <point x="613" y="579" type="line" smooth="yes"/>
      <point x="613" y="670"/>
      <point x="544" y="722"/>
      <point x="410" y="722" type="curve" smooth="yes"/>
      <point x="330" y="722"/>
      <point x="261" y="703"/>
      <point x="204" y="681" type="curve"/>
      <point x="246" y="599" type="line"/>
      <point x="298" y="619"/>
      <point x="344" y="629"/>
      <point x="392" y="629" type="curve" smooth="yes"/>
      <point x="447" y="629"/>
      <point x="482" y="615"/>
      <point x="482" y="590" type="curve" smooth="yes"/>
      <point x="481" y="589" type="line"/>
      <point x="410" y="587" type="line" smooth="yes"/>
      <point x="255" y="583"/>
      <point x="175" y="559"/>
      <point x="175" y="470" type="curve" smooth="yes"/>
      <point x="175" y="393"/>
      <point x="239" y="355"/>
    </contour>
    <contour>
      <point x="375" y="445" type="curve" smooth="yes"/>
      <point x="332" y="445"/>
      <point x="308" y="457"/>
      <point x="308" y="477" type="curve" smooth="yes"/>
      <point x="308" y="494"/>
      <point x="329" y="514"/>
      <point x="416" y="518" type="curve" smooth="yes"/>
      <point x="481" y="521" type="line"/>
      <point x="481" y="510" type="line" smooth="yes"/>
      <point x="481" y="477"/>
      <point x="444" y="445"/>
    </contour>
  </outline>
</glyph>
<glyph name="guillemotleft" format="2">
  <advance width="800"/>
  <unicode hex="00AB"/>
  <outline>
    <contour>
      <point x="615" y="39" type="line"/>
      <point x="752" y="111" type="line"/>
      <point x="573" y="285" type="line"/>
      <point x="752" y="458" type="line"/>
      <point x="615" y="531" type="line"/>
      <point x="369" y="291" type="line"/>
      <point x="369" y="278" type="line"/>
    </contour>
    <contour>
      <point x="294" y="38" type="line"/>
      <point x="430" y="111" type="line"/>
      <point x="252" y="285" type="line"/>
      <point x="431" y="459" type="line"/>
      <point x="294" y="531" type="line"/>
      <point x="49" y="291" type="line"/>
      <point x="49" y="278" type="line"/>
    </contour>
  </outline>
</glyph>
<glyph name="registered" format="2">
  <advance width="800"/>
  <unicode hex="00AE"/>
  <outline>
    <contour>
      <point x="396" y="67" type="curve" smooth="yes"/>
      <point x="617" y="67"/>
      <point x="786" y="178"/>
      <point x="786" y="356" type="curve" smooth="yes"/>
      <point x="786" y="532"/>
      <point x="622" y="645"/>
      <point x="401" y="645" type="curve" smooth="yes"/>
      <point x="182" y="645"/>
      <point x="12" y="539"/>
      <point x="12" y="359" type="curve" smooth="yes"/>
      <point x="12" y="194"/>
      <point x="165" y="67"/>
    </contour>
    <contour>
      <point x="399" y="147" type="curve" smooth="yes"/>
      <point x="232" y="147"/>
      <point x="109" y="222"/>
      <point x="109" y="356" type="curve" smooth="yes"/>
      <point x="109" y="482"/>
      <point x="228" y="567"/>
      <point x="397" y="567" type="curve" smooth="yes"/>
      <point x="563" y="567"/>
      <point x="689" y="490"/>
      <point x="689" y="359" type="curve" smooth="yes"/>
      <point x="689" y="231"/>
      <point x="569" y="147"/>
    </contour>
    <contour>
      <point x="252" y="209" type="line"/>
      <point x="347" y="209" type="line"/>
      <point x="347" y="313" type="line"/>
      <point x="395" y="313" type="line"/>
      <point x="480" y="209" type="line"/>
      <point x="587" y="209" type="line"/>
      <point x="481" y="328" type="line"/>
      <point x="528" y="347"/>
      <point x="556" y="379"/>
      <point x="556" y="415" type="curve" smooth="yes"/>
      <point x="556" y="482"/>
      <point x="502" y="512"/>
      <point x="388" y="512" type="curve" smooth="yes"/>
      <point x="252" y="512" type="line"/>
    </contour>
    <contour>
      <point x="347" y="378" type="line"/>
      <point x="347" y="444" type="line"/>
      <point x="381" y="444" type="line" smooth="yes"/>
      <point x="435" y="444"/>
      <point x="459" y="437"/>
      <point x="459" y="412" type="curve" smooth="yes"/>
      <point x="459" y="387"/>
      <point x="429" y="378"/>
      <point x="381" y="378" type="curve" smooth="yes"/>
    </contour>
  </outline>
</glyph>
<glyph name="overscore" format="2">
  <advance width="800"/>
  <unicode hex="00AF"/>
  <outline>
    <contour>
      <point x="175" y="625" type="line"/>
      <point x="625" y="625" type="line"/>
      <point x="625" y="750" type="line"/>
      <point x="175" y="750" type="line"/>
    </contour>
  </outline>
</glyph>
<glyph name="plusminus" format="2">
  <advance width="800"/>
  <unicode hex="00B1"/>
  <outline>
    <contour>
      <point x="322" y="172" type="line"/>
      <point x="476" y="172" type="line"/>
      <point x="476" y="343" type="line"/>
      <point x="724" y="343" type="line"/>
      <point x="724" y="487" type="line"/>
      <point x="476" y="487" type="line"/>
      <point x="476" y="662" type="line"/>
      <point x="322" y="662" type="line"/>
      <point x="322" y="487" type="line"/>
      <point x="74" y="487" type="line"/>
      <point x="74" y="343" type="line"/>
      <point x="322" y="343" type="line"/>
    </contour>
    <contour>
      <point x="76" y="0" type="line"/>
      <point x="724" y="0" type="line"/>
      <point x="724" y="144" type="line"/>
      <point x="76" y="144" type="line"/>
    </contour>
  </outline>
</glyph>
<glyph name="twosuperior" format="2">
  <advance width="800"/>
  <unicode hex="00B2"/>
  <outline>
    <contour>
      <point x="191" y="416" type="line"/>
      <point x="630" y="416" type="line"/>
      <point x="630" y="530" type="line"/>
      <point x="365" y="530" type="line"/>
      <point x="420" y="546" type="line" smooth="yes"/>
      <point x="552" y="585"/>
      <point x="604" y="662"/>
      <point x="604" y="735" type="curve" smooth="yes"/>
      <point x="604" y="807"/>
      <point x="535" y="858"/>
      <point x="406" y="858" type="curve" smooth="yes"/>
      <point x="312" y="858"/>
      <point x="238" y="826"/>
      <point x="187" y="787" type="curve"/>
      <point x="259" y="702" type="line"/>
      <point x="302" y="732"/>
      <point x="338" y="743"/>
      <point x="383" y="743" type="curve" smooth="yes"/>
      <point x="431" y="743"/>
      <point x="458" y="733"/>
      <point x="458" y="716" type="curve" smooth="yes"/>
      <point x="458" y="695"/>
      <point x="433" y="682"/>
      <point x="344" y="626" type="curve" smooth="yes"/>
      <point x="190" y="528" type="line"/>
    </contour>
  </outline>
</glyph>
<glyph name="acute" format="2">
  <advance width="800"/>
  <unicode hex="00B4"/>
  <outline>
    <contour>
      <point x="284" y="606" type="line"/>
      <point x="421" y="606" type="line"/>
      <point x="493" y="648"/>
      <point x="607" y="720"/>
      <point x="653" y="756" type="curve"/>
      <point x="653" y="766" type="line"/>
      <point x="427" y="766" type="line"/>
      <point x="390" y="722"/>
      <point x="329" y="667"/>
      <point x="284" y="620" type="curve"/>
    </contour>
  </outline>
</glyph>
<glyph name="micro" format="2">
  <advance width="800"/>
  <unicode hex="00B5"/>
  <anchor x="369" y="557" name="top"/>
  <anchor x="713" y="10" name="ogonek"/>
  <anchor x="771" y="557" name="topright"/>
  <anchor x="369" y="0" name="bottom"/>
  <outline>
    <contour>
      <point x="48" y="-240" type="line"/>
      <point x="248" y="-240" type="line"/>
      <point x="248" y="227" type="line"/>
      <point x="48" y="227" type="line"/>
    </contour>
    <component base="u" xOffset="-30"/>
  </outline>
</glyph>
<glyph name="paragraph" format="2">
  <advance width="800"/>
  <unicode hex="00B6"/>
  <outline>
    <contour>
      <point x="426" y="-127" type="line"/>
      <point x="534" y="-127" type="line"/>
      <point x="534" y="656" type="line"/>
      <point x="652" y="656" type="line"/>
      <point x="652" y="-127" type="line"/>
      <point x="760" y="-127" type="line"/>
      <point x="760" y="760" type="line"/>
      <point x="352" y="760" type="line" smooth="yes"/>
      <point x="147" y="760"/>
      <point x="25" y="685"/>
      <point x="25" y="509" type="curve" smooth="yes"/>
      <point x="25" y="338"/>
      <point x="138" y="264"/>
      <point x="332" y="264" type="curve" smooth="yes"/>
      <point x="368" y="264"/>
      <point x="398" y="267"/>
      <point x="426" y="273" type="curve"/>
    </contour>
  </outline>
</glyph>
<glyph name="onesuperior" format="2">
  <advance width="800"/>
  <unicode hex="00B9"/>
  <outline>
    <contour>
      <point x="360" y="416" type="line"/>
      <point x="497" y="416" type="line"/>
      <point x="497" y="844" type="line"/>
      <point x="382" y="844" type="line"/>
      <point x="171" y="748" type="line"/>
      <point x="237" y="647" type="line"/>
      <point x="311" y="674" type="line" smooth="yes"/>
      <point x="326" y="680"/>
      <point x="347" y="686"/>
      <point x="365" y="694" type="curve"/>
      <point x="361" y="658"/>
      <point x="360" y="602"/>
      <point x="360" y="574" type="curve" smooth="yes"/>
    </contour>
    <contour>
      <point x="214" y="416" type="line"/>
      <point x="638" y="416" type="line"/>
      <point x="638" y="515" type="line"/>
      <point x="467" y="528" type="line"/>
      <point x="396" y="528" type="line"/>
      <point x="214" y="515" type="line"/>
    </contour>
  </outline>
</glyph>
<glyph name="ordmasculine" format="2">
  <advance width="800"/>
  <unicode hex="00BA"/>
  <outline>
    <contour>
      <point x="397" y="355" type="curve" smooth="yes"/>
      <point x="538" y="355"/>
      <point x="629" y="423"/>
      <point x="629" y="538" type="curve" smooth="yes"/>
      <point x="629" y="654"/>
      <point x="532" y="722"/>
      <point x="400" y="722" type="curve" smooth="yes"/>
      <point x="258" y="722"/>
      <point x="170" y="656"/>
      <point x="170" y="538" type="curve" smooth="yes"/>
      <point x="170" y="425"/>
      <point x="262" y="355"/>
    </contour>
    <contour>
      <point x="398" y="456" type="curve" smooth="yes"/>
      <point x="330" y="456"/>
      <point x="302" y="484"/>
      <point x="302" y="538" type="curve" smooth="yes"/>
      <point x="302" y="596"/>
      <point x="331" y="623"/>
      <point x="398" y="623" type="curve" smooth="yes"/>
      <point x="465" y="623"/>
      <point x="494" y="594"/>
      <point x="494" y="538" type="curve" smooth="yes"/>
      <point x="494" y="484"/>
      <point x="465" y="456"/>
    </contour>
  </outline>
</glyph>
<glyph name="AE" format="2">
  <advance width="800"/>
  <unicode hex="00C6"/>
  <anchor x="400" y="0" name="bottom"/>
  <anchor x="441" y="714" name="top"/>
  <outline>
    <contour>
      <point x="-14" y="0" type="line"/>
      <point x="181" y="0" type="line"/>
      <point x="356" y="549" type="line"/>
      <point x="395" y="549" type="line"/>
      <point x="395" y="0" type="line"/>
      <point x="787" y="0" type="line"/>
      <point x="787" y="165" type="line"/>
      <point x="585" y="165" type="line"/>
      <point x="585" y="285" type="line"/>
      <point x="761" y="285" type="line"/>
      <point x="761" y="451" type="line"/>
      <point x="585" y="451" type="line"/>
      <point x="585" y="549" type="line"/>
      <point x="787" y="549" type="line"/>
      <point x="787" y="714" type="line"/>
      <point x="219" y="714" type="line"/>
    </contour>
    <contour>
      <point x="203" y="136" type="line"/>
      <point x="435" y="136" type="line"/>
      <point x="427" y="301" type="line"/>
      <point x="242" y="301" type="line"/>
    </contour>
  </outline>
</glyph>
<glyph name="multiply" format="2">
  <advance width="800"/>
  <unicode hex="00D7"/>
  <outline>
    <contour>
      <point x="190" y="128" type="line"/>
      <point x="397" y="251" type="line"/>
      <point x="608" y="128" type="line"/>
      <point x="713" y="230" type="line"/>
      <point x="506" y="353" type="line"/>
      <point x="717" y="478" type="line"/>
      <point x="608" y="579" type="line"/>
      <point x="398" y="458" type="line"/>
      <point x="190" y="579" type="line"/>
      <point x="84" y="474" type="line"/>
      <point x="290" y="353" type="line"/>
      <point x="85" y="232" type="line"/>
    </contour>
  </outline>
</glyph>
<glyph name="germandbls" format="2">
  <advance width="800"/>
  <unicode hex="00DF"/>
  <anchor x="400" y="0" name="bottom"/>
  <anchor x="400" y="765" name="top"/>
  <outline>
    <contour>
      <point x="531" y="-10" type="curve" smooth="yes"/>
      <point x="713" y="-10"/>
      <point x="811" y="54"/>
      <point x="811" y="166" type="curve" smooth="yes"/>
      <point x="811" y="248"/>
      <point x="754" y="285"/>
      <point x="660" y="324" type="curve" smooth="yes"/>
      <point x="585" y="355"/>
      <point x="545" y="371"/>
      <point x="545" y="392" type="curve" smooth="yes"/>
      <point x="545" y="427"/>
      <point x="724" y="453"/>
      <point x="724" y="576" type="curve" smooth="yes"/>
      <point x="724" y="697"/>
      <point x="589" y="765"/>
      <point x="396" y="765" type="curve" smooth="yes"/>
      <point x="190" y="765"/>
      <point x="53" y="673"/>
      <point x="53" y="527" type="curve" smooth="yes"/>
      <point x="53" y="0" type="line"/>
      <point x="240" y="0" type="line"/>
      <point x="240" y="503" type="line" smooth="yes"/>
      <point x="240" y="566"/>
      <point x="294" y="606"/>
      <point x="390" y="606" type="curve" smooth="yes"/>
      <point x="476" y="606"/>
      <point x="532" y="586"/>
      <point x="532" y="553" type="curve" smooth="yes"/>
      <point x="532" y="484"/>
      <point x="352" y="471"/>
      <point x="352" y="364" type="curve" smooth="yes"/>
      <point x="352" y="302"/>
      <point x="403" y="267"/>
      <point x="496" y="230" type="curve" smooth="yes"/>
      <point x="595" y="191"/>
      <point x="618" y="185"/>
      <point x="618" y="170" type="curve" smooth="yes"/>
      <point x="618" y="147"/>
      <point x="583" y="140"/>
      <point x="514" y="140" type="curve" smooth="yes"/>
      <point x="450" y="140"/>
      <point x="375" y="156"/>
      <point x="327" y="178" type="curve"/>
      <point x="327" y="18" type="line"/>
      <point x="383" y="-5"/>
      <point x="461" y="-10"/>
    </contour>
  </outline>
</glyph>
<glyph name="ae" format="2">
  <advance width="800"/>
  <unicode hex="00E6"/>
  <anchor x="400" y="0" name="bottom"/>
  <anchor x="400" y="557" name="top"/>
  <outline>
    <contour>
      <point x="191" y="-10" type="curve" smooth="yes"/>
      <point x="290" y="-10"/>
      <point x="345" y="16"/>
      <point x="395" y="58" type="curve"/>
      <point x="442" y="18"/>
      <point x="509" y="-10"/>
      <point x="607" y="-10" type="curve" smooth="yes"/>
      <point x="677" y="-10"/>
      <point x="738" y="5"/>
      <point x="782" y="30" type="curve"/>
      <point x="782" y="167" type="line"/>
      <point x="736" y="146"/>
      <point x="695" y="137"/>
      <point x="642" y="137" type="curve" smooth="yes"/>
      <point x="545" y="137"/>
      <point x="491" y="173"/>
      <point x="488" y="228" type="curve"/>
      <point x="813" y="228" type="line"/>
      <point x="813" y="306" type="line" smooth="yes"/>
      <point x="813" y="441"/>
      <point x="752" y="566"/>
      <point x="582" y="566" type="curve" smooth="yes"/>
      <point x="514" y="566"/>
      <point x="464" y="560"/>
      <point x="419" y="540" type="curve"/>
      <point x="377" y="557"/>
      <point x="320" y="566"/>
      <point x="237" y="566" type="curve" smooth="yes"/>
      <point x="168" y="566"/>
      <point x="96" y="558"/>
      <point x="34" y="531" type="curve"/>
      <point x="97" y="401" type="line"/>
      <point x="133" y="408"/>
      <point x="177" y="414"/>
      <point x="222" y="414" type="curve" smooth="yes"/>
      <point x="286" y="414"/>
      <point x="322" y="404"/>
      <point x="322" y="365" type="curve" smooth="yes"/>
      <point x="322" y="343" type="line"/>
      <point x="225" y="339" type="line" smooth="yes"/>
      <point x="86" y="333"/>
      <point x="-14" y="287"/>
      <point x="-14" y="157" type="curve" smooth="yes"/>
      <point x="-14" y="56"/>
      <point x="69" y="-10"/>
    </contour>
    <contour>
      <point x="230" y="130" type="curve" smooth="yes"/>
      <point x="187" y="130"/>
      <point x="160" y="148"/>
      <point x="160" y="173" type="curve" smooth="yes"/>
      <point x="160" y="210"/>
      <point x="201" y="246"/>
      <point x="277" y="244" type="curve" smooth="yes"/>
      <point x="322" y="243" type="line"/>
      <point x="322" y="201" type="line" smooth="yes"/>
      <point x="322" y="167"/>
      <point x="290" y="130"/>
    </contour>
    <contour>
      <point x="488" y="338" type="line"/>
      <point x="492" y="381"/>
      <point x="518" y="413"/>
      <point x="574" y="413" type="curve" smooth="yes"/>
      <point x="631" y="413"/>
      <point x="652" y="388"/>
      <point x="653" y="338" type="curve"/>
    </contour>
  </outline>
</glyph>
<glyph name="dcaron" format="2">
  <advance width="800"/>
  <unicode hex="010F"/>
  <anchor x="374" y="0" name="bottom"/>
  <anchor x="350" y="279" name="center"/>
  <anchor x="405" y="760" name="top"/>
  <anchor x="775" y="760" name="topright"/>
  <outline>
    <contour>
      <point x="286" y="-10" type="curve" smooth="yes"/>
      <point x="376" y="-10"/>
      <point x="441" y="11"/>
      <point x="491" y="70" type="curve"/>
      <point x="500" y="70" type="line"/>
      <point x="535" y="0" type="line"/>
      <point x="687" y="0" type="line"/>
      <point x="687" y="760" type="line"/>
      <point x="491" y="760" type="line"/>
      <point x="491" y="618" type="line" smooth="yes"/>
      <point x="491" y="579"/>
      <point x="494" y="556"/>
      <point x="505" y="483" type="curve"/>
      <point x="498" y="483" type="line"/>
      <point x="449" y="546"/>
      <point x="390" y="567"/>
      <point x="296" y="567" type="curve" smooth="yes"/>
      <point x="104" y="567"/>
      <point x="14" y="426"/>
      <point x="14" y="275" type="curve" smooth="yes"/>
      <point x="14" y="140"/>
      <point x="102" y="-10"/>
    </contour>
    <contour>
      <point x="348" y="145" type="curve" smooth="yes"/>
      <point x="253" y="145"/>
      <point x="210" y="175"/>
      <point x="210" y="274" type="curve" smooth="yes"/>
      <point x="210" y="366"/>
      <point x="255" y="411"/>
      <point x="354" y="411" type="curve" smooth="yes"/>
      <point x="469" y="411"/>
      <point x="503" y="351"/>
      <point x="503" y="274" type="curve" smooth="yes"/>
      <point x="503" y="262" type="line" smooth="yes"/>
      <point x="503" y="193"/>
      <point x="455" y="145"/>
    </contour>
    <component base="caroncommaaccent" xOffset="415" yOffset="-10"/>
  </outline>
</glyph>
<glyph name="eogonek" format="2">
  <advance width="800"/>
  <unicode hex="0119"/>
  <anchor x="429" y="-244" name="bottom"/>
  <anchor x="400" y="557" name="top"/>
  <anchor x="377" y="10" name="ogonek"/>
  <anchor x="771" y="557" name="topright"/>
  <outline>
    <contour>
      <point x="616" y="-244" type="curve" smooth="yes"/>
      <point x="658" y="-244"/>
      <point x="690" y="-237"/>
      <point x="718" y="-229" type="curve"/>
      <point x="718" y="-114" type="line"/>
      <point x="701" y="-120"/>
      <point x="674" y="-126"/>
      <point x="653" y="-126" type="curve" smooth="yes"/>
      <point x="612" y="-126"/>
      <point x="589" y="-113"/>
      <point x="589" y="-89" type="curve" smooth="yes"/>
      <point x="589" y="-55"/>
      <point x="641" y="-13"/>
      <point x="728" y="30" type="curve"/>
      <point x="627" y="56" type="line"/>
      <point x="530" y="1"/>
      <point x="443" y="-42"/>
      <point x="443" y="-126" type="curve" smooth="yes"/>
      <point x="443" y="-205"/>
      <point x="505" y="-244"/>
    </contour>
    <component base="e" xOffset="-30"/>
  </outline>
</glyph>
<glyph name="Hbar" format="2">
  <advance width="800"/>
  <unicode hex="0126"/>
  <anchor x="400" y="0" name="bottom"/>
  <anchor x="400" y="357" name="center"/>
  <anchor x="400" y="714" name="top"/>
  <anchor x="-1" y="714" name="topleft"/>
  <outline>
    <contour>
      <point x="-30" y="521" type="line"/>
      <point x="830" y="521" type="line"/>
      <point x="830" y="636" type="line"/>
      <point x="-30" y="636" type="line"/>
    </contour>
    <contour>
      <point x="54" y="0" type="line"/>
      <point x="255" y="0" type="line"/>
      <point x="255" y="289" type="line"/>
      <point x="545" y="289" type="line"/>
      <point x="545" y="0" type="line"/>
      <point x="746" y="0" type="line"/>
      <point x="746" y="714" type="line"/>
      <point x="545" y="714" type="line"/>
      <point x="545" y="454" type="line"/>
      <point x="255" y="454" type="line"/>
      <point x="255" y="714" type="line"/>
      <point x="54" y="714" type="line"/>
    </contour>
  </outline>
</glyph>
<glyph name="hbar" format="2">
  <advance width="800"/>
  <unicode hex="0127"/>
  <anchor x="400" y="0" name="bottom"/>
  <anchor x="400" y="279" name="center"/>
  <anchor x="155" y="760" name="top"/>
  <outline>
    <contour>
      <point x="-30" y="569" type="line"/>
      <point x="494" y="569" type="line"/>
      <point x="494" y="688" type="line"/>
      <point x="-30" y="688" type="line"/>
    </contour>
    <contour>
      <point x="56" y="0" type="line"/>
      <point x="255" y="0" type="line"/>
      <point x="255" y="184" type="line" smooth="yes"/>
      <point x="255" y="328"/>
      <point x="314" y="362"/>
      <point x="416" y="362" type="curve" smooth="yes"/>
      <point x="512" y="362"/>
      <point x="552" y="319"/>
      <point x="552" y="245" type="curve" smooth="yes"/>
      <point x="552" y="0" type="line"/>
      <point x="751" y="0" type="line"/>
      <point x="751" y="312" type="line" smooth="yes"/>
      <point x="751" y="435"/>
      <point x="656" y="518"/>
      <point x="484" y="518" type="curve" smooth="yes"/>
      <point x="380" y="518"/>
      <point x="306" y="493"/>
      <point x="257" y="441" type="curve"/>
      <point x="245" y="441" type="line"/>
      <point x="248" y="502"/>
      <point x="255" y="589"/>
      <point x="255" y="667" type="curve" smooth="yes"/>
      <point x="255" y="760" type="line"/>
      <point x="56" y="760" type="line"/>
    </contour>
  </outline>
</glyph>
<glyph name="ij" format="2">
  <advance width="800"/>
  <unicode hex="0133"/>
  <anchor x="409" y="-245" name="bottom"/>
  <anchor x="-30" y="0" name="caret_1"/>
  <anchor x="400" y="781" name="top"/>
  <outline>
    <contour>
      <point x="372" y="-245" type="curve" smooth="yes"/>
      <point x="599" y="-245"/>
      <point x="700" y="-166"/>
      <point x="700" y="-3" type="curve" smooth="yes"/>
      <point x="700" y="557" type="line"/>
      <point x="501" y="557" type="line"/>
      <point x="501" y="42" type="line" smooth="yes"/>
      <point x="501" y="-61"/>
      <point x="461" y="-87"/>
      <point x="337" y="-87" type="curve" smooth="yes"/>
      <point x="288" y="-87"/>
      <point x="217" y="-83"/>
      <point x="156" y="-68" type="curve"/>
      <point x="156" y="-218" type="line"/>
      <point x="223" y="-238"/>
      <point x="306" y="-245"/>
    </contour>
    <contour>
      <point x="98" y="0" type="line"/>
      <point x="297" y="0" type="line"/>
      <point x="297" y="557" type="line"/>
      <point x="98" y="557" type="line"/>
    </contour>
    <contour>
      <point x="201" y="594" type="curve" smooth="yes"/>
      <point x="281" y="594"/>
      <point x="325" y="631"/>
      <point x="325" y="688" type="curve" smooth="yes"/>
      <point x="325" y="747"/>
      <point x="281" y="781"/>
      <point x="201" y="781" type="curve" smooth="yes"/>
      <point x="121" y="781"/>
      <point x="76" y="748"/>
      <point x="76" y="688" type="curve" smooth="yes"/>
      <point x="76" y="626"/>
      <point x="124" y="594"/>
    </contour>
    <contour>
      <point x="600" y="594" type="curve" smooth="yes"/>
      <point x="680" y="594"/>
      <point x="724" y="631"/>
      <point x="724" y="688" type="curve" smooth="yes"/>
      <point x="724" y="747"/>
      <point x="680" y="781"/>
      <point x="600" y="781" type="curve" smooth="yes"/>
      <point x="520" y="781"/>
      <point x="476" y="748"/>
      <point x="476" y="688" type="curve" smooth="yes"/>
      <point x="476" y="626"/>
      <point x="523" y="594"/>
    </contour>
  </outline>
</glyph>
<glyph name="kgreenlandic" format="2">
  <advance width="800"/>
  <unicode hex="0138"/>
  <anchor x="399" y="0" name="bottom"/>
  <anchor x="399" y="557" name="top"/>
  <outline>
    <contour>
      <point x="66" y="0" type="line"/>
      <point x="266" y="0" type="line"/>
      <point x="266" y="134" type="line"/>
      <point x="388" y="201" type="line"/>
      <point x="584" y="0" type="line"/>
      <point x="807" y="0" type="line"/>
      <point x="523" y="334" type="line"/>
      <point x="791" y="557" type="line"/>
      <point x="565" y="557" type="line"/>
      <point x="365" y="405" type="line" smooth="yes"/>
      <point x="318" y="369"/>
      <point x="293" y="337"/>
      <point x="258" y="300" type="curve"/>
      <point x="254" y="300" type="line"/>
      <point x="261" y="347"/>
      <point x="266" y="425"/>
      <point x="266" y="475" type="curve" smooth="yes"/>
      <point x="266" y="557" type="line"/>
      <point x="66" y="557" type="line"/>
    </contour>
  </outline>
</glyph>
<glyph name="Lslash" format="2">
  <advance width="800"/>
  <unicode hex="0141"/>
  <anchor x="471" y="0" name="bottom"/>
  <anchor x="253" y="714" name="top"/>
  <anchor x="627" y="714" name="topright"/>
  <anchor x="400" y="357" name="center"/>
  <outline>
    <contour>
      <point x="-3" y="237" type="line"/>
      <point x="631" y="443" type="line"/>
      <point x="631" y="564" type="line"/>
      <point x="-3" y="358" type="line"/>
    </contour>
    <component base="L"/>
  </outline>
</glyph>
<glyph name="lslash" format="2">
  <advance width="800"/>
  <unicode hex="0142"/>
  <anchor x="400" y="0" name="bottom"/>
  <anchor x="400" y="760" name="top"/>
  <anchor x="688" y="760" name="topright"/>
  <anchor x="428" y="391" name="center"/>
  <outline>
    <contour>
      <point x="107" y="237" type="line"/>
      <point x="741" y="443" type="line"/>
      <point x="741" y="564" type="line"/>
      <point x="107" y="358" type="line"/>
    </contour>
    <component base="l"/>
  </outline>
</glyph>
<glyph name="napostrophe" format="2">
  <advance width="800"/>
  <unicode hex="0149"/>
  <anchor x="418" y="0" name="bottom"/>
  <anchor x="425" y="557" name="top"/>
  <outline>
    <contour>
      <point x="73" y="0" type="line"/>
      <point x="273" y="0" type="line"/>
      <point x="273" y="234" type="line" smooth="yes"/>
      <point x="273" y="344"/>
      <point x="313" y="411"/>
      <point x="426" y="411" type="curve" smooth="yes"/>
      <point x="510" y="411"/>
      <point x="552" y="367"/>
      <point x="552" y="292" type="curve" smooth="yes"/>
      <point x="552" y="0" type="line"/>
      <point x="751" y="0" type="line"/>
      <point x="751" y="359" type="line" smooth="yes"/>
      <point x="751" y="488"/>
      <point x="663" y="567"/>
      <point x="496" y="567" type="curve" smooth="yes"/>
      <point x="386" y="567"/>
      <point x="309" y="538"/>
      <point x="263" y="489" type="curve"/>
      <point x="251" y="489" type="line"/>
      <point x="224" y="557" type="line"/>
      <point x="73" y="557" type="line"/>
    </contour>
    <component base="quoteright" xOffset="-481"/>
  </outline>
</glyph>
<glyph name="eng" format="2">
  <advance width="800"/>
  <unicode hex="014B"/>
  <anchor x="412" y="-240" name="bottom"/>
  <anchor x="419" y="557" name="top"/>
  <anchor x="802" y="557" name="topright"/>
  <outline>
    <contour>
      <point x="498" y="-240" type="curve" smooth="yes"/>
      <point x="680" y="-240"/>
      <point x="752" y="-143"/>
      <point x="752" y="-43" type="curve" smooth="yes"/>
      <point x="752" y="101" type="line"/>
      <point x="552" y="102" type="line"/>
      <point x="552" y="-2" type="line" smooth="yes"/>
      <point x="552" y="-70"/>
      <point x="506" y="-85"/>
      <point x="457" y="-85" type="curve" smooth="yes"/>
      <point x="426" y="-85"/>
      <point x="402" y="-82"/>
      <point x="374" y="-76" type="curve"/>
      <point x="374" y="-228" type="line"/>
      <point x="404" y="-235"/>
      <point x="454" y="-240"/>
    </contour>
    <component base="n"/>
  </outline>
</glyph>
<glyph name="tbar" format="2">
  <advance width="800"/>
  <unicode hex="0167"/>
  <anchor x="434" y="0" name="bottom"/>
  <anchor x="352" y="677" name="top"/>
  <anchor x="801" y="677" name="topright"/>
  <anchor x="323" y="279" name="center"/>
  <outline>
    <contour>
      <point x="34" y="215" type="line"/>
      <point x="711" y="215" type="line"/>
      <point x="711" y="336" type="line"/>
      <point x="34" y="336" type="line"/>
    </contour>
    <component base="t"/>
  </outline>
</glyph>
<glyph name="uni0183" format="2">
  <advance width="800"/>
  <unicode hex="0183"/>
  <anchor x="400" y="0" name="bottom"/>
  <anchor x="400" y="760" name="top"/>
  <anchor x="772" y="760" name="topright"/>
  <outline>
    <contour>
      <point x="150" y="601" type="line"/>
      <point x="686" y="601" type="line"/>
      <point x="686" y="760" type="line"/>
      <point x="150" y="760" type="line"/>
    </contour>
    <component base="b" xOffset="-30"/>
  </outline>
</glyph>
<glyph name="uni0184" format="2">
  <advance width="800"/>
  <unicode hex="0184"/>
  <anchor x="400" y="0" name="bottom"/>
  <anchor x="400" y="760" name="top"/>
  <outline>
    <contour>
      <point x="414" y="-10" type="curve"/>
      <point x="644" y="-10"/>
      <point x="772" y="83"/>
      <point x="772" y="234" type="curve" smooth="yes"/>
      <point x="772" y="379"/>
      <point x="681" y="464"/>
      <point x="425" y="464" type="curve" smooth="yes"/>
      <point x="276" y="464" type="line"/>
      <point x="276" y="714" type="line"/>
      <point x="77" y="714" type="line"/>
      <point x="77" y="224" type="line" smooth="yes"/>
      <point x="77" y="55"/>
      <point x="187" y="-10"/>
    </contour>
    <contour>
      <point x="421" y="146" type="curve" smooth="yes"/>
      <point x="322" y="146"/>
      <point x="276" y="174"/>
      <point x="276" y="230" type="curve" smooth="yes"/>
      <point x="276" y="305" type="line"/>
      <point x="393" y="305" type="line" smooth="yes"/>
      <point x="522" y="305"/>
      <point x="571" y="290"/>
      <point x="571" y="229" type="curve" smooth="yes"/>
      <point x="571" y="165"/>
      <point x="518" y="146"/>
    </contour>
  </outline>
</glyph>
<glyph name="uni0185" format="2">
  <advance width="800"/>
  <unicode hex="0185"/>
  <anchor x="399" y="0" name="bottom"/>
  <anchor x="399" y="760" name="top"/>
  <outline>
    <contour>
      <point x="412" y="-10" type="curve"/>
      <point x="614" y="-10"/>
      <point x="770" y="72"/>
      <point x="770" y="278" type="curve" smooth="yes"/>
      <point x="770" y="478"/>
      <point x="655" y="567"/>
      <point x="478" y="567" type="curve" smooth="yes"/>
      <point x="360" y="567"/>
      <point x="290" y="526"/>
      <point x="251" y="489" type="curve"/>
      <point x="242" y="489" type="line"/>
      <point x="247" y="518"/>
      <point x="251" y="550"/>
      <point x="251" y="595" type="curve"/>
      <point x="251" y="760" type="line"/>
      <point x="56" y="760" type="line"/>
      <point x="56" y="267" type="line" smooth="yes"/>
      <point x="56" y="93"/>
      <point x="178" y="-10"/>
    </contour>
    <contour>
      <point x="410" y="145" type="curve" smooth="yes"/>
      <point x="305" y="145"/>
      <point x="251" y="183"/>
      <point x="251" y="266" type="curve" smooth="yes"/>
      <point x="251" y="309" type="line" smooth="yes"/>
      <point x="251" y="369"/>
      <point x="301" y="411"/>
      <point x="414" y="411" type="curve" smooth="yes"/>
      <point x="517" y="411"/>
      <point x="571" y="370"/>
      <point x="571" y="278" type="curve" smooth="yes"/>
      <point x="571" y="184"/>
      <point x="516" y="145"/>
    </contour>
  </outline>
</glyph>
<glyph name="uni0187" format="2">
  <advance width="800"/>
  <unicode hex="0187"/>
  <anchor x="472" y="0" name="bottom"/>
  <anchor x="472" y="895" name="top"/>
  <anchor x="771" y="714" name="topright"/>
  <outline>
    <contour>
      <point x="603" y="686" type="line"/>
      <point x="771" y="686" type="line"/>
      <point x="771" y="685" type="line" smooth="yes"/>
      <point x="771" y="721"/>
      <point x="795" y="737"/>
      <point x="837" y="737" type="curve"/>
      <point x="870" y="737"/>
      <point x="900" y="731"/>
      <point x="915" y="727" type="curve"/>
      <point x="915" y="882" type="line"/>
      <point x="898" y="888"/>
      <point x="858" y="895"/>
      <point x="816" y="895" type="curve" smooth="yes"/>
      <point x="692" y="895"/>
      <point x="603" y="840"/>
      <point x="603" y="709" type="curve" smooth="yes"/>
    </contour>
    <component base="C" xOffset="-30"/>
  </outline>
</glyph>
<glyph name="uni0188" format="2">
  <advance width="800"/>
  <unicode hex="0188"/>
  <anchor x="400" y="0" name="bottom"/>
  <anchor x="400" y="764" name="top"/>
  <anchor x="771" y="557" name="topright"/>
  <outline>
    <contour>
      <point x="547" y="522" type="line"/>
      <point x="715" y="522" type="line"/>
      <point x="715" y="552" type="line" smooth="yes"/>
      <point x="715" y="590"/>
      <point x="741" y="610"/>
      <point x="786" y="610" type="curve" smooth="yes"/>
      <point x="820" y="610"/>
      <point x="842" y="605"/>
      <point x="859" y="601" type="curve"/>
      <point x="859" y="746" type="line"/>
      <point x="842" y="752"/>
      <point x="802" y="764"/>
      <point x="761" y="764" type="curve"/>
      <point x="623" y="764"/>
      <point x="547" y="710"/>
      <point x="547" y="549" type="curve"/>
    </contour>
    <component base="c" xOffset="-30"/>
  </outline>
</glyph>
<glyph name="uni018A" format="2">
  <advance width="800"/>
  <unicode hex="018A"/>
  <anchor x="400" y="0" name="bottom"/>
  <anchor x="400" y="714" name="top"/>
  <outline>
    <contour>
      <point x="208" y="0" type="line"/>
      <point x="402" y="0" type="line" smooth="yes"/>
      <point x="668" y="0"/>
      <point x="790" y="130"/>
      <point x="790" y="374" type="curve" smooth="yes"/>
      <point x="790" y="593"/>
      <point x="691" y="714"/>
      <point x="426" y="714" type="curve" smooth="yes"/>
      <point x="208" y="714" type="line"/>
    </contour>
    <contour>
      <point x="395" y="160" type="line"/>
      <point x="395" y="554" type="line"/>
      <point x="419" y="554" type="line" smooth="yes"/>
      <point x="548" y="554"/>
      <point x="597" y="529"/>
      <point x="597" y="366" type="curve" smooth="yes"/>
      <point x="597" y="175"/>
      <point x="544" y="160"/>
      <point x="416" y="160" type="curve" smooth="yes"/>
    </contour>
    <contour>
      <point x="-8" y="450" type="curve"/>
      <point x="145" y="450" type="line"/>
      <point x="140" y="461"/>
      <point x="133" y="480"/>
      <point x="133" y="506" type="curve" smooth="yes"/>
      <point x="133" y="539"/>
      <point x="157" y="563"/>
      <point x="204" y="563" type="curve" smooth="yes"/>
      <point x="241" y="563" type="line"/>
      <point x="241" y="714" type="line"/>
      <point x="200" y="714" type="line"/>
      <point x="48" y="714"/>
      <point x="-21" y="622"/>
      <point x="-21" y="517" type="curve" smooth="yes"/>
      <point x="-21" y="487"/>
      <point x="-14" y="458"/>
    </contour>
  </outline>
</glyph>
<glyph name="uni0191" format="2">
  <advance width="800"/>
  <unicode hex="0191"/>
  <anchor x="412" y="-251" name="bottom"/>
  <anchor x="415" y="714" name="top"/>
  <outline>
    <contour>
      <point x="35" y="-271" type="curve" smooth="yes"/>
      <point x="177" y="-271"/>
      <point x="273" y="-211"/>
      <point x="273" y="-62" type="curve" smooth="yes"/>
      <point x="273" y="257" type="line"/>
      <point x="707" y="257" type="line"/>
      <point x="707" y="422" type="line"/>
      <point x="273" y="422" type="line"/>
      <point x="273" y="549" type="line"/>
      <point x="728" y="549" type="line"/>
      <point x="728" y="714" type="line"/>
      <point x="77" y="714" type="line"/>
      <point x="77" y="-61" type="line" smooth="yes"/>
      <point x="77" y="-92"/>
      <point x="45" y="-109"/>
      <point x="-1" y="-109" type="curve" smooth="yes"/>
      <point x="-31" y="-109"/>
      <point x="-59" y="-101"/>
      <point x="-74" y="-99" type="curve"/>
      <point x="-74" y="-253" type="line"/>
      <point x="-54" y="-258"/>
      <point x="-11" y="-271"/>
    </contour>
  </outline>
</glyph>
<glyph name="uni0193" format="2">
  <advance width="800"/>
  <unicode hex="0193"/>
  <anchor x="406" y="0" name="bottom"/>
  <anchor x="406" y="895" name="top"/>
  <anchor x="771" y="714" name="topright"/>
  <outline>
    <contour>
      <point x="578" y="678" type="line"/>
      <point x="748" y="678" type="line"/>
      <point x="748" y="673" type="line" smooth="yes"/>
      <point x="748" y="716"/>
      <point x="771" y="729"/>
      <point x="813" y="729" type="curve" smooth="yes"/>
      <point x="846" y="729"/>
      <point x="876" y="723"/>
      <point x="891" y="719" type="curve"/>
      <point x="891" y="878" type="line"/>
      <point x="873" y="884"/>
      <point x="833" y="895"/>
      <point x="792" y="895" type="curve"/>
      <point x="663" y="895"/>
      <point x="578" y="843"/>
      <point x="578" y="712" type="curve"/>
    </contour>
    <component base="G" xOffset="-30"/>
  </outline>
</glyph>
<glyph name="uni0194" format="2">
  <advance width="800"/>
  <unicode hex="0194"/>
  <anchor x="400" y="-240" name="bottom"/>
  <anchor x="400" y="714" name="top"/>
  <outline>
    <contour>
      <point x="400" y="-240" type="curve" smooth="yes"/>
      <point x="542" y="-240"/>
      <point x="610" y="-161"/>
      <point x="610" y="-63" type="curve" smooth="yes"/>
      <point x="610" y="15"/>
      <point x="554" y="59"/>
      <point x="491" y="141" type="curve"/>
      <point x="797" y="714" type="line"/>
      <point x="606" y="714" type="line"/>
      <point x="463" y="472" type="line" smooth="yes"/>
      <point x="433" y="420"/>
      <point x="413" y="338"/>
      <point x="403" y="284" type="curve"/>
      <point x="393" y="336"/>
      <point x="371" y="421"/>
      <point x="340" y="473" type="curve" smooth="yes"/>
      <point x="194" y="714" type="line"/>
      <point x="4" y="714" type="line"/>
      <point x="309" y="145" type="line"/>
      <point x="251" y="65"/>
      <point x="192" y="15"/>
      <point x="192" y="-64" type="curve" smooth="yes"/>
      <point x="192" y="-166"/>
      <point x="259" y="-240"/>
    </contour>
    <contour>
      <point x="402" y="-142" type="curve" smooth="yes"/>
      <point x="370" y="-142"/>
      <point x="344" y="-122"/>
      <point x="344" y="-78" type="curve" smooth="yes"/>
      <point x="344" y="-51"/>
      <point x="362" y="-5"/>
      <point x="400" y="39" type="curve"/>
      <point x="437" y="-7"/>
      <point x="459" y="-52"/>
      <point x="459" y="-80" type="curve" smooth="yes"/>
      <point x="459" y="-123"/>
      <point x="436" y="-142"/>
    </contour>
  </outline>
</glyph>
<glyph name="uni0196" format="2">
  <advance width="800"/>
  <unicode hex="0196"/>
  <anchor x="458" y="0" name="bottom"/>
  <anchor x="325" y="714" name="top"/>
  <outline>
    <contour>
      <point x="511" y="-10" type="curve"/>
      <point x="586" y="-10"/>
      <point x="661" y="4"/>
      <point x="702" y="23" type="curve"/>
      <point x="702" y="192" type="line"/>
      <point x="666" y="179"/>
      <point x="613" y="171"/>
      <point x="564" y="171" type="curve" smooth="yes"/>
      <point x="474" y="171"/>
      <point x="421" y="182"/>
      <point x="421" y="273" type="curve" smooth="yes"/>
      <point x="421" y="714" type="line"/>
      <point x="220" y="714" type="line"/>
      <point x="220" y="200" type="line" smooth="yes"/>
      <point x="220" y="32"/>
      <point x="348" y="-10"/>
    </contour>
  </outline>
</glyph>
<glyph name="uni0197" format="2">
  <advance width="800"/>
  <unicode hex="0197"/>
  <anchor x="400" y="0" name="bottom"/>
  <anchor x="400" y="714" name="top"/>
  <anchor x="-32" y="714" name="topleft"/>
  <anchor x="494" y="10" name="ogonek"/>
  <anchor x="771" y="714" name="topright"/>
  <outline>
    <contour>
      <point x="129" y="295" type="line"/>
      <point x="671" y="295" type="line"/>
      <point x="671" y="454" type="line"/>
      <point x="129" y="454" type="line"/>
    </contour>
    <component base="I" xOffset="-30"/>
  </outline>
</glyph>
<glyph name="uni0198" format="2">
  <advance width="800"/>
  <unicode hex="0198"/>
  <anchor x="399" y="0" name="bottom"/>
  <anchor x="399" y="714" name="top"/>
  <outline>
    <contour>
      <point x="45" y="0" type="line"/>
      <point x="240" y="0" type="line"/>
      <point x="240" y="216" type="line"/>
      <point x="328" y="247" type="line"/>
      <point x="553" y="0" type="line"/>
      <point x="777" y="0" type="line"/>
      <point x="466" y="396" type="line"/>
      <point x="618" y="507" type="line" smooth="yes"/>
      <point x="662" y="540"/>
      <point x="693" y="563"/>
      <point x="732" y="563" type="curve" smooth="yes"/>
      <point x="757" y="563"/>
      <point x="787" y="556"/>
      <point x="802" y="551" type="curve"/>
      <point x="802" y="707" type="line"/>
      <point x="780" y="717"/>
      <point x="746" y="729"/>
      <point x="696" y="729" type="curve" smooth="yes"/>
      <point x="588" y="729"/>
      <point x="539" y="614"/>
      <point x="435" y="550" type="curve" smooth="yes"/>
      <point x="322" y="476" type="line" smooth="yes"/>
      <point x="289" y="455"/>
      <point x="265" y="431"/>
      <point x="240" y="401" type="curve"/>
      <point x="240" y="714" type="line"/>
      <point x="45" y="714" type="line"/>
    </contour>
  </outline>
</glyph>
<glyph name="uni0199" format="2">
  <advance width="800"/>
  <unicode hex="0199"/>
  <anchor x="399" y="0" name="bottom"/>
  <anchor x="399" y="769" name="top"/>
  <outline>
    <contour>
      <point x="66" y="0" type="line"/>
      <point x="266" y="0" type="line"/>
      <point x="266" y="134" type="line"/>
      <point x="388" y="201" type="line"/>
      <point x="584" y="0" type="line"/>
      <point x="807" y="0" type="line"/>
      <point x="523" y="334" type="line"/>
      <point x="791" y="557" type="line"/>
      <point x="565" y="557" type="line"/>
      <point x="366" y="405" type="line" smooth="yes"/>
      <point x="318" y="369"/>
      <point x="293" y="337"/>
      <point x="258" y="300" type="curve"/>
      <point x="254" y="300" type="line"/>
      <point x="261" y="347"/>
      <point x="266" y="425"/>
      <point x="266" y="475" type="curve" smooth="yes"/>
      <point x="266" y="555" type="line" smooth="yes"/>
      <point x="266" y="589"/>
      <point x="289" y="599"/>
      <point x="328" y="599" type="curve" smooth="yes"/>
      <point x="359" y="599"/>
      <point x="391" y="593"/>
      <point x="405" y="589" type="curve"/>
      <point x="405" y="750" type="line"/>
      <point x="384" y="757"/>
      <point x="338" y="769"/>
      <point x="293" y="769" type="curve" smooth="yes"/>
      <point x="153" y="769"/>
      <point x="66" y="717"/>
      <point x="66" y="560" type="curve" smooth="yes"/>
    </contour>
  </outline>
</glyph>
<glyph name="uni019B" format="2">
  <advance width="800"/>
  <unicode hex="019B"/>
  <anchor x="328" y="0" name="bottom"/>
  <anchor x="337" y="766" name="top"/>
  <outline>
    <contour>
      <point x="172" y="458" type="line"/>
      <point x="629" y="568" type="line"/>
      <point x="591" y="682" type="line"/>
      <point x="134" y="566" type="line"/>
    </contour>
    <component base="lambda" xOffset="-30"/>
  </outline>
</glyph>
<glyph name="uni019C" format="2">
  <advance width="800"/>
  <unicode hex="019C"/>
  <anchor x="400" y="0" name="bottom"/>
  <anchor x="400" y="357" name="center"/>
  <anchor x="400" y="714" name="top"/>
  <anchor x="-1" y="714" name="topleft"/>
  <outline>
    <contour>
      <point x="172" y="-10" type="curve" smooth="yes"/>
      <point x="251" y="-10"/>
      <point x="292" y="19"/>
      <point x="324" y="76" type="curve"/>
      <point x="330" y="76" type="line"/>
      <point x="348" y="26"/>
      <point x="384" y="-10"/>
      <point x="466" y="-10" type="curve" smooth="yes"/>
      <point x="536" y="-10"/>
      <point x="576" y="22"/>
      <point x="605" y="75" type="curve"/>
      <point x="617" y="75" type="line"/>
      <point x="639" y="0" type="line"/>
      <point x="775" y="0" type="line"/>
      <point x="775" y="714" type="line"/>
      <point x="604" y="714" type="line"/>
      <point x="604" y="178" type="line" smooth="yes"/>
      <point x="604" y="150"/>
      <point x="590" y="140"/>
      <point x="540" y="140" type="curve" smooth="yes"/>
      <point x="493" y="140"/>
      <point x="482" y="154"/>
      <point x="482" y="192" type="curve" smooth="yes"/>
      <point x="482" y="714" type="line"/>
      <point x="316" y="714" type="line"/>
      <point x="316" y="179" type="line" smooth="yes"/>
      <point x="316" y="153"/>
      <point x="299" y="140"/>
      <point x="249" y="140" type="curve" smooth="yes"/>
      <point x="203" y="140"/>
      <point x="195" y="151"/>
      <point x="195" y="192" type="curve" smooth="yes"/>
      <point x="195" y="714" type="line"/>
      <point x="25" y="714" type="line"/>
      <point x="25" y="143" type="line" smooth="yes"/>
      <point x="25" y="57"/>
      <point x="56" y="-10"/>
    </contour>
  </outline>
</glyph>
<glyph name="uni019D" format="2">
  <advance width="800"/>
  <unicode hex="019D"/>
  <anchor x="400" y="-268" name="bottom"/>
  <anchor x="400" y="714" name="top"/>
  <anchor x="799" y="714" name="topright"/>
  <outline>
    <contour>
      <point x="-4" y="-268" type="curve" smooth="yes"/>
      <point x="137" y="-268"/>
      <point x="228" y="-209"/>
      <point x="228" y="-60" type="curve" smooth="yes"/>
      <point x="228" y="226" type="line"/>
      <point x="46" y="219" type="line"/>
      <point x="46" y="-77" type="line" smooth="yes"/>
      <point x="46" y="-112"/>
      <point x="14" y="-131"/>
      <point x="-32" y="-131" type="curve" smooth="yes"/>
      <point x="-62" y="-131"/>
      <point x="-90" y="-123"/>
      <point x="-105" y="-121" type="curve"/>
      <point x="-105" y="-250" type="line"/>
      <point x="-85" y="-256"/>
      <point x="-49" y="-268"/>
    </contour>
    <component base="N" xOffset="-30"/>
  </outline>
</glyph>
<glyph name="uni01A3" format="2">
  <advance width="800"/>
  <unicode hex="01A3"/>
  <anchor x="251" y="0" name="bottom"/>
  <anchor x="251" y="277" name="center"/>
  <anchor x="256" y="10" name="ogonek"/>
  <anchor x="409" y="557" name="top"/>
  <outline>
    <contour>
      <point x="599" y="-240" type="line"/>
      <point x="775" y="-240" type="line"/>
      <point x="775" y="401" type="line" smooth="yes"/>
      <point x="775" y="510"/>
      <point x="713" y="568"/>
      <point x="603" y="568" type="curve" smooth="yes"/>
      <point x="513" y="568"/>
      <point x="466" y="540"/>
      <point x="437" y="495" type="curve"/>
      <point x="399" y="548"/>
      <point x="342" y="568"/>
      <point x="254" y="568" type="curve" smooth="yes"/>
      <point x="80" y="568"/>
      <point x="7" y="473"/>
      <point x="7" y="280" type="curve" smooth="yes"/>
      <point x="7" y="101"/>
      <point x="81" y="-10"/>
      <point x="251" y="-10" type="curve" smooth="yes"/>
      <point x="435" y="-10"/>
      <point x="496" y="104"/>
      <point x="496" y="280" type="curve" smooth="yes"/>
      <point x="496" y="333"/>
      <point x="488" y="385"/>
      <point x="479" y="405" type="curve"/>
      <point x="491" y="409"/>
      <point x="509" y="413"/>
      <point x="543" y="413" type="curve" smooth="yes"/>
      <point x="580" y="413"/>
      <point x="599" y="399"/>
      <point x="599" y="371" type="curve" smooth="yes"/>
    </contour>
    <contour>
      <point x="252" y="139" type="curve" smooth="yes"/>
      <point x="206" y="139"/>
      <point x="183" y="150"/>
      <point x="183" y="278" type="curve" smooth="yes"/>
      <point x="183" y="408"/>
      <point x="203" y="418"/>
      <point x="252" y="418" type="curve" smooth="yes"/>
      <point x="299" y="418"/>
      <point x="320" y="407"/>
      <point x="320" y="280" type="curve" smooth="yes"/>
      <point x="320" y="149"/>
      <point x="301" y="139"/>
    </contour>
  </outline>
</glyph>
<glyph name="uni01A5" format="2">
  <advance width="800"/>
  <unicode hex="01A5"/>
  <anchor x="429" y="-240" name="bottom"/>
  <anchor x="429" y="765" name="top"/>
  <outline>
    <contour>
      <point x="56" y="-240" type="line"/>
      <point x="252" y="-240" type="line"/>
      <point x="252" y="-38" type="line" smooth="yes"/>
      <point x="252" y="-13"/>
      <point x="245" y="38"/>
      <point x="241" y="53" type="curve"/>
      <point x="252" y="53" type="line"/>
      <point x="305" y="3"/>
      <point x="380" y="-10"/>
      <point x="469" y="-10" type="curve" smooth="yes"/>
      <point x="659" y="-10"/>
      <point x="772" y="114"/>
      <point x="772" y="286" type="curve" smooth="yes"/>
      <point x="772" y="418"/>
      <point x="680" y="567"/>
      <point x="477" y="567" type="curve" smooth="yes"/>
      <point x="379" y="567"/>
      <point x="302" y="546"/>
      <point x="252" y="485" type="curve"/>
      <point x="243" y="485" type="line"/>
      <point x="249" y="523"/>
      <point x="252" y="550"/>
      <point x="252" y="580" type="curve" smooth="yes"/>
      <point x="252" y="576" type="line" smooth="yes"/>
      <point x="252" y="605"/>
      <point x="275" y="611"/>
      <point x="311" y="611" type="curve" smooth="yes"/>
      <point x="343" y="611"/>
      <point x="375" y="602"/>
      <point x="384" y="601" type="curve"/>
      <point x="384" y="747" type="line"/>
      <point x="366" y="753"/>
      <point x="321" y="765"/>
      <point x="275" y="765" type="curve" smooth="yes"/>
      <point x="140" y="765"/>
      <point x="56" y="716"/>
      <point x="56" y="568" type="curve" smooth="yes"/>
    </contour>
    <contour>
      <point x="413" y="145" type="curve" smooth="yes"/>
      <point x="303" y="145"/>
      <point x="252" y="182"/>
      <point x="252" y="280" type="curve" smooth="yes"/>
      <point x="252" y="293" type="line" smooth="yes"/>
      <point x="252" y="374"/>
      <point x="306" y="411"/>
      <point x="412" y="411" type="curve" smooth="yes"/>
      <point x="525" y="411"/>
      <point x="571" y="367"/>
      <point x="571" y="281" type="curve" smooth="yes"/>
      <point x="571" y="194"/>
      <point x="523" y="145"/>
    </contour>
  </outline>
</glyph>
<glyph name="uni01A6" format="2">
  <advance width="800"/>
  <unicode hex="01A6"/>
  <anchor x="437" y="-98" name="bottom"/>
  <anchor x="437" y="714" name="top"/>
  <outline>
    <contour>
      <point x="587" y="-100" type="line"/>
      <point x="805" y="-100" type="line"/>
      <point x="556" y="209" type="line"/>
      <point x="659" y="260"/>
      <point x="732" y="321"/>
      <point x="732" y="406" type="curve" smooth="yes"/>
      <point x="732" y="542"/>
      <point x="613" y="614"/>
      <point x="359" y="614" type="curve" smooth="yes"/>
      <point x="267" y="614" type="line"/>
      <point x="267" y="714" type="line"/>
      <point x="77" y="714" type="line"/>
      <point x="77" y="0" type="line"/>
      <point x="267" y="0" type="line"/>
      <point x="267" y="150" type="line"/>
      <point x="388" y="150" type="line"/>
    </contour>
    <contour>
      <point x="267" y="310" type="line"/>
      <point x="267" y="454" type="line"/>
      <point x="359" y="454" type="line" smooth="yes"/>
      <point x="482" y="454"/>
      <point x="539" y="426"/>
      <point x="539" y="386" type="curve" smooth="yes"/>
      <point x="539" y="330"/>
      <point x="472" y="310"/>
      <point x="358" y="310" type="curve" smooth="yes"/>
    </contour>
  </outline>
</glyph>
<glyph name="uni01AD" format="2">
  <advance width="800"/>
  <unicode hex="01AD"/>
  <anchor x="400" y="0" name="bottom"/>
  <anchor x="400" y="765" name="top"/>
  <outline>
    <contour>
      <point x="520" y="-10" type="curve" smooth="yes"/>
      <point x="589" y="-10"/>
      <point x="653" y="-2"/>
      <point x="721" y="21" type="curve"/>
      <point x="721" y="174" type="line"/>
      <point x="663" y="155"/>
      <point x="614" y="151"/>
      <point x="566" y="151" type="curve" smooth="yes"/>
      <point x="492" y="151"/>
      <point x="426" y="148"/>
      <point x="426" y="241" type="curve" smooth="yes"/>
      <point x="426" y="402" type="line"/>
      <point x="711" y="402" type="line"/>
      <point x="711" y="557" type="line"/>
      <point x="426" y="557" type="line"/>
      <point x="426" y="561" type="line" smooth="yes"/>
      <point x="426" y="584"/>
      <point x="449" y="595"/>
      <point x="503" y="595" type="curve" smooth="yes"/>
      <point x="547" y="595"/>
      <point x="596" y="587"/>
      <point x="615" y="583" type="curve"/>
      <point x="615" y="746" type="line"/>
      <point x="588" y="753"/>
      <point x="536" y="765"/>
      <point x="482" y="765" type="curve" smooth="yes"/>
      <point x="313" y="765"/>
      <point x="227" y="717"/>
      <point x="227" y="571" type="curve" smooth="yes"/>
      <point x="227" y="556" type="line"/>
      <point x="24" y="492" type="line"/>
      <point x="24" y="402" type="line"/>
      <point x="227" y="402" type="line"/>
      <point x="227" y="213" type="line" smooth="yes"/>
      <point x="227" y="71"/>
      <point x="320" y="-10"/>
    </contour>
  </outline>
</glyph>
<glyph name="uni01AE" format="2">
  <advance width="800"/>
  <unicode hex="01AE"/>
  <anchor x="478" y="-273" name="bottom"/>
  <anchor x="400" y="714" name="top"/>
  <outline>
    <contour>
      <point x="542" y="-273" type="curve"/>
      <point x="588" y="-273"/>
      <point x="638" y="-262"/>
      <point x="661" y="-255" type="curve"/>
      <point x="661" y="-103" type="line"/>
      <point x="646" y="-106"/>
      <point x="618" y="-113"/>
      <point x="588" y="-113" type="curve" smooth="yes"/>
      <point x="542" y="-113"/>
      <point x="500" y="-91"/>
      <point x="500" y="-57" type="curve" smooth="yes"/>
      <point x="500" y="549" type="line"/>
      <point x="786" y="549" type="line"/>
      <point x="786" y="714" type="line"/>
      <point x="14" y="714" type="line"/>
      <point x="14" y="549" type="line"/>
      <point x="300" y="549" type="line"/>
      <point x="300" y="-60" type="line" smooth="yes"/>
      <point x="300" y="-214"/>
      <point x="383" y="-273"/>
    </contour>
  </outline>
</glyph>
<glyph name="uni01B2" format="2">
  <advance width="800"/>
  <unicode hex="01B2"/>
  <anchor x="406" y="0" name="bottom"/>
  <anchor x="743" y="10" name="ogonek"/>
  <anchor x="399" y="714" name="top"/>
  <anchor x="801" y="714" name="topright"/>
  <outline>
    <contour>
      <point x="398" y="-10" type="curve" smooth="yes"/>
      <point x="641" y="-10"/>
      <point x="754" y="91"/>
      <point x="754" y="265" type="curve" smooth="yes"/>
      <point x="754" y="563" type="line" smooth="yes"/>
      <point x="754" y="651"/>
      <point x="688" y="724"/>
      <point x="541" y="724" type="curve" smooth="yes"/>
      <point x="486" y="724"/>
      <point x="431" y="711"/>
      <point x="400" y="696" type="curve"/>
      <point x="400" y="530" type="line"/>
      <point x="430" y="541"/>
      <point x="458" y="544"/>
      <point x="488" y="544" type="curve" smooth="yes"/>
      <point x="527" y="544"/>
      <point x="554" y="536"/>
      <point x="554" y="509" type="curve" smooth="yes"/>
      <point x="554" y="277" type="line" smooth="yes"/>
      <point x="554" y="181"/>
      <point x="511" y="162"/>
      <point x="397" y="162" type="curve" smooth="yes"/>
      <point x="285" y="162"/>
      <point x="245" y="184"/>
      <point x="245" y="276" type="curve" smooth="yes"/>
      <point x="245" y="714" type="line"/>
      <point x="45" y="714" type="line"/>
      <point x="45" y="260" type="line" smooth="yes"/>
      <point x="45" y="82"/>
      <point x="166" y="-10"/>
    </contour>
  </outline>
</glyph>
<glyph name="uni01B5" format="2">
  <advance width="800"/>
  <unicode hex="01B5"/>
  <anchor x="414" y="0" name="bottom"/>
  <anchor x="414" y="714" name="top"/>
  <anchor x="771" y="714" name="topright"/>
  <outline>
    <contour>
      <point x="115" y="279" type="line"/>
      <point x="711" y="279" type="line"/>
      <point x="711" y="429" type="line"/>
      <point x="115" y="429" type="line"/>
    </contour>
    <component base="Z" xOffset="-30"/>
  </outline>
</glyph>
<glyph name="uni01BB" format="2">
  <advance width="800"/>
  <unicode hex="01BB"/>
  <anchor x="416" y="0" name="bottom"/>
  <anchor x="414" y="714" name="top"/>
  <outline>
    <contour>
      <point x="64" y="262" type="line"/>
      <point x="757" y="262" type="line"/>
      <point x="757" y="395" type="line"/>
      <point x="64" y="395" type="line"/>
    </contour>
    <component base="two" xOffset="-30"/>
  </outline>
</glyph>
<glyph name="uni01BC" format="2">
  <advance width="800"/>
  <unicode hex="01BC"/>
  <anchor x="400" y="0" name="bottom"/>
  <anchor x="400" y="714" name="top"/>
  <outline>
    <contour>
      <point x="345" y="-10" type="curve" smooth="yes"/>
      <point x="628" y="-10"/>
      <point x="750" y="98"/>
      <point x="750" y="250" type="curve" smooth="yes"/>
      <point x="750" y="406"/>
      <point x="613" y="463"/>
      <point x="419" y="463" type="curve"/>
      <point x="383" y="463" type="line"/>
      <point x="383" y="527" type="line"/>
      <point x="716" y="527" type="line"/>
      <point x="716" y="714" type="line"/>
      <point x="37" y="714" type="line"/>
      <point x="37" y="527" type="line"/>
      <point x="183" y="527" type="line"/>
      <point x="183" y="296" type="line"/>
      <point x="355" y="296" type="line" smooth="yes"/>
      <point x="463" y="296"/>
      <point x="529" y="282"/>
      <point x="529" y="232" type="curve" smooth="yes"/>
      <point x="529" y="181"/>
      <point x="458" y="168"/>
      <point x="333" y="168" type="curve" smooth="yes"/>
      <point x="243" y="168"/>
      <point x="153" y="191"/>
      <point x="80" y="212" type="curve"/>
      <point x="80" y="28" type="line"/>
      <point x="151" y="13"/>
      <point x="235" y="-10"/>
    </contour>
  </outline>
</glyph>
<glyph name="uni01BD" format="2">
  <advance width="800"/>
  <unicode hex="01BD"/>
  <anchor x="400" y="0" name="bottom"/>
  <anchor x="400" y="557" name="top"/>
  <outline>
    <contour>
      <point x="346" y="-11" type="curve" smooth="yes"/>
      <point x="635" y="-11"/>
      <point x="755" y="63"/>
      <point x="755" y="184" type="curve" smooth="yes"/>
      <point x="755" y="308"/>
      <point x="663" y="355"/>
      <point x="429" y="355" type="curve" smooth="yes"/>
      <point x="380" y="355" type="line"/>
      <point x="380" y="399" type="line"/>
      <point x="718" y="399" type="line"/>
      <point x="718" y="557" type="line"/>
      <point x="57" y="557" type="line"/>
      <point x="57" y="399" type="line"/>
      <point x="191" y="399" type="line"/>
      <point x="191" y="221" type="line"/>
      <point x="353" y="221" type="line" smooth="yes"/>
      <point x="486" y="221"/>
      <point x="547" y="215"/>
      <point x="547" y="194" type="curve" smooth="yes"/>
      <point x="547" y="172"/>
      <point x="486" y="155"/>
      <point x="354" y="155" type="curve" smooth="yes"/>
      <point x="232" y="155"/>
      <point x="116" y="175"/>
      <point x="53" y="191" type="curve"/>
      <point x="53" y="20" type="line"/>
      <point x="114" y="8"/>
      <point x="219" y="-11"/>
    </contour>
  </outline>
</glyph>
<glyph name="uni01BF" format="2">
  <advance width="800"/>
  <unicode hex="01BF"/>
  <anchor x="419" y="-240" name="bottom"/>
  <anchor x="419" y="553" name="top"/>
  <outline>
    <contour>
      <point x="76" y="-240" type="line"/>
      <point x="272" y="-240" type="line"/>
      <point x="272" y="-19" type="line"/>
      <point x="598" y="0"/>
      <point x="774" y="146"/>
      <point x="774" y="303" type="curve" smooth="yes"/>
      <point x="774" y="474"/>
      <point x="657" y="567"/>
      <point x="489" y="567" type="curve" smooth="yes"/>
      <point x="377" y="567"/>
      <point x="312" y="531"/>
      <point x="270" y="495" type="curve"/>
      <point x="261" y="495" type="line"/>
      <point x="234" y="557" type="line"/>
      <point x="76" y="557" type="line"/>
    </contour>
    <contour>
      <point x="272" y="141" type="curve"/>
      <point x="272" y="299" type="line" smooth="yes"/>
      <point x="272" y="362"/>
      <point x="316" y="395"/>
      <point x="425" y="395" type="curve" smooth="yes"/>
      <point x="522" y="395"/>
      <point x="573" y="364"/>
      <point x="573" y="303" type="curve" smooth="yes"/>
      <point x="573" y="199"/>
      <point x="455" y="149"/>
    </contour>
  </outline>
</glyph>
<glyph name="uni01E5" format="2">
  <advance width="800"/>
  <unicode hex="01E5"/>
  <anchor x="400" y="-245" name="bottom"/>
  <anchor x="400" y="557" name="top"/>
  <outline>
    <contour>
      <point x="393" y="-240" type="curve"/>
      <point x="595" y="-240"/>
      <point x="696" y="-193"/>
      <point x="735" y="-75" type="curve"/>
      <point x="822" y="-75" type="line"/>
      <point x="822" y="25" type="line"/>
      <point x="748" y="25" type="line"/>
      <point x="748" y="557" type="line"/>
      <point x="573" y="557" type="line"/>
      <point x="554" y="497" type="line"/>
      <point x="548" y="497" type="line"/>
      <point x="493" y="547"/>
      <point x="424" y="567"/>
      <point x="331" y="567" type="curve" smooth="yes"/>
      <point x="144" y="567"/>
      <point x="30" y="476"/>
      <point x="30" y="302" type="curve" smooth="yes"/>
      <point x="30" y="134"/>
      <point x="137" y="50"/>
      <point x="323" y="50" type="curve" smooth="yes"/>
      <point x="413" y="50"/>
      <point x="500" y="68"/>
      <point x="552" y="123" type="curve"/>
      <point x="558" y="123" type="line"/>
      <point x="555" y="107"/>
      <point x="553" y="77"/>
      <point x="553" y="60" type="curve" smooth="yes"/>
      <point x="553" y="25" type="line"/>
      <point x="310" y="25" type="line"/>
      <point x="310" y="-75" type="line"/>
      <point x="533" y="-75" type="line"/>
      <point x="512" y="-89"/>
      <point x="467" y="-99"/>
      <point x="373" y="-99" type="curve" smooth="yes"/>
      <point x="291" y="-99"/>
      <point x="180" y="-92"/>
      <point x="105" y="-62" type="curve"/>
      <point x="105" y="-210" type="line"/>
      <point x="175" y="-231"/>
      <point x="279" y="-240"/>
    </contour>
    <contour>
      <point x="399" y="202" type="curve"/>
      <point x="283" y="202"/>
      <point x="233" y="230"/>
      <point x="233" y="303" type="curve" smooth="yes"/>
      <point x="233" y="366"/>
      <point x="284" y="405"/>
      <point x="395" y="405" type="curve" smooth="yes"/>
      <point x="504" y="405"/>
      <point x="560" y="385"/>
      <point x="560" y="309" type="curve" smooth="yes"/>
      <point x="560" y="294" type="line" smooth="yes"/>
      <point x="560" y="236"/>
      <point x="506" y="202"/>
    </contour>
  </outline>
</glyph>
<glyph name="uni01F6" format="2">
  <advance width="800"/>
  <unicode hex="01F6"/>
  <anchor x="400" y="0" name="bottom"/>
  <anchor x="400" y="357" name="center"/>
  <anchor x="400" y="714" name="top"/>
  <anchor x="-1" y="714" name="topleft"/>
  <outline>
    <contour>
      <point x="548" y="-10" type="curve" smooth="yes"/>
      <point x="699" y="-10"/>
      <point x="774" y="62"/>
      <point x="774" y="191" type="curve" smooth="yes"/>
      <point x="774" y="557" type="line"/>
      <point x="600" y="557" type="line"/>
      <point x="600" y="170" type="line" smooth="yes"/>
      <point x="600" y="156"/>
      <point x="585" y="148"/>
      <point x="548" y="148" type="curve" smooth="yes"/>
      <point x="511" y="148"/>
      <point x="496" y="156"/>
      <point x="496" y="170" type="curve" smooth="yes"/>
      <point x="496" y="714" type="line"/>
      <point x="322" y="714" type="line"/>
      <point x="322" y="451" type="line"/>
      <point x="209" y="451" type="line"/>
      <point x="209" y="714" type="line"/>
      <point x="35" y="714" type="line"/>
      <point x="35" y="0" type="line"/>
      <point x="209" y="0" type="line"/>
      <point x="209" y="290" type="line"/>
      <point x="322" y="290" type="line"/>
      <point x="322" y="191" type="line" smooth="yes"/>
      <point x="322" y="62"/>
      <point x="384" y="-10"/>
    </contour>
  </outline>
</glyph>
<glyph name="uni021C" format="2">
  <advance width="800"/>
  <unicode hex="021C"/>
  <anchor x="400" y="-132" name="bottom"/>
  <anchor x="390" y="714" name="top"/>
  <outline>
    <contour>
      <point x="64" y="-181" type="line"/>
      <point x="549" y="-113"/>
      <point x="759" y="0"/>
      <point x="759" y="191" type="curve" smooth="yes"/>
      <point x="759" y="275"/>
      <point x="689" y="335"/>
      <point x="604" y="369" type="curve"/>
      <point x="685" y="415"/>
      <point x="731" y="468"/>
      <point x="731" y="528" type="curve" smooth="yes"/>
      <point x="731" y="651"/>
      <point x="591" y="724"/>
      <point x="405" y="724" type="curve" smooth="yes"/>
      <point x="273" y="724"/>
      <point x="161" y="697"/>
      <point x="57" y="645" type="curve"/>
      <point x="140" y="502" type="line"/>
      <point x="215" y="536"/>
      <point x="299" y="563"/>
      <point x="387" y="563" type="curve" smooth="yes"/>
      <point x="475" y="563"/>
      <point x="529" y="552"/>
      <point x="529" y="504" type="curve" smooth="yes"/>
      <point x="529" y="470"/>
      <point x="451" y="441"/>
      <point x="202" y="401" type="curve"/>
      <point x="236" y="235" type="line"/>
      <point x="315" y="250"/>
      <point x="388" y="265"/>
      <point x="452" y="283" type="curve"/>
      <point x="514" y="263"/>
      <point x="553" y="236"/>
      <point x="553" y="204" type="curve" smooth="yes"/>
      <point x="553" y="120"/>
      <point x="463" y="66"/>
      <point x="64" y="10" type="curve"/>
    </contour>
  </outline>
</glyph>
<glyph name="uni021D" format="2">
  <advance width="800"/>
  <unicode hex="021D"/>
  <anchor x="369" y="-202" name="bottom"/>
  <anchor x="372" y="557" name="top"/>
  <outline>
    <contour>
      <point x="20" y="-240" type="line"/>
      <point x="461" y="-209"/>
      <point x="752" y="-131"/>
      <point x="752" y="67" type="curve" smooth="yes"/>
      <point x="752" y="138"/>
      <point x="688" y="193"/>
      <point x="597" y="234" type="curve"/>
      <point x="667" y="260"/>
      <point x="710" y="311"/>
      <point x="710" y="365" type="curve" smooth="yes"/>
      <point x="710" y="486"/>
      <point x="576" y="563"/>
      <point x="364" y="563" type="curve" smooth="yes"/>
      <point x="252" y="563"/>
      <point x="151" y="545"/>
      <point x="49" y="509" type="curve"/>
      <point x="106" y="370" type="line"/>
      <point x="179" y="385"/>
      <point x="263" y="405"/>
      <point x="366" y="405" type="curve" smooth="yes"/>
      <point x="458" y="405"/>
      <point x="516" y="391"/>
      <point x="516" y="358" type="curve" smooth="yes"/>
      <point x="516" y="317"/>
      <point x="448" y="299"/>
      <point x="177" y="265" type="curve"/>
      <point x="217" y="116" type="line"/>
      <point x="298" y="127"/>
      <point x="376" y="140"/>
      <point x="448" y="162" type="curve"/>
      <point x="515" y="132"/>
      <point x="553" y="107"/>
      <point x="553" y="87" type="curve" smooth="yes"/>
      <point x="553" y="3"/>
      <point x="408" y="-24"/>
      <point x="20" y="-62" type="curve"/>
    </contour>
  </outline>
</glyph>
<glyph name="uni0222" format="2">
  <advance width="800"/>
  <unicode hex="0222"/>
  <anchor x="400" y="0" name="bottom"/>
  <anchor x="400" y="714" name="top"/>
  <outline>
    <contour>
      <point x="401" y="-10" type="curve" smooth="yes"/>
      <point x="651" y="-10"/>
      <point x="769" y="75"/>
      <point x="769" y="248" type="curve" smooth="yes"/>
      <point x="769" y="333"/>
      <point x="720" y="392"/>
      <point x="610" y="429" type="curve"/>
      <point x="685" y="470"/>
      <point x="723" y="528"/>
      <point x="723" y="600" type="curve" smooth="yes"/>
      <point x="723" y="714" type="line"/>
      <point x="535" y="714" type="line"/>
      <point x="535" y="590" type="line" smooth="yes"/>
      <point x="535" y="517"/>
      <point x="491" y="492"/>
      <point x="400" y="492" type="curve" smooth="yes"/>
      <point x="312" y="492"/>
      <point x="266" y="518"/>
      <point x="266" y="589" type="curve" smooth="yes"/>
      <point x="266" y="714" type="line"/>
      <point x="77" y="714" type="line"/>
      <point x="77" y="595" type="line" smooth="yes"/>
      <point x="77" y="522"/>
      <point x="115" y="466"/>
      <point x="188" y="426" type="curve"/>
      <point x="83" y="388"/>
      <point x="31" y="327"/>
      <point x="31" y="249" type="curve" smooth="yes"/>
      <point x="31" y="75"/>
      <point x="149" y="-10"/>
    </contour>
    <contour>
      <point x="400" y="155" type="curve" smooth="yes"/>
      <point x="285" y="155"/>
      <point x="227" y="186"/>
      <point x="227" y="249" type="curve" smooth="yes"/>
      <point x="227" y="312"/>
      <point x="284" y="343"/>
      <point x="401" y="343" type="curve" smooth="yes"/>
      <point x="515" y="343"/>
      <point x="572" y="314"/>
      <point x="572" y="249" type="curve" smooth="yes"/>
      <point x="572" y="184"/>
      <point x="516" y="155"/>
    </contour>
  </outline>
</glyph>
<glyph name="uni0223" format="2">
  <advance width="800"/>
  <unicode hex="0223"/>
  <anchor x="395" y="0" name="bottom"/>
  <anchor x="395" y="760" name="top"/>
  <outline>
    <contour>
      <point x="397" y="-10" type="curve"/>
      <point x="617" y="-10"/>
      <point x="773" y="87"/>
      <point x="773" y="257" type="curve" smooth="yes"/>
      <point x="773" y="345"/>
      <point x="714" y="416"/>
      <point x="593" y="464" type="curve"/>
      <point x="697" y="513"/>
      <point x="730" y="597"/>
      <point x="730" y="677" type="curve" smooth="yes"/>
      <point x="730" y="760" type="line"/>
      <point x="523" y="760" type="line"/>
      <point x="523" y="675" type="line" smooth="yes"/>
      <point x="523" y="600"/>
      <point x="491" y="548"/>
      <point x="400" y="548" type="curve"/>
      <point x="309" y="548"/>
      <point x="277" y="602"/>
      <point x="277" y="679" type="curve" smooth="yes"/>
      <point x="277" y="760" type="line"/>
      <point x="70" y="760" type="line"/>
      <point x="70" y="681" type="line" smooth="yes"/>
      <point x="70" y="597"/>
      <point x="98" y="514"/>
      <point x="206" y="464" type="curve"/>
      <point x="79" y="414"/>
      <point x="26" y="341"/>
      <point x="26" y="261" type="curve" smooth="yes"/>
      <point x="26" y="84"/>
      <point x="190" y="-10"/>
    </contour>
    <contour>
      <point x="400" y="159" type="curve"/>
      <point x="287" y="159"/>
      <point x="238" y="193"/>
      <point x="238" y="265" type="curve" smooth="yes"/>
      <point x="238" y="340"/>
      <point x="288" y="377"/>
      <point x="400" y="377" type="curve" smooth="yes"/>
      <point x="512" y="377"/>
      <point x="562" y="337"/>
      <point x="562" y="271" type="curve" smooth="yes"/>
      <point x="562" y="195"/>
      <point x="508" y="159"/>
    </contour>
  </outline>
</glyph>
<glyph name="uni0224" format="2">
  <advance width="800"/>
  <unicode hex="0224"/>
  <anchor x="440" y="-240" name="bottom"/>
  <anchor x="400" y="714" name="top"/>
  <anchor x="771" y="714" name="topright"/>
  <outline>
    <contour>
      <point x="509" y="-269" type="curve" smooth="yes"/>
      <point x="688" y="-269"/>
      <point x="756" y="-151"/>
      <point x="756" y="-36" type="curve" smooth="yes"/>
      <point x="756" y="165" type="line"/>
      <point x="563" y="165" type="line"/>
      <point x="563" y="0" type="line"/>
      <point x="578" y="0" type="line"/>
      <point x="578" y="-7" type="line" smooth="yes"/>
      <point x="578" y="-104"/>
      <point x="527" y="-124"/>
      <point x="463" y="-124" type="curve" smooth="yes"/>
      <point x="436" y="-124"/>
      <point x="412" y="-123"/>
      <point x="384" y="-115" type="curve"/>
      <point x="384" y="-257" type="line"/>
      <point x="414" y="-265"/>
      <point x="468" y="-269"/>
    </contour>
    <component base="Z" xOffset="-30"/>
  </outline>
</glyph>
<glyph name="uni0234" format="2">
  <advance width="800"/>
  <unicode hex="0234"/>
  <anchor x="466" y="0" name="bottom"/>
  <anchor x="264" y="760" name="top"/>
  <outline>
    <contour>
      <point x="173" y="-52" type="line"/>
      <point x="187" y="-37"/>
      <point x="222" y="0"/>
      <point x="249" y="14" type="curve"/>
      <point x="276" y="5"/>
      <point x="340" y="-10"/>
      <point x="464" y="-10" type="curve" smooth="yes"/>
      <point x="647" y="-10"/>
      <point x="731" y="57"/>
      <point x="731" y="147" type="curve" smooth="yes"/>
      <point x="731" y="228"/>
      <point x="658" y="277"/>
      <point x="511" y="277" type="curve" smooth="yes"/>
      <point x="445" y="277"/>
      <point x="394" y="267"/>
      <point x="370" y="260" type="curve"/>
      <point x="370" y="760" type="line"/>
      <point x="174" y="760" type="line"/>
      <point x="174" y="230" type="line" smooth="yes"/>
      <point x="174" y="175"/>
      <point x="178" y="109"/>
      <point x="184" y="91" type="curve"/>
      <point x="134" y="72"/>
      <point x="79" y="27"/>
      <point x="58" y="7" type="curve"/>
    </contour>
    <contour>
      <point x="483" y="109" type="curve" smooth="yes"/>
      <point x="409" y="109"/>
      <point x="379" y="124"/>
      <point x="372" y="144" type="curve"/>
      <point x="392" y="156"/>
      <point x="429" y="168"/>
      <point x="486" y="168" type="curve" smooth="yes"/>
      <point x="552" y="168"/>
      <point x="581" y="157"/>
      <point x="581" y="140" type="curve" smooth="yes"/>
      <point x="581" y="121"/>
      <point x="550" y="109"/>
    </contour>
  </outline>
</glyph>
<glyph name="uni0235" format="2">
  <advance width="800"/>
  <unicode hex="0235"/>
  <anchor x="313" y="0" name="bottom"/>
  <anchor x="321" y="557" name="top"/>
  <outline>
    <contour>
      <point x="436" y="-21" type="line"/>
      <point x="440" y="-9"/>
      <point x="448" y="10"/>
      <point x="457" y="19" type="curve"/>
      <point x="483" y="9"/>
      <point x="527" y="-10"/>
      <point x="612" y="-10" type="curve" smooth="yes"/>
      <point x="738" y="-10"/>
      <point x="805" y="49"/>
      <point x="805" y="141" type="curve" smooth="yes"/>
      <point x="805" y="242"/>
      <point x="738" y="287"/>
      <point x="633" y="287" type="curve" smooth="yes"/>
      <point x="599" y="287"/>
      <point x="578" y="287"/>
      <point x="561" y="286" type="curve"/>
      <point x="561" y="426" type="line" smooth="yes"/>
      <point x="561" y="534"/>
      <point x="491" y="568"/>
      <point x="367" y="568" type="curve" smooth="yes"/>
      <point x="262" y="568"/>
      <point x="214" y="541"/>
      <point x="191" y="495" type="curve"/>
      <point x="182" y="495" type="line"/>
      <point x="165" y="558" type="line"/>
      <point x="25" y="558" type="line"/>
      <point x="25" y="0" type="line"/>
      <point x="204" y="0" type="line"/>
      <point x="204" y="378" type="line" smooth="yes"/>
      <point x="204" y="415"/>
      <point x="231" y="425"/>
      <point x="299" y="425" type="curve" smooth="yes"/>
      <point x="362" y="425"/>
      <point x="384" y="419"/>
      <point x="384" y="378" type="curve" smooth="yes"/>
      <point x="384" y="196" type="line" smooth="yes"/>
      <point x="384" y="182"/>
      <point x="384" y="170"/>
      <point x="386" y="158" type="curve"/>
      <point x="356" y="121"/>
      <point x="329" y="57"/>
      <point x="313" y="4" type="curve"/>
    </contour>
    <contour>
      <point x="612" y="98" type="curve" smooth="yes"/>
      <point x="574" y="98"/>
      <point x="560" y="109"/>
      <point x="560" y="169" type="curve"/>
      <point x="570" y="174"/>
      <point x="584" y="179"/>
      <point x="609" y="179" type="curve" smooth="yes"/>
      <point x="643" y="179"/>
      <point x="661" y="174"/>
      <point x="661" y="139" type="curve" smooth="yes"/>
      <point x="661" y="110"/>
      <point x="645" y="98"/>
    </contour>
  </outline>
</glyph>
<glyph name="uni0236" format="2">
  <advance width="800"/>
  <unicode hex="0236"/>
  <anchor x="492" y="0" name="bottom"/>
  <anchor x="350" y="677" name="top"/>
  <outline>
    <contour>
      <point x="229" y="-30" type="line"/>
      <point x="241" y="-15"/>
      <point x="267" y="12"/>
      <point x="288" y="23" type="curve"/>
      <point x="321" y="9"/>
      <point x="386" y="-10"/>
      <point x="501" y="-10" type="curve" smooth="yes"/>
      <point x="677" y="-10"/>
      <point x="758" y="58"/>
      <point x="758" y="148" type="curve" smooth="yes"/>
      <point x="758" y="228"/>
      <point x="693" y="277"/>
      <point x="548" y="277" type="curve" smooth="yes"/>
      <point x="492" y="277"/>
      <point x="447" y="271"/>
      <point x="411" y="260" type="curve"/>
      <point x="411" y="402" type="line"/>
      <point x="696" y="402" type="line"/>
      <point x="696" y="557" type="line"/>
      <point x="411" y="557" type="line"/>
      <point x="411" y="677" type="line"/>
      <point x="260" y="677" type="line"/>
      <point x="227" y="555" type="line"/>
      <point x="9" y="492" type="line"/>
      <point x="9" y="402" type="line"/>
      <point x="212" y="402" type="line"/>
      <point x="212" y="230" type="line" smooth="yes"/>
      <point x="212" y="185"/>
      <point x="215" y="121"/>
      <point x="222" y="103" type="curve"/>
      <point x="183" y="82"/>
      <point x="134" y="40"/>
      <point x="109" y="16" type="curve"/>
    </contour>
    <contour>
      <point x="525" y="109" type="curve" smooth="yes"/>
      <point x="465" y="109"/>
      <point x="428" y="120"/>
      <point x="423" y="144" type="curve"/>
      <point x="442" y="159"/>
      <point x="482" y="167"/>
      <point x="524" y="167" type="curve" smooth="yes"/>
      <point x="579" y="167"/>
      <point x="606" y="155"/>
      <point x="606" y="138" type="curve" smooth="yes"/>
      <point x="606" y="119"/>
      <point x="577" y="109"/>
    </contour>
  </outline>
</glyph>
<glyph name="uni023A" format="2">
  <advance width="800"/>
  <unicode hex="023A"/>
  <anchor x="400" y="-75" name="bottom"/>
  <anchor x="400" y="760" name="top"/>
  <anchor x="714" y="10" name="ogonek"/>
  <anchor x="771" y="714" name="topright"/>
  <outline>
    <contour>
      <point x="241" y="-75" type="line"/>
      <point x="382" y="-75" type="line"/>
      <point x="687" y="760" type="line"/>
      <point x="547" y="760" type="line"/>
    </contour>
    <component base="A" xOffset="-30"/>
  </outline>
</glyph>
<glyph name="uni023B" format="2">
  <advance width="800"/>
  <unicode hex="023B"/>
  <anchor x="400" y="-75" name="bottom"/>
  <anchor x="479" y="760" name="top"/>
  <anchor x="771" y="714" name="topright"/>
  <outline>
    <contour>
      <point x="239" y="-75" type="line"/>
      <point x="380" y="-75" type="line"/>
      <point x="685" y="760" type="line"/>
      <point x="545" y="760" type="line"/>
    </contour>
    <component base="C" xOffset="-30"/>
  </outline>
</glyph>
<glyph name="uni0240" format="2">
  <advance width="800"/>
  <unicode hex="0240"/>
  <anchor x="443" y="-240" name="bottom"/>
  <anchor x="414" y="557" name="top"/>
  <outline>
    <contour>
      <point x="602" y="-240" type="curve" smooth="yes"/>
      <point x="660" y="-240"/>
      <point x="699" y="-231"/>
      <point x="730" y="-222" type="curve"/>
      <point x="730" y="-83" type="line"/>
      <point x="708" y="-86"/>
      <point x="686" y="-90"/>
      <point x="650" y="-90" type="curve" smooth="yes"/>
      <point x="545" y="-90"/>
      <point x="519" y="-66"/>
      <point x="472" y="34" type="curve" smooth="yes"/>
      <point x="446" y="91"/>
      <point x="417" y="123"/>
      <point x="306" y="135" type="curve"/>
      <point x="718" y="436" type="line"/>
      <point x="718" y="557" type="line"/>
      <point x="92" y="557" type="line"/>
      <point x="92" y="404" type="line"/>
      <point x="481" y="404" type="line"/>
      <point x="70" y="112" type="line"/>
      <point x="70" y="0" type="line"/>
      <point x="144" y="0" type="line" smooth="yes"/>
      <point x="264" y="0"/>
      <point x="290" y="-27"/>
      <point x="325" y="-86" type="curve" smooth="yes"/>
      <point x="370" y="-162"/>
      <point x="404" y="-240"/>
    </contour>
  </outline>
</glyph>
<glyph name="uni0243" format="2">
  <advance width="800"/>
  <unicode hex="0243"/>
  <anchor x="400" y="0" name="bottom"/>
  <anchor x="400" y="714" name="top"/>
  <anchor x="771" y="714" name="topright"/>
  <outline>
    <contour>
      <point x="-30" y="166" type="line"/>
      <point x="387" y="166" type="line"/>
      <point x="387" y="282" type="line"/>
      <point x="-30" y="282" type="line"/>
    </contour>
    <component base="B" xOffset="-30"/>
  </outline>
</glyph>
<glyph name="uni0247" format="2">
  <advance width="800"/>
  <unicode hex="0247"/>
  <anchor x="400" y="-208" name="bottom"/>
  <anchor x="400" y="760" name="top"/>
  <anchor x="377" y="10" name="ogonek"/>
  <anchor x="771" y="557" name="topright"/>
  <outline>
    <contour>
      <point x="82" y="-208" type="line"/>
      <point x="224" y="-208" type="line"/>
      <point x="718" y="760" type="line"/>
      <point x="577" y="760" type="line"/>
    </contour>
    <component base="e" xOffset="-30"/>
  </outline>
</glyph>
<glyph name="uni0248" format="2">
  <advance width="800"/>
  <unicode hex="0248"/>
  <anchor x="400" y="-229" name="bottom"/>
  <anchor x="425" y="714" name="top"/>
  <outline>
    <contour>
      <point x="188" y="-229" type="curve" smooth="yes"/>
      <point x="425" y="-229"/>
      <point x="522" y="-145"/>
      <point x="522" y="59" type="curve" smooth="yes"/>
      <point x="522" y="714" type="line"/>
      <point x="325" y="714" type="line"/>
      <point x="325" y="86" type="line" smooth="yes"/>
      <point x="325" y="-8"/>
      <point x="278" y="-62"/>
      <point x="156" y="-62" type="curve" smooth="yes"/>
      <point x="102" y="-62"/>
      <point x="21" y="-62"/>
      <point x="-55" y="-47" type="curve"/>
      <point x="-55" y="-215" type="line"/>
      <point x="22" y="-226"/>
      <point x="116" y="-229"/>
    </contour>
    <contour>
      <point x="152" y="274" type="line"/>
      <point x="682" y="274" type="line"/>
      <point x="682" y="454" type="line"/>
      <point x="152" y="454" type="line"/>
    </contour>
  </outline>
</glyph>
<glyph name="uni024C" format="2">
  <advance width="800"/>
  <unicode hex="024C"/>
  <anchor x="430" y="0" name="bottom"/>
  <anchor x="400" y="714" name="top"/>
  <anchor x="771" y="714" name="topright"/>
  <outline>
    <contour>
      <point x="-30" y="251" type="line"/>
      <point x="302" y="251" type="line"/>
      <point x="302" y="410" type="line"/>
      <point x="-30" y="410" type="line"/>
    </contour>
    <component base="R" xOffset="-30"/>
  </outline>
</glyph>
<glyph name="uni024D" format="2">
  <advance width="800"/>
  <unicode hex="024D"/>
  <anchor x="400" y="0" name="bottom"/>
  <anchor x="400" y="557" name="top"/>
  <anchor x="771" y="557" name="topright"/>
  <outline>
    <contour>
      <point x="96" y="203" type="line"/>
      <point x="631" y="203" type="line"/>
      <point x="631" y="338" type="line"/>
      <point x="96" y="338" type="line"/>
    </contour>
    <component base="r" xOffset="-30"/>
  </outline>
</glyph>
<glyph name="uni024E" format="2">
  <advance width="800"/>
  <unicode hex="024E"/>
  <anchor x="400" y="0" name="bottom"/>
  <anchor x="400" y="714" name="top"/>
  <anchor x="-31" y="714" name="topleft"/>
  <anchor x="772" y="714" name="topright"/>
  <outline>
    <contour>
      <point x="-30" y="542" type="line"/>
      <point x="830" y="542" type="line"/>
      <point x="830" y="676" type="line"/>
      <point x="-30" y="676" type="line"/>
    </contour>
    <component base="Y" xOffset="-30"/>
  </outline>
</glyph>
<glyph name="uni024F" format="2">
  <advance width="800"/>
  <unicode hex="024F"/>
  <anchor x="400" y="-245" name="bottom"/>
  <anchor x="400" y="557" name="top"/>
  <anchor x="771" y="557" name="topright"/>
  <outline>
    <contour>
      <point x="-10" y="276" type="line"/>
      <point x="812" y="276" type="line"/>
      <point x="812" y="411" type="line"/>
      <point x="-10" y="411" type="line"/>
    </contour>
    <component base="y" xOffset="-30"/>
  </outline>
</glyph>
<glyph name="uni0251" format="2">
  <advance width="800"/>
  <unicode hex="0251"/>
  <anchor x="400" y="0" name="bottom"/>
  <anchor x="400" y="557" name="top"/>
  <outline>
    <contour>
      <point x="330" y="-10" type="curve"/>
      <point x="447" y="-10"/>
      <point x="519" y="31"/>
      <point x="563" y="74" type="curve"/>
      <point x="570" y="74" type="line"/>
      <point x="591" y="0" type="line"/>
      <point x="744" y="0" type="line"/>
      <point x="744" y="557" type="line"/>
      <point x="573" y="557" type="line"/>
      <point x="545" y="500" type="line"/>
      <point x="538" y="500" type="line"/>
      <point x="496" y="534"/>
      <point x="434" y="567"/>
      <point x="329" y="567" type="curve" smooth="yes"/>
      <point x="147" y="567"/>
      <point x="28" y="467"/>
      <point x="28" y="279" type="curve" smooth="yes"/>
      <point x="28" y="88"/>
      <point x="147" y="-10"/>
    </contour>
    <contour>
      <point x="392" y="144" type="curve" smooth="yes"/>
      <point x="287" y="144"/>
      <point x="229" y="181"/>
      <point x="229" y="277" type="curve" smooth="yes"/>
      <point x="229" y="371"/>
      <point x="288" y="411"/>
      <point x="394" y="411" type="curve" smooth="yes"/>
      <point x="509" y="411"/>
      <point x="559" y="374"/>
      <point x="559" y="294" type="curve" smooth="yes"/>
      <point x="559" y="266" type="line" smooth="yes"/>
      <point x="559" y="185"/>
      <point x="506" y="144"/>
    </contour>
  </outline>
</glyph>
<glyph name="uni0256" format="2">
  <advance width="800"/>
  <unicode hex="0256"/>
  <anchor x="400" y="-240" name="bottom"/>
  <anchor x="400" y="760" name="top"/>
  <outline>
    <contour>
      <point x="757" y="-240" type="curve"/>
      <point x="815" y="-240"/>
      <point x="863" y="-228"/>
      <point x="889" y="-219" type="curve"/>
      <point x="889" y="-61" type="line"/>
      <point x="868" y="-67"/>
      <point x="842" y="-69"/>
      <point x="809" y="-69" type="curve" smooth="yes"/>
      <point x="767" y="-69"/>
      <point x="744" y="-52"/>
      <point x="744" y="-32" type="curve" smooth="yes"/>
      <point x="744" y="760" type="line"/>
      <point x="548" y="760" type="line"/>
      <point x="548" y="614" type="line" smooth="yes"/>
      <point x="548" y="565"/>
      <point x="553" y="525"/>
      <point x="558" y="488" type="curve"/>
      <point x="549" y="488" type="line"/>
      <point x="510" y="523"/>
      <point x="450" y="567"/>
      <point x="326" y="567" type="curve"/>
      <point x="146" y="567"/>
      <point x="28" y="471"/>
      <point x="28" y="280" type="curve" smooth="yes"/>
      <point x="28" y="90"/>
      <point x="144" y="-10"/>
      <point x="321" y="-10" type="curve"/>
      <point x="443" y="-10"/>
      <point x="507" y="29"/>
      <point x="547" y="65" type="curve"/>
      <point x="555" y="65" type="line"/>
      <point x="552" y="35"/>
      <point x="547" y="-1"/>
      <point x="547" y="-45" type="curve"/>
      <point x="547" y="-46" type="line" smooth="yes"/>
      <point x="547" y="-153"/>
      <point x="617" y="-240"/>
    </contour>
    <contour>
      <point x="390" y="142" type="curve"/>
      <point x="286" y="142"/>
      <point x="230" y="180"/>
      <point x="230" y="277" type="curve"/>
      <point x="230" y="364"/>
      <point x="283" y="410"/>
      <point x="390" y="410" type="curve"/>
      <point x="517" y="410"/>
      <point x="560" y="370"/>
      <point x="560" y="284" type="curve" smooth="yes"/>
      <point x="560" y="263" type="line" smooth="yes"/>
      <point x="560" y="181"/>
      <point x="508" y="142"/>
    </contour>
  </outline>
</glyph>
<glyph name="uni025E" format="2">
  <advance width="800"/>
  <unicode hex="025E"/>
  <anchor x="400" y="0" name="bottom"/>
  <anchor x="400" y="557" name="top"/>
  <outline>
    <contour>
      <point x="422" y="-10" type="curve"/>
      <point x="654" y="-10"/>
      <point x="781" y="51"/>
      <point x="781" y="164" type="curve" smooth="yes"/>
      <point x="781" y="250"/>
      <point x="694" y="276"/>
      <point x="611" y="284" type="curve"/>
      <point x="611" y="288" type="line"/>
      <point x="697" y="299"/>
      <point x="760" y="335"/>
      <point x="760" y="411" type="curve" smooth="yes"/>
      <point x="760" y="520"/>
      <point x="641" y="567"/>
      <point x="438" y="567" type="curve"/>
      <point x="188" y="567"/>
      <point x="29" y="472"/>
      <point x="29" y="280" type="curve"/>
      <point x="29" y="65"/>
      <point x="186" y="-10"/>
    </contour>
    <contour>
      <point x="436" y="141" type="curve" smooth="yes"/>
      <point x="300" y="141"/>
      <point x="221" y="185"/>
      <point x="221" y="288" type="curve" smooth="yes"/>
      <point x="221" y="381"/>
      <point x="292" y="424"/>
      <point x="437" y="424" type="curve" smooth="yes"/>
      <point x="538" y="424"/>
      <point x="575" y="405"/>
      <point x="575" y="379" type="curve" smooth="yes"/>
      <point x="575" y="350"/>
      <point x="515" y="345"/>
      <point x="427" y="345" type="curve" smooth="yes"/>
      <point x="371" y="345" type="line"/>
      <point x="371" y="215" type="line"/>
      <point x="437" y="215" type="line" smooth="yes"/>
      <point x="530" y="215"/>
      <point x="582" y="210"/>
      <point x="582" y="185" type="curve" smooth="yes"/>
      <point x="582" y="166"/>
      <point x="533" y="141"/>
    </contour>
  </outline>
</glyph>
<glyph name="uni025F" format="2">
  <advance width="800"/>
  <unicode hex="025F"/>
  <anchor x="418" y="-239" name="bottom"/>
  <anchor x="451" y="557" name="top"/>
  <outline>
    <contour>
      <point x="275" y="-240" type="curve"/>
      <point x="479" y="-240"/>
      <point x="554" y="-137"/>
      <point x="554" y="-30" type="curve"/>
      <point x="554" y="207" type="line"/>
      <point x="662" y="207" type="line"/>
      <point x="662" y="341" type="line"/>
      <point x="554" y="341" type="line"/>
      <point x="554" y="557" type="line"/>
      <point x="340" y="557" type="line"/>
      <point x="340" y="341" type="line"/>
      <point x="232" y="341" type="line"/>
      <point x="232" y="207" type="line"/>
      <point x="340" y="207" type="line"/>
      <point x="340" y="13" type="line" smooth="yes"/>
      <point x="340" y="-58"/>
      <point x="292" y="-68"/>
      <point x="236" y="-68" type="curve"/>
      <point x="195" y="-68"/>
      <point x="168" y="-65"/>
      <point x="136" y="-59" type="curve"/>
      <point x="136" y="-228" type="line"/>
      <point x="168" y="-235"/>
      <point x="224" y="-240"/>
    </contour>
  </outline>
</glyph>
<glyph name="uni0260" format="2">
  <advance width="800"/>
  <unicode hex="0260"/>
  <anchor x="400" y="-245" name="bottom"/>
  <anchor x="400" y="771" name="top"/>
  <outline>
    <contour>
      <point x="344" y="-245" type="curve" smooth="yes"/>
      <point x="625" y="-245"/>
      <point x="744" y="-150"/>
      <point x="744" y="34" type="curve" smooth="yes"/>
      <point x="744" y="565" type="line" smooth="yes"/>
      <point x="744" y="595"/>
      <point x="773" y="613"/>
      <point x="815" y="613" type="curve" smooth="yes"/>
      <point x="850" y="613"/>
      <point x="880" y="606"/>
      <point x="892" y="602" type="curve"/>
      <point x="892" y="752" type="line"/>
      <point x="872" y="758"/>
      <point x="825" y="771"/>
      <point x="770" y="771" type="curve" smooth="yes"/>
      <point x="631" y="771"/>
      <point x="553" y="708"/>
      <point x="553" y="582" type="curve" smooth="yes"/>
      <point x="553" y="564" type="line" smooth="yes"/>
      <point x="553" y="540"/>
      <point x="556" y="517"/>
      <point x="561" y="485" type="curve"/>
      <point x="551" y="485" type="line"/>
      <point x="495" y="540"/>
      <point x="426" y="567"/>
      <point x="331" y="567" type="curve" smooth="yes"/>
      <point x="149" y="567"/>
      <point x="28" y="472"/>
      <point x="28" y="277" type="curve" smooth="yes"/>
      <point x="28" y="94"/>
      <point x="141" y="-10"/>
      <point x="336" y="-10" type="curve" smooth="yes"/>
      <point x="435" y="-10"/>
      <point x="503" y="18"/>
      <point x="553" y="68" type="curve"/>
      <point x="559" y="68" type="line"/>
      <point x="556" y="57"/>
      <point x="555" y="37"/>
      <point x="555" y="15" type="curve" smooth="yes"/>
      <point x="555" y="1" type="line" smooth="yes"/>
      <point x="555" y="-69"/>
      <point x="489" y="-92"/>
      <point x="342" y="-92" type="curve" smooth="yes"/>
      <point x="261" y="-92"/>
      <point x="167" y="-82"/>
      <point x="72" y="-55" type="curve"/>
      <point x="72" y="-216" type="line"/>
      <point x="162" y="-241"/>
      <point x="254" y="-245"/>
    </contour>
    <contour>
      <point x="399" y="145" type="curve" smooth="yes"/>
      <point x="280" y="145"/>
      <point x="227" y="196"/>
      <point x="227" y="273" type="curve" smooth="yes"/>
      <point x="227" y="369"/>
      <point x="282" y="411"/>
      <point x="396" y="411" type="curve" smooth="yes"/>
      <point x="508" y="411"/>
      <point x="563" y="361"/>
      <point x="563" y="274" type="curve" smooth="yes"/>
      <point x="563" y="259" type="line" smooth="yes"/>
      <point x="563" y="189"/>
      <point x="507" y="145"/>
    </contour>
  </outline>
</glyph>
<glyph name="uni0266" format="2">
  <advance width="800"/>
  <unicode hex="0266"/>
  <anchor x="400" y="0" name="bottom"/>
  <anchor x="189" y="760" name="top"/>
  <outline>
    <contour>
      <point x="56" y="0" type="line"/>
      <point x="256" y="0" type="line"/>
      <point x="256" y="233" type="line" smooth="yes"/>
      <point x="256" y="377"/>
      <point x="314" y="411"/>
      <point x="417" y="411" type="curve" smooth="yes"/>
      <point x="512" y="411"/>
      <point x="552" y="368"/>
      <point x="552" y="294" type="curve" smooth="yes"/>
      <point x="552" y="0" type="line"/>
      <point x="752" y="0" type="line"/>
      <point x="752" y="361" type="line" smooth="yes"/>
      <point x="752" y="483"/>
      <point x="657" y="567"/>
      <point x="484" y="567" type="curve" smooth="yes"/>
      <point x="381" y="567"/>
      <point x="307" y="542"/>
      <point x="257" y="490" type="curve"/>
      <point x="248" y="490" type="line"/>
      <point x="251" y="522"/>
      <point x="256" y="551"/>
      <point x="256" y="570" type="curve" smooth="yes"/>
      <point x="256" y="559" type="line" smooth="yes"/>
      <point x="256" y="595"/>
      <point x="284" y="610"/>
      <point x="325" y="610" type="curve" smooth="yes"/>
      <point x="360" y="610"/>
      <point x="385" y="605"/>
      <point x="397" y="602" type="curve"/>
      <point x="397" y="750" type="line"/>
      <point x="377" y="757"/>
      <point x="330" y="763"/>
      <point x="281" y="763" type="curve" smooth="yes"/>
      <point x="133" y="763"/>
      <point x="56" y="708"/>
      <point x="56" y="560" type="curve" smooth="yes"/>
    </contour>
  </outline>
</glyph>
<glyph name="uni026B" format="2">
  <advance width="800"/>
  <unicode hex="026B"/>
  <anchor x="426" y="0" name="bottom"/>
  <anchor x="426" y="760" name="top"/>
  <anchor x="658" y="760" name="topright"/>
  <anchor x="398" y="391" name="center"/>
  <outline>
    <contour>
      <point x="125" y="273" type="curve"/>
      <point x="230" y="273" type="line"/>
      <point x="238" y="296"/>
      <point x="257" y="311"/>
      <point x="296" y="311" type="curve" smooth="yes"/>
      <point x="356" y="311"/>
      <point x="474" y="274"/>
      <point x="554" y="274" type="curve" smooth="yes"/>
      <point x="639" y="274"/>
      <point x="719" y="334"/>
      <point x="724" y="450" type="curve"/>
      <point x="620" y="450" type="line"/>
      <point x="607" y="415"/>
      <point x="589" y="409"/>
      <point x="552" y="409" type="curve" smooth="yes"/>
      <point x="478" y="409"/>
      <point x="371" y="447"/>
      <point x="291" y="447" type="curve" smooth="yes"/>
      <point x="208" y="447"/>
      <point x="129" y="392"/>
    </contour>
    <component base="l" xOffset="-30"/>
  </outline>
</glyph>
<glyph name="uni026D" format="2">
  <advance width="800"/>
  <unicode hex="026D"/>
  <anchor x="561" y="-240" name="bottom"/>
  <anchor x="420" y="760" name="top"/>
  <outline>
    <contour>
      <point x="591" y="-240" type="curve" smooth="yes"/>
      <point x="659" y="-240"/>
      <point x="711" y="-227"/>
      <point x="742" y="-216" type="curve"/>
      <point x="742" y="-60" type="line"/>
      <point x="718" y="-66"/>
      <point x="685" y="-72"/>
      <point x="644" y="-72" type="curve" smooth="yes"/>
      <point x="559" y="-72"/>
      <point x="523" y="-46"/>
      <point x="523" y="21" type="curve" smooth="yes"/>
      <point x="523" y="760" type="line"/>
      <point x="87" y="760" type="line"/>
      <point x="87" y="619" type="line"/>
      <point x="324" y="606" type="line"/>
      <point x="324" y="8" type="line" smooth="yes"/>
      <point x="324" y="-145"/>
      <point x="409" y="-240"/>
    </contour>
  </outline>
</glyph>
<glyph name="uni026E" format="2">
  <advance width="800"/>
  <unicode hex="026E"/>
  <anchor x="422" y="-240" name="bottom"/>
  <anchor x="147" y="760" name="top"/>
  <outline>
    <contour>
      <point x="422" y="-240" type="curve" smooth="yes"/>
      <point x="637" y="-240"/>
      <point x="787" y="-143"/>
      <point x="787" y="34" type="curve" smooth="yes"/>
      <point x="787" y="179"/>
      <point x="664" y="237"/>
      <point x="509" y="251" type="curve"/>
      <point x="754" y="440" type="line"/>
      <point x="754" y="557" type="line"/>
      <point x="232" y="557" type="line"/>
      <point x="232" y="760" type="line"/>
      <point x="44" y="760" type="line"/>
      <point x="44" y="0" type="line"/>
      <point x="232" y="0" type="line"/>
      <point x="232" y="408" type="line"/>
      <point x="534" y="408" type="line"/>
      <point x="307" y="248" type="line"/>
      <point x="307" y="121" type="line"/>
      <point x="374" y="121" type="line" smooth="yes"/>
      <point x="507" y="121"/>
      <point x="598" y="98"/>
      <point x="598" y="23" type="curve" smooth="yes"/>
      <point x="598" y="-48"/>
      <point x="518" y="-79"/>
      <point x="410" y="-79" type="curve" smooth="yes"/>
      <point x="313" y="-79"/>
      <point x="230" y="-61"/>
      <point x="173" y="-43" type="curve"/>
      <point x="173" y="-205" type="line"/>
      <point x="223" y="-217"/>
      <point x="305" y="-240"/>
    </contour>
  </outline>
</glyph>
<glyph name="uni0270" format="2">
  <advance width="800"/>
  <unicode hex="0270"/>
  <anchor x="699" y="-240" name="bottom"/>
  <anchor x="401" y="557" name="top"/>
  <outline>
    <contour>
      <point x="613" y="-240" type="line"/>
      <point x="783" y="-240" type="line"/>
      <point x="783" y="557" type="line"/>
      <point x="613" y="557" type="line"/>
      <point x="613" y="240" type="line" smooth="yes"/>
      <point x="613" y="186"/>
      <point x="602" y="145"/>
      <point x="543" y="145" type="curve" smooth="yes"/>
      <point x="489" y="145"/>
      <point x="482" y="183"/>
      <point x="482" y="255" type="curve" smooth="yes"/>
      <point x="482" y="557" type="line"/>
      <point x="316" y="557" type="line"/>
      <point x="316" y="241" type="line" smooth="yes"/>
      <point x="316" y="187"/>
      <point x="300" y="145"/>
      <point x="244" y="145" type="curve" smooth="yes"/>
      <point x="189" y="145"/>
      <point x="186" y="184"/>
      <point x="186" y="255" type="curve" smooth="yes"/>
      <point x="186" y="557" type="line"/>
      <point x="16" y="557" type="line"/>
      <point x="16" y="197" type="line" smooth="yes"/>
      <point x="16" y="82"/>
      <point x="39" y="-10"/>
      <point x="166" y="-10" type="curve" smooth="yes"/>
      <point x="249" y="-10"/>
      <point x="291" y="27"/>
      <point x="324" y="78" type="curve"/>
      <point x="330" y="78" type="line"/>
      <point x="346" y="23"/>
      <point x="382" y="-10"/>
      <point x="463" y="-10" type="curve" smooth="yes"/>
      <point x="537" y="-10"/>
      <point x="579" y="22"/>
      <point x="606" y="80" type="curve"/>
      <point x="613" y="80" type="line"/>
    </contour>
  </outline>
</glyph>
<glyph name="uni0274" format="2">
  <advance width="800"/>
  <unicode hex="0274"/>
  <anchor x="400" y="0" name="bottom"/>
  <anchor x="400" y="557" name="top"/>
  <outline>
    <contour>
      <point x="68" y="0" type="line"/>
      <point x="231" y="0" type="line"/>
      <point x="231" y="150" type="line" smooth="yes"/>
      <point x="231" y="207"/>
      <point x="229" y="266"/>
      <point x="225" y="322" type="curve"/>
      <point x="540" y="0" type="line"/>
      <point x="733" y="0" type="line"/>
      <point x="733" y="557" type="line"/>
      <point x="570" y="557" type="line"/>
      <point x="570" y="389" type="line" smooth="yes"/>
      <point x="570" y="334"/>
      <point x="574" y="284"/>
      <point x="578" y="228" type="curve"/>
      <point x="259" y="557" type="line"/>
      <point x="68" y="557" type="line"/>
    </contour>
  </outline>
</glyph>
<glyph name="uni027B" format="2">
  <advance width="800"/>
  <unicode hex="027B"/>
  <anchor x="340" y="-240" name="bottom"/>
  <anchor x="464" y="557" name="top"/>
  <outline>
    <contour>
      <point x="586" y="-240" type="curve"/>
      <point x="643" y="-240"/>
      <point x="694" y="-235"/>
      <point x="724" y="-222" type="curve"/>
      <point x="724" y="-70" type="line"/>
      <point x="707" y="-75"/>
      <point x="680" y="-80"/>
      <point x="644" y="-80" type="curve" smooth="yes"/>
      <point x="588" y="-80"/>
      <point x="563" y="-56"/>
      <point x="563" y="-22" type="curve" smooth="yes"/>
      <point x="563" y="557" type="line"/>
      <point x="364" y="557" type="line"/>
      <point x="364" y="283" type="line" smooth="yes"/>
      <point x="364" y="185"/>
      <point x="275" y="176"/>
      <point x="157" y="176" type="curve" smooth="yes"/>
      <point x="124" y="176"/>
      <point x="87" y="187"/>
      <point x="70" y="190" type="curve"/>
      <point x="29" y="7" type="line"/>
      <point x="51" y="-1"/>
      <point x="100" y="-10"/>
      <point x="142" y="-10" type="curve"/>
      <point x="261" y="-10"/>
      <point x="323" y="34"/>
      <point x="366" y="78" type="curve"/>
      <point x="373" y="78" type="line"/>
      <point x="368" y="47"/>
      <point x="364" y="26"/>
      <point x="364" y="-47" type="curve"/>
      <point x="364" y="-35" type="line" smooth="yes"/>
      <point x="364" y="-149"/>
      <point x="436" y="-240"/>
    </contour>
  </outline>
</glyph>
<glyph name="rlongleg" format="2">
  <advance width="800"/>
  <unicode hex="027C"/>
  <anchor x="353" y="-240" name="bottom"/>
  <anchor x="463" y="557" name="top"/>
  <outline>
    <contour>
      <point x="252" y="-240" type="line"/>
      <point x="439" y="-240" type="line"/>
      <point x="439" y="241" type="line" smooth="yes"/>
      <point x="439" y="345"/>
      <point x="519" y="382"/>
      <point x="633" y="382" type="curve" smooth="yes"/>
      <point x="669" y="382"/>
      <point x="720" y="379"/>
      <point x="753" y="369" type="curve"/>
      <point x="801" y="553" type="line"/>
      <point x="741" y="569"/>
      <point x="690" y="567"/>
      <point x="648" y="567" type="curve" smooth="yes"/>
      <point x="542" y="567"/>
      <point x="474" y="523"/>
      <point x="433" y="469" type="curve"/>
      <point x="424" y="469" type="line"/>
      <point x="395" y="557" type="line"/>
      <point x="61" y="557" type="line"/>
      <point x="61" y="417" type="line"/>
      <point x="252" y="402" type="line"/>
    </contour>
  </outline>
</glyph>
<glyph name="uni027D" format="2">
  <advance width="800"/>
  <unicode hex="027D"/>
  <anchor x="468" y="-240" name="bottom"/>
  <anchor x="446" y="557" name="top"/>
  <outline>
    <contour>
      <point x="484" y="-240" type="curve" smooth="yes"/>
      <point x="538" y="-240"/>
      <point x="576" y="-231"/>
      <point x="599" y="-226" type="curve"/>
      <point x="599" y="-69" type="line"/>
      <point x="581" y="-72"/>
      <point x="555" y="-76"/>
      <point x="525" y="-76" type="curve" smooth="yes"/>
      <point x="467" y="-76"/>
      <point x="439" y="-68"/>
      <point x="439" y="-34" type="curve" smooth="yes"/>
      <point x="439" y="241" type="line" smooth="yes"/>
      <point x="439" y="345"/>
      <point x="519" y="382"/>
      <point x="633" y="382" type="curve" smooth="yes"/>
      <point x="669" y="382"/>
      <point x="720" y="379"/>
      <point x="753" y="369" type="curve"/>
      <point x="801" y="553" type="line"/>
      <point x="741" y="569"/>
      <point x="690" y="567"/>
      <point x="648" y="567" type="curve" smooth="yes"/>
      <point x="542" y="567"/>
      <point x="474" y="523"/>
      <point x="433" y="469" type="curve"/>
      <point x="424" y="469" type="line"/>
      <point x="395" y="557" type="line"/>
      <point x="61" y="557" type="line"/>
      <point x="61" y="417" type="line"/>
      <point x="252" y="402" type="line"/>
      <point x="252" y="-45" type="line" smooth="yes"/>
      <point x="252" y="-149"/>
      <point x="314" y="-240"/>
    </contour>
  </outline>
</glyph>
<glyph name="eshcurl" format="2">
  <advance width="800"/>
  <unicode hex="0286"/>
  <anchor x="292" y="-240" name="bottom"/>
  <anchor x="572" y="771" name="top"/>
  <outline>
    <contour>
      <point x="266" y="-240" type="curve" smooth="yes"/>
      <point x="413" y="-240"/>
      <point x="493" y="-161"/>
      <point x="504" y="-82" type="curve"/>
      <point x="604" y="-82" type="line"/>
      <point x="604" y="17" type="line"/>
      <point x="504" y="17" type="line"/>
      <point x="504" y="532" type="line" smooth="yes"/>
      <point x="504" y="574"/>
      <point x="546" y="601"/>
      <point x="628" y="601" type="curve" smooth="yes"/>
      <point x="665" y="601"/>
      <point x="699" y="596"/>
      <point x="717" y="593" type="curve"/>
      <point x="717" y="756" type="line"/>
      <point x="691" y="763"/>
      <point x="646" y="771"/>
      <point x="588" y="771" type="curve" smooth="yes"/>
      <point x="414" y="771"/>
      <point x="307" y="678"/>
      <point x="307" y="541" type="curve" smooth="yes"/>
      <point x="307" y="17" type="line"/>
      <point x="266" y="17" type="line" smooth="yes"/>
      <point x="108" y="17"/>
      <point x="44" y="-36"/>
      <point x="44" y="-104" type="curve" smooth="yes"/>
      <point x="44" y="-174"/>
      <point x="120" y="-240"/>
    </contour>
    <contour>
      <point x="246" y="-134" type="curve" smooth="yes"/>
      <point x="208" y="-134"/>
      <point x="192" y="-126"/>
      <point x="192" y="-111" type="curve" smooth="yes"/>
      <point x="192" y="-95"/>
      <point x="222" y="-82"/>
      <point x="270" y="-82" type="curve" smooth="yes"/>
      <point x="307" y="-82" type="line"/>
      <point x="307" y="-108" type="line" smooth="yes"/>
      <point x="307" y="-119"/>
      <point x="285" y="-134"/>
    </contour>
  </outline>
</glyph>
<glyph name="uni0289" format="2">
  <advance width="800"/>
  <unicode hex="0289"/>
  <anchor x="400" y="0" name="bottom"/>
  <anchor x="400" y="557" name="top"/>
  <anchor x="713" y="10" name="ogonek"/>
  <anchor x="771" y="557" name="topright"/>
  <outline>
    <contour>
      <point x="-27" y="227" type="line"/>
      <point x="828" y="227" type="line"/>
      <point x="828" y="363" type="line"/>
      <point x="-27" y="363" type="line"/>
    </contour>
    <component base="u" xOffset="-30"/>
  </outline>
</glyph>
<glyph name="uni028B" format="2">
  <advance width="800"/>
  <unicode hex="028B"/>
  <anchor x="400" y="0" name="bottom"/>
  <anchor x="400" y="557" name="top"/>
  <outline>
    <contour>
      <point x="397" y="-10" type="curve"/>
      <point x="661" y="-10"/>
      <point x="752" y="128"/>
      <point x="752" y="237" type="curve" smooth="yes"/>
      <point x="752" y="366" type="line" smooth="yes"/>
      <point x="752" y="462"/>
      <point x="668" y="563"/>
      <point x="512" y="563" type="curve"/>
      <point x="471" y="563"/>
      <point x="431" y="557"/>
      <point x="405" y="549" type="curve"/>
      <point x="405" y="391" type="line"/>
      <point x="422" y="393"/>
      <point x="442" y="394"/>
      <point x="466" y="394" type="curve" smooth="yes"/>
      <point x="528" y="394"/>
      <point x="555" y="373"/>
      <point x="555" y="352" type="curve" smooth="yes"/>
      <point x="555" y="228" type="line" smooth="yes"/>
      <point x="555" y="184"/>
      <point x="500" y="162"/>
      <point x="405" y="162" type="curve"/>
      <point x="298" y="162"/>
      <point x="244" y="184"/>
      <point x="244" y="228" type="curve" smooth="yes"/>
      <point x="244" y="557" type="line"/>
      <point x="46" y="557" type="line"/>
      <point x="46" y="237" type="line" smooth="yes"/>
      <point x="46" y="130"/>
      <point x="128" y="-10"/>
    </contour>
  </outline>
</glyph>
<glyph name="uni028F" format="2">
  <advance width="800"/>
  <unicode hex="028F"/>
  <anchor x="400" y="0" name="bottom"/>
  <anchor x="400" y="557" name="top"/>
  <outline>
    <contour>
      <point x="315" y="0" type="line"/>
      <point x="488" y="0" type="line"/>
      <point x="488" y="193" type="line"/>
      <point x="786" y="557" type="line"/>
      <point x="583" y="557" type="line"/>
      <point x="403" y="381" type="line"/>
      <point x="218" y="557" type="line"/>
      <point x="14" y="557" type="line"/>
      <point x="315" y="193" type="line"/>
    </contour>
  </outline>
</glyph>
<glyph name="uni0291" format="2">
  <advance width="800"/>
  <unicode hex="0291"/>
  <anchor x="352" y="-103" name="bottom"/>
  <anchor x="352" y="557" name="top"/>
  <outline>
    <contour>
      <point x="380" y="-88" type="line"/>
      <point x="397" y="-54"/>
      <point x="413" y="-30"/>
      <point x="430" y="0" type="curve"/>
      <point x="553" y="0" type="line" smooth="yes"/>
      <point x="688" y="0"/>
      <point x="800" y="36"/>
      <point x="800" y="168" type="curve" smooth="yes"/>
      <point x="800" y="250"/>
      <point x="736" y="300"/>
      <point x="627" y="300" type="curve" smooth="yes"/>
      <point x="506" y="300"/>
      <point x="427" y="235"/>
      <point x="358" y="155" type="curve"/>
      <point x="265" y="155" type="line"/>
      <point x="622" y="437" type="line"/>
      <point x="622" y="557" type="line"/>
      <point x="54" y="557" type="line"/>
      <point x="54" y="402" type="line"/>
      <point x="397" y="402" type="line"/>
      <point x="35" y="126" type="line"/>
      <point x="35" y="0" type="line"/>
      <point x="297" y="0" type="line"/>
      <point x="286" y="-14"/>
      <point x="275" y="-34"/>
      <point x="263" y="-53" type="curve"/>
    </contour>
    <contour>
      <point x="499" y="155" type="line"/>
      <point x="529" y="175"/>
      <point x="566" y="200"/>
      <point x="608" y="200" type="curve" smooth="yes"/>
      <point x="642" y="200"/>
      <point x="657" y="190"/>
      <point x="657" y="180" type="curve" smooth="yes"/>
      <point x="657" y="159"/>
      <point x="629" y="155"/>
      <point x="573" y="155" type="curve"/>
    </contour>
  </outline>
</glyph>
<glyph name="cstretched" format="2">
  <advance width="800"/>
  <unicode hex="0297"/>
  <anchor x="461" y="-240" name="bottom"/>
  <anchor x="448" y="557" name="top"/>
  <outline>
    <contour>
      <point x="467" y="-240" type="curve" smooth="yes"/>
      <point x="561" y="-240"/>
      <point x="710" y="-227"/>
      <point x="710" y="-188" type="curve" smooth="yes"/>
      <point x="710" y="-17" type="line" smooth="yes"/>
      <point x="710" y="-58"/>
      <point x="585" y="-80"/>
      <point x="500" y="-80" type="curve" smooth="yes"/>
      <point x="324" y="-80"/>
      <point x="262" y="10"/>
      <point x="262" y="151" type="curve" smooth="yes"/>
      <point x="262" y="300"/>
      <point x="323" y="408"/>
      <point x="501" y="408" type="curve" smooth="yes"/>
      <point x="563" y="408"/>
      <point x="634" y="377"/>
      <point x="644" y="392" type="curve" smooth="yes"/>
      <point x="699" y="528" type="line" smooth="yes"/>
      <point x="702" y="538"/>
      <point x="592" y="567"/>
      <point x="482" y="567" type="curve" smooth="yes"/>
      <point x="225" y="567"/>
      <point x="63" y="429"/>
      <point x="63" y="149" type="curve" smooth="yes"/>
      <point x="63" y="-116"/>
      <point x="193" y="-240"/>
    </contour>
  </outline>
</glyph>
<glyph name="uni029F" format="2">
  <advance width="800"/>
  <unicode hex="029F"/>
  <anchor x="445" y="0" name="bottom"/>
  <anchor x="266" y="557" name="top"/>
  <outline>
    <contour>
      <point x="176" y="0" type="line"/>
      <point x="702" y="0" type="line"/>
      <point x="702" y="143" type="line"/>
      <point x="354" y="143" type="line"/>
      <point x="354" y="557" type="line"/>
      <point x="176" y="557" type="line"/>
    </contour>
  </outline>
</glyph>
<glyph name="tslig" format="2">
  <advance width="800"/>
  <unicode hex="02A6"/>
  <anchor x="400" y="0" name="bottom"/>
  <anchor x="400" y="664" name="top"/>
  <outline>
    <contour>
      <point x="303" y="0" type="curve" smooth="yes"/>
      <point x="520" y="0" type="line" smooth="yes"/>
      <point x="706" y="0"/>
      <point x="791" y="66"/>
      <point x="791" y="178" type="curve" smooth="yes"/>
      <point x="791" y="263"/>
      <point x="723" y="305"/>
      <point x="629" y="339" type="curve" smooth="yes"/>
      <point x="522" y="378"/>
      <point x="495" y="386"/>
      <point x="495" y="406" type="curve" smooth="yes"/>
      <point x="495" y="424"/>
      <point x="524" y="441"/>
      <point x="588" y="441" type="curve" smooth="yes"/>
      <point x="638" y="441"/>
      <point x="687" y="431"/>
      <point x="735" y="412" type="curve"/>
      <point x="784" y="528" type="line"/>
      <point x="721" y="548"/>
      <point x="657" y="559"/>
      <point x="577" y="559" type="curve" smooth="yes"/>
      <point x="532" y="559"/>
      <point x="498" y="555"/>
      <point x="469" y="549" type="curve"/>
      <point x="234" y="549" type="line"/>
      <point x="234" y="664" type="line"/>
      <point x="125" y="664" type="line"/>
      <point x="71" y="548" type="line"/>
      <point x="-19" y="495" type="line"/>
      <point x="-19" y="428" type="line"/>
      <point x="58" y="428" type="line"/>
      <point x="58" y="184" type="line" smooth="yes"/>
      <point x="58" y="46"/>
      <point x="152" y="0"/>
    </contour>
    <contour>
      <point x="354" y="121" type="line" smooth="yes"/>
      <point x="266" y="121"/>
      <point x="234" y="140"/>
      <point x="234" y="179" type="curve" smooth="yes"/>
      <point x="234" y="428" type="line"/>
      <point x="340" y="428" type="line"/>
      <point x="331" y="420"/>
      <point x="324" y="406"/>
      <point x="324" y="377" type="curve" smooth="yes"/>
      <point x="324" y="304"/>
      <point x="386" y="276"/>
      <point x="484" y="241" type="curve" smooth="yes"/>
      <point x="575" y="209"/>
      <point x="620" y="193"/>
      <point x="620" y="161" type="curve" smooth="yes"/>
      <point x="620" y="138"/>
      <point x="584" y="121"/>
      <point x="513" y="121" type="curve" smooth="yes"/>
    </contour>
  </outline>
</glyph>
<glyph name="uni02AA" format="2">
  <advance width="800"/>
  <unicode hex="02AA"/>
  <anchor x="400" y="0" name="bottom"/>
  <anchor x="400" y="761" name="top"/>
  <outline>
    <contour>
      <point x="486" y="-10" type="curve" smooth="yes"/>
      <point x="688" y="-10"/>
      <point x="787" y="84"/>
      <point x="787" y="178" type="curve" smooth="yes"/>
      <point x="787" y="257"/>
      <point x="713" y="293"/>
      <point x="611" y="327" type="curve" smooth="yes"/>
      <point x="529" y="354"/>
      <point x="482" y="363"/>
      <point x="482" y="390" type="curve" smooth="yes"/>
      <point x="482" y="409"/>
      <point x="517" y="422"/>
      <point x="578" y="422" type="curve" smooth="yes"/>
      <point x="628" y="422"/>
      <point x="678" y="411"/>
      <point x="719" y="400" type="curve"/>
      <point x="777" y="526" type="line"/>
      <point x="717" y="543"/>
      <point x="647" y="561"/>
      <point x="562" y="561" type="curve" smooth="yes"/>
      <point x="396" y="561"/>
      <point x="296" y="490"/>
      <point x="296" y="381" type="curve" smooth="yes"/>
      <point x="296" y="293"/>
      <point x="374" y="260"/>
      <point x="476" y="223" type="curve" smooth="yes"/>
      <point x="566" y="190"/>
      <point x="603" y="180"/>
      <point x="603" y="160" type="curve" smooth="yes"/>
      <point x="603" y="136"/>
      <point x="558" y="132"/>
      <point x="475" y="132" type="curve" smooth="yes"/>
      <point x="399" y="132"/>
      <point x="316" y="148"/>
      <point x="231" y="171" type="curve"/>
      <point x="231" y="761" type="line"/>
      <point x="53" y="761" type="line"/>
      <point x="53" y="0" type="line"/>
      <point x="231" y="0" type="line"/>
      <point x="231" y="30" type="line"/>
      <point x="302" y="11"/>
      <point x="388" y="-10"/>
    </contour>
  </outline>
</glyph>
<glyph name="uni02AC" format="2">
  <advance width="800"/>
  <unicode hex="02AC"/>
  <anchor x="400" y="0" name="bottom"/>
  <anchor x="400" y="714" name="top"/>
  <outline>
    <contour>
      <point x="156" y="378" type="line"/>
      <point x="310" y="378" type="line"/>
      <point x="398" y="594" type="line"/>
      <point x="483" y="378" type="line"/>
      <point x="640" y="378" type="line"/>
      <point x="787" y="714" type="line"/>
      <point x="648" y="714" type="line"/>
      <point x="557" y="521" type="line"/>
      <point x="475" y="714" type="line"/>
      <point x="326" y="714" type="line"/>
      <point x="236" y="522" type="line"/>
      <point x="152" y="714" type="line"/>
      <point x="13" y="714" type="line"/>
    </contour>
    <contour>
      <point x="156" y="0" type="line"/>
      <point x="310" y="0" type="line"/>
      <point x="398" y="219" type="line"/>
      <point x="483" y="0" type="line"/>
      <point x="640" y="0" type="line"/>
      <point x="787" y="336" type="line"/>
      <point x="648" y="336" type="line"/>
      <point x="557" y="143" type="line"/>
      <point x="475" y="336" type="line"/>
      <point x="326" y="336" type="line"/>
      <point x="236" y="144" type="line"/>
      <point x="152" y="336" type="line"/>
      <point x="13" y="336" type="line"/>
    </contour>
  </outline>
</glyph>
<glyph name="uni02AD" format="2">
  <advance width="800"/>
  <unicode hex="02AD"/>
  <anchor x="400" y="0" name="bottom"/>
  <anchor x="400" y="714" name="top"/>
  <outline>
    <contour>
      <point x="78" y="457" type="line"/>
      <point x="246" y="457" type="line"/>
      <point x="246" y="571" type="line"/>
      <point x="554" y="571" type="line"/>
      <point x="554" y="457" type="line"/>
      <point x="721" y="457" type="line"/>
      <point x="721" y="714" type="line"/>
      <point x="78" y="714" type="line"/>
    </contour>
    <contour>
      <point x="78" y="0" type="line"/>
      <point x="246" y="0" type="line"/>
      <point x="246" y="114" type="line"/>
      <point x="554" y="114" type="line"/>
      <point x="554" y="0" type="line"/>
      <point x="721" y="0" type="line"/>
      <point x="721" y="257" type="line"/>
      <point x="78" y="257" type="line"/>
    </contour>
  </outline>
</glyph>
<glyph name="uni02AE" format="2">
  <advance width="800"/>
  <unicode hex="02AE"/>
  <anchor x="394" y="-240" name="bottom"/>
  <anchor x="394" y="557" name="top"/>
  <outline>
    <contour>
      <point x="553" y="-212" type="line"/>
      <point x="752" y="-212" type="line"/>
      <point x="752" y="548" type="line"/>
      <point x="553" y="548" type="line"/>
      <point x="553" y="315" type="line" smooth="yes"/>
      <point x="553" y="172"/>
      <point x="494" y="137"/>
      <point x="392" y="137" type="curve" smooth="yes"/>
      <point x="296" y="137"/>
      <point x="256" y="180"/>
      <point x="256" y="254" type="curve" smooth="yes"/>
      <point x="256" y="365" type="line" smooth="yes"/>
      <point x="256" y="498"/>
      <point x="189" y="566"/>
      <point x="46" y="566" type="curve" smooth="yes"/>
      <point x="-1" y="566"/>
      <point x="-39" y="556"/>
      <point x="-59" y="552" type="curve"/>
      <point x="-59" y="394" type="line"/>
      <point x="-45" y="397"/>
      <point x="-30" y="400"/>
      <point x="-7" y="400" type="curve" smooth="yes"/>
      <point x="34" y="400"/>
      <point x="56" y="382"/>
      <point x="56" y="349" type="curve" smooth="yes"/>
      <point x="56" y="187" type="line" smooth="yes"/>
      <point x="56" y="65"/>
      <point x="151" y="-19"/>
      <point x="324" y="-19" type="curve" smooth="yes"/>
      <point x="428" y="-19"/>
      <point x="502" y="7"/>
      <point x="551" y="58" type="curve"/>
      <point x="563" y="58" type="line"/>
      <point x="559" y="-3"/>
      <point x="553" y="-57"/>
      <point x="553" y="-119" type="curve" smooth="yes"/>
    </contour>
  </outline>
</glyph>
<glyph name="uni02BE" format="2">
  <advance width="800"/>
  <unicode hex="02BE"/>
  <outline>
    <contour>
      <point x="309" y="575" type="line"/>
      <point x="413" y="575"/>
      <point x="492" y="623"/>
      <point x="492" y="701" type="curve"/>
      <point x="492" y="775"/>
      <point x="412" y="823"/>
      <point x="309" y="823" type="curve"/>
      <point x="309" y="731" type="line"/>
      <point x="348" y="731"/>
      <point x="377" y="718"/>
      <point x="377" y="700" type="curve"/>
      <point x="377" y="681"/>
      <point x="349" y="668"/>
      <point x="309" y="668" type="curve"/>
    </contour>
  </outline>
</glyph>
<glyph name="uni02BF" format="2">
  <advance width="800"/>
  <unicode hex="02BF"/>
  <outline>
    <contour>
      <point x="487" y="575" type="curve"/>
      <point x="487" y="669" type="line"/>
      <point x="452" y="669"/>
      <point x="425" y="681"/>
      <point x="425" y="698" type="curve" smooth="yes"/>
      <point x="425" y="716"/>
      <point x="452" y="729"/>
      <point x="487" y="729" type="curve"/>
      <point x="487" y="823" type="line"/>
      <point x="389" y="823"/>
      <point x="313" y="775"/>
      <point x="313" y="701" type="curve" smooth="yes"/>
      <point x="313" y="623"/>
      <point x="388" y="575"/>
    </contour>
  </outline>
</glyph>
<glyph name="uni02C0" format="2">
  <advance width="800"/>
  <unicode hex="02C0"/>
  <outline>
    <contour>
      <point x="291" y="446" type="line"/>
      <point x="435" y="446" type="line"/>
      <point x="435" y="494" type="line"/>
      <point x="556" y="517"/>
      <point x="604" y="564"/>
      <point x="604" y="624" type="curve"/>
      <point x="604" y="703"/>
      <point x="534" y="766"/>
      <point x="380" y="766" type="curve"/>
      <point x="304" y="766"/>
      <point x="242" y="756"/>
      <point x="196" y="737" type="curve"/>
      <point x="243" y="630" type="line"/>
      <point x="280" y="644"/>
      <point x="322" y="655"/>
      <point x="364" y="655" type="curve"/>
      <point x="410" y="655"/>
      <point x="439" y="644"/>
      <point x="439" y="619" type="curve"/>
      <point x="439" y="596"/>
      <point x="389" y="577"/>
      <point x="291" y="564" type="curve"/>
    </contour>
  </outline>
</glyph>
<glyph name="uni02C4" format="2">
  <advance width="800"/>
  <unicode hex="02C4"/>
  <outline>
    <contour>
      <point x="212" y="539" type="line"/>
      <point x="295" y="539" type="line"/>
      <point x="400" y="682" type="line"/>
      <point x="505" y="539" type="line"/>
      <point x="589" y="539" type="line"/>
      <point x="428" y="788" type="line"/>
      <point x="372" y="788" type="line"/>
    </contour>
  </outline>
</glyph>
<glyph name="circumflex" format="2">
  <advance width="800"/>
  <unicode hex="02C6"/>
  <outline>
    <contour>
      <point x="136" y="606" type="line"/>
      <point x="266" y="606" type="line"/>
      <point x="309" y="623"/>
      <point x="350" y="643"/>
      <point x="399" y="674" type="curve"/>
      <point x="446" y="644"/>
      <point x="490" y="623"/>
      <point x="534" y="606" type="curve"/>
      <point x="664" y="606" type="line"/>
      <point x="664" y="621" type="line"/>
      <point x="610" y="666"/>
      <point x="534" y="721"/>
      <point x="497" y="766" type="curve"/>
      <point x="302" y="766" type="line"/>
      <point x="267" y="727"/>
      <point x="185" y="655"/>
      <point x="136" y="621" type="curve"/>
    </contour>
  </outline>
</glyph>
<glyph name="caron" format="2">
  <advance width="800"/>
  <unicode hex="02C7"/>
  <anchor x="398" y="528" name="_top"/>
  <anchor x="398" y="763" name="top"/>
  <outline>
    <contour>
      <point x="302" y="606" type="curve"/>
      <point x="497" y="606" type="line"/>
      <point x="533" y="649"/>
      <point x="615" y="716"/>
      <point x="664" y="752" type="curve"/>
      <point x="664" y="766" type="line"/>
      <point x="534" y="766" type="line"/>
      <point x="490" y="749"/>
      <point x="446" y="728"/>
      <point x="399" y="697" type="curve"/>
      <point x="353" y="727"/>
      <point x="310" y="748"/>
      <point x="266" y="766" type="curve"/>
      <point x="136" y="766" type="line"/>
      <point x="136" y="752" type="line"/>
      <point x="184" y="719"/>
      <point x="267" y="646"/>
    </contour>
  </outline>
</glyph>
<glyph name="breve" format="2">
  <advance width="800"/>
  <unicode hex="02D8"/>
  <anchor x="396" y="557" name="_top"/>
  <anchor x="400" y="765" name="top"/>
  <outline>
    <contour>
      <point x="397" y="606" type="curve" smooth="yes"/>
      <point x="547" y="606"/>
      <point x="637" y="674"/>
      <point x="642" y="797" type="curve"/>
      <point x="522" y="797" type="line"/>
      <point x="509" y="748"/>
      <point x="458" y="732"/>
      <point x="398" y="732" type="curve" smooth="yes"/>
      <point x="342" y="732"/>
      <point x="290" y="747"/>
      <point x="275" y="797" type="curve"/>
      <point x="158" y="797" type="line"/>
      <point x="162" y="674"/>
      <point x="249" y="606"/>
    </contour>
  </outline>
</glyph>
<glyph name="dotaccent" format="2">
  <advance width="800"/>
  <unicode hex="02D9"/>
  <outline>
    <contour>
      <point x="401" y="594" type="curve" smooth="yes"/>
      <point x="481" y="594"/>
      <point x="525" y="631"/>
      <point x="525" y="689" type="curve" smooth="yes"/>
      <point x="525" y="747"/>
      <point x="481" y="781"/>
      <point x="401" y="781" type="curve" smooth="yes"/>
      <point x="321" y="781"/>
      <point x="276" y="747"/>
      <point x="276" y="689" type="curve" smooth="yes"/>
      <point x="276" y="626"/>
      <point x="324" y="594"/>
    </contour>
  </outline>
</glyph>
<glyph name="tilde" format="2">
  <advance width="800"/>
  <unicode hex="02DC"/>
  <outline>
    <contour>
      <point x="125" y="604" type="curve"/>
      <point x="232" y="604" type="line"/>
      <point x="242" y="644"/>
      <point x="258" y="649"/>
      <point x="293" y="649" type="curve" smooth="yes"/>
      <point x="356" y="649"/>
      <point x="435" y="605"/>
      <point x="517" y="605" type="curve" smooth="yes"/>
      <point x="606" y="605"/>
      <point x="667" y="658"/>
      <point x="675" y="780" type="curve"/>
      <point x="568" y="780" type="line"/>
      <point x="558" y="752"/>
      <point x="546" y="734"/>
      <point x="503" y="734" type="curve" smooth="yes"/>
      <point x="439" y="734"/>
      <point x="367" y="779"/>
      <point x="283" y="779" type="curve" smooth="yes"/>
      <point x="183" y="779"/>
      <point x="133" y="705"/>
    </contour>
  </outline>
</glyph>
<glyph name="hungarumlaut" format="2">
  <advance width="800"/>
  <unicode hex="02DD"/>
  <outline>
    <contour>
      <point x="401" y="606" type="line"/>
      <point x="515" y="606" type="line"/>
      <point x="583" y="644"/>
      <point x="690" y="720"/>
      <point x="727" y="756" type="curve"/>
      <point x="727" y="766" type="line"/>
      <point x="533" y="766" type="line"/>
      <point x="505" y="733"/>
      <point x="454" y="679"/>
      <point x="401" y="620" type="curve"/>
    </contour>
    <contour>
      <point x="128" y="606" type="line"/>
      <point x="239" y="606" type="line"/>
      <point x="311" y="647"/>
      <point x="416" y="719"/>
      <point x="453" y="756" type="curve"/>
      <point x="453" y="766" type="line"/>
      <point x="259" y="766" type="line"/>
      <point x="229" y="734"/>
      <point x="181" y="680"/>
      <point x="128" y="620" type="curve"/>
    </contour>
  </outline>
</glyph>
<glyph name="rhotichookmod" format="2">
  <advance width="800"/>
  <unicode hex="02DE"/>
  <outline>
    <contour>
      <point x="332" y="186" type="curve" smooth="yes"/>
      <point x="401" y="186"/>
      <point x="454" y="205"/>
      <point x="499" y="230" type="curve"/>
      <point x="452" y="340" type="line"/>
      <point x="423" y="328"/>
      <point x="391" y="316"/>
      <point x="353" y="316" type="curve" smooth="yes"/>
      <point x="306" y="316"/>
      <point x="290" y="343"/>
      <point x="262" y="406" type="curve" smooth="yes"/>
      <point x="244" y="448" type="line"/>
      <point x="-217" y="348" type="line"/>
      <point x="-181" y="228" type="line"/>
      <point x="138" y="294" type="line"/>
      <point x="176" y="217"/>
      <point x="243" y="186"/>
    </contour>
  </outline>
</glyph>
<glyph name="uni02E5" format="2">
  <advance width="800"/>
  <unicode hex="02E5"/>
  <outline>
    <contour>
      <point x="494" y="0" type="line"/>
      <point x="588" y="0" type="line"/>
      <point x="588" y="688" type="line"/>
      <point x="213" y="688" type="line"/>
      <point x="213" y="622" type="line"/>
      <point x="494" y="622" type="line"/>
    </contour>
  </outline>
</glyph>
<glyph name="uni02EF" format="2">
  <advance width="800"/>
  <unicode hex="02EF"/>
  <outline>
    <contour>
      <point x="366" y="-240" type="line"/>
      <point x="436" y="-240" type="line"/>
      <point x="640" y="-18" type="line"/>
      <point x="528" y="-18" type="line"/>
      <point x="400" y="-152" type="line"/>
      <point x="274" y="-18" type="line"/>
      <point x="161" y="-18" type="line"/>
    </contour>
  </outline>
</glyph>
<glyph name="uni02F0" format="2">
  <advance width="800"/>
  <unicode hex="02F0"/>
  <outline>
    <contour>
      <point x="161" y="-240" type="line"/>
      <point x="273" y="-240" type="line"/>
      <point x="400" y="-108" type="line"/>
      <point x="526" y="-240" type="line"/>
      <point x="640" y="-240" type="line"/>
      <point x="435" y="-20" type="line"/>
      <point x="364" y="-20" type="line"/>
    </contour>
  </outline>
</glyph>
<glyph name="uni02FD" format="2">
  <advance width="800"/>
  <unicode hex="02FD"/>
  <outline>
    <contour>
      <point x="81" y="-208" type="line"/>
      <point x="720" y="-208" type="line"/>
      <point x="720" y="-43" type="line"/>
      <point x="638" y="-43" type="line"/>
      <point x="638" y="-142" type="line"/>
      <point x="161" y="-142" type="line"/>
      <point x="161" y="-43" type="line"/>
      <point x="81" y="-43" type="line"/>
    </contour>
  </outline>
</glyph>
<glyph name="uni02FF" format="2">
  <advance width="800"/>
  <unicode hex="02FF"/>
  <outline>
    <contour>
      <point x="435" y="-240" type="line"/>
      <point x="435" y="-181" type="line"/>
      <point x="246" y="-112" type="line"/>
      <point x="726" y="-112" type="line"/>
      <point x="726" y="-52" type="line"/>
      <point x="246" y="-52" type="line"/>
      <point x="435" y="16" type="line"/>
      <point x="435" y="75" type="line"/>
      <point x="75" y="-58" type="line"/>
      <point x="75" y="-107" type="line"/>
    </contour>
  </outline>
</glyph>
<glyph name="dblgravecomb" format="2">
  <unicode hex="030F"/>
  <anchor x="0" y="557" name="_top"/>
  <anchor x="0" y="766" name="top"/>
  <outline>
    <contour>
      <point x="151" y="606" type="curve"/>
      <point x="264" y="606" type="line"/>
      <point x="264" y="620" type="line"/>
      <point x="224" y="658"/>
      <point x="171" y="721"/>
      <point x="141" y="766" type="curve"/>
      <point x="-56" y="766" type="line"/>
      <point x="-56" y="756" type="line"/>
      <point x="-26" y="721"/>
      <point x="87" y="641"/>
    </contour>
    <contour>
      <point x="-127" y="606" type="curve"/>
      <point x="-14" y="606" type="line"/>
      <point x="-14" y="620" type="line"/>
      <point x="-54" y="658"/>
      <point x="-106" y="721"/>
      <point x="-136" y="766" type="curve"/>
      <point x="-333" y="766" type="line"/>
      <point x="-333" y="756" type="line"/>
      <point x="-303" y="721"/>
      <point x="-191" y="641"/>
    </contour>
  </outline>
</glyph>
<glyph name="uptackbelowcomb" format="2">
  <unicode hex="031D"/>
  <anchor x="0" y="0" name="_bottom"/>
  <anchor x="0" y="-208" name="bottom"/>
  <outline>
    <contour>
      <point x="-150" y="-208" type="line"/>
      <point x="151" y="-208" type="line"/>
      <point x="151" y="-148" type="line"/>
      <point x="48" y="-148" type="line"/>
      <point x="48" y="-48" type="line"/>
      <point x="-47" y="-48" type="line"/>
      <point x="-47" y="-148" type="line"/>
      <point x="-150" y="-148" type="line"/>
    </contour>
  </outline>
</glyph>
<glyph name="hookpalatalizedbelowcomb" format="2">
  <unicode hex="0321"/>
  <outline>
    <contour>
      <point x="-45" y="-242" type="curve"/>
      <point x="87" y="-242"/>
      <point x="157" y="-187"/>
      <point x="157" y="-43" type="curve"/>
      <point x="157" y="62" type="line"/>
      <point x="-18" y="62" type="line"/>
      <point x="-18" y="-38" type="line" smooth="yes"/>
      <point x="-18" y="-90"/>
      <point x="-43" y="-102"/>
      <point x="-90" y="-102" type="curve"/>
      <point x="-114" y="-102"/>
      <point x="-138" y="-98"/>
      <point x="-158" y="-93" type="curve"/>
      <point x="-158" y="-228" type="line"/>
      <point x="-127" y="-240"/>
      <point x="-89" y="-242"/>
    </contour>
  </outline>
</glyph>
<glyph name="hookretroflexbelowcomb" format="2">
  <unicode hex="0322"/>
  <outline>
    <contour>
      <point x="37" y="-242" type="curve"/>
      <point x="81" y="-242"/>
      <point x="126" y="-240"/>
      <point x="157" y="-228" type="curve"/>
      <point x="157" y="-93" type="line"/>
      <point x="137" y="-98"/>
      <point x="113" y="-102"/>
      <point x="89" y="-102" type="curve"/>
      <point x="42" y="-102"/>
      <point x="17" y="-87"/>
      <point x="17" y="-38" type="curve"/>
      <point x="17" y="62" type="line"/>
      <point x="-158" y="62" type="line"/>
      <point x="-158" y="-62" type="line" smooth="yes"/>
      <point x="-158" y="-197"/>
      <point x="-82" y="-242"/>
    </contour>
  </outline>
</glyph>
<glyph name="commaaccent" format="2">
  <unicode hex="0326"/>
  <anchor x="0" y="0" name="_bottom"/>
  <anchor x="0" y="-221" name="bottom"/>
  <outline>
    <contour>
      <point x="-140" y="-221" type="line"/>
      <point x="-25" y="-221" type="line"/>
      <point x="28" y="-165"/>
      <point x="68" y="-126"/>
      <point x="92" y="-73" type="curve"/>
      <point x="92" y="-61" type="line"/>
      <point x="-94" y="-61" type="line"/>
      <point x="-98" y="-100"/>
      <point x="-122" y="-165"/>
      <point x="-140" y="-207" type="curve"/>
    </contour>
  </outline>
</glyph>
<glyph name="seagullbelowcomb" format="2">
  <unicode hex="033C"/>
  <anchor x="0" y="0" name="_bottom"/>
  <anchor x="0" y="-177" name="bottom"/>
  <outline>
    <contour>
      <point x="-272" y="-177" type="curve"/>
      <point x="-195" y="-177" type="line"/>
      <point x="-195" y="-132"/>
      <point x="-162" y="-111"/>
      <point x="-114" y="-111" type="curve"/>
      <point x="-63" y="-111"/>
      <point x="-34" y="-132"/>
      <point x="-34" y="-177" type="curve"/>
      <point x="36" y="-177" type="line"/>
      <point x="36" y="-132"/>
      <point x="69" y="-111"/>
      <point x="116" y="-111" type="curve"/>
      <point x="167" y="-111"/>
      <point x="195" y="-132"/>
      <point x="195" y="-177" type="curve"/>
      <point x="272" y="-177" type="line"/>
      <point x="272" y="-100"/>
      <point x="209" y="-61"/>
      <point x="116" y="-61" type="curve"/>
      <point x="64" y="-61"/>
      <point x="26" y="-73"/>
      <point x="1" y="-96" type="curve"/>
      <point x="-24" y="-73"/>
      <point x="-61" y="-61"/>
      <point x="-114" y="-61" type="curve"/>
      <point x="-206" y="-61"/>
      <point x="-272" y="-99"/>
    </contour>
  </outline>
</glyph>
<glyph name="xabovecomb" format="2">
  <unicode hex="033D"/>
  <anchor x="0" y="557" name="_top"/>
  <anchor x="0" y="775" name="top"/>
  <outline>
    <contour>
      <point x="-86" y="571" type="line"/>
      <point x="0" y="630" type="line"/>
      <point x="85" y="571" type="line"/>
      <point x="146" y="613" type="line"/>
      <point x="60" y="673" type="line"/>
      <point x="146" y="732" type="line"/>
      <point x="85" y="775" type="line"/>
      <point x="0" y="715" type="line"/>
      <point x="-86" y="775" type="line"/>
      <point x="-146" y="732" type="line"/>
      <point x="-61" y="673" type="line"/>
      <point x="-146" y="613" type="line"/>
    </contour>
  </outline>
</glyph>
<glyph name="tildeverticalcomb" format="2">
  <unicode hex="033E"/>
  <anchor x="0" y="557" name="_top"/>
  <anchor x="0" y="866" name="top"/>
  <outline>
    <contour>
      <point x="-92" y="576" type="line"/>
      <point x="22" y="576"/>
      <point x="91" y="612"/>
      <point x="91" y="659" type="curve"/>
      <point x="91" y="711"/>
      <point x="9" y="752"/>
      <point x="9" y="780" type="curve"/>
      <point x="9" y="798"/>
      <point x="37" y="816"/>
      <point x="92" y="816" type="curve"/>
      <point x="92" y="866" type="line"/>
      <point x="-20" y="866"/>
      <point x="-91" y="831"/>
      <point x="-91" y="784" type="curve"/>
      <point x="-91" y="735"/>
      <point x="-9" y="695"/>
      <point x="-9" y="662" type="curve"/>
      <point x="-9" y="644"/>
      <point x="-36" y="627"/>
      <point x="-92" y="627" type="curve"/>
    </contour>
  </outline>
</glyph>
